<?xml version="1.0" encoding="UTF-8" standalone="no"?>
<!-- Created with Inkscape (http://www.inkscape.org/) -->

<svg
   version="1.1"
   id="svg2"
   width="70"
   height="55"
   viewBox="0 0 70 55.000001"
   sodipodi:docname="Logo.svg"
   xml:space="preserve"
   inkscape:version="1.2.2 (b0a8486541, 2022-12-01)"
   xmlns:inkscape="http://www.inkscape.org/namespaces/inkscape"
   xmlns:sodipodi="http://sodipodi.sourceforge.net/DTD/sodipodi-0.dtd"
   xmlns="http://www.w3.org/2000/svg"
   xmlns:svg="http://www.w3.org/2000/svg"><defs
     id="defs6"><rect
       x="84.138847"
       y="121.26678"
       width="83.337524"
       height="18.697521"
       id="rect286" /><style
       id="style319">.cls-1{fill:#333;}.cls-1,.cls-2,.cls-3,.cls-4,.cls-5{fill-rule:evenodd;}.cls-2{fill:#ccc;}.cls-3{fill:#83b3d7;}.cls-4{fill:#3a91be;}.cls-5{fill:#e99688;}</style><filter
       style="color-interpolation-filters:sRGB;"
       inkscape:label="Invert"
       id="filter351"
       x="0"
       y="0"
       width="1"
       height="1"><feColorMatrix
         values="1 0 0 0 0 0 1 0 0 0 0 0 1 0 0 -0.21 -0.72 -0.07 2 0 "
         result="fbSourceGraphic"
         id="feColorMatrix349" /><feColorMatrix
         result="fbSourceGraphicAlpha"
         in="fbSourceGraphic"
         values="0 0 0 -1 0 0 0 0 -1 0 0 0 0 -1 0 0 0 0 1 0"
         id="feColorMatrix353" /><feColorMatrix
         id="feColorMatrix355"
         values="1 0 0 0 0 0 1 0 0 0 0 0 1 0 0 -0.21 -0.72 -0.07 2 0 "
         result="color2"
         in="fbSourceGraphic" /></filter></defs><sodipodi:namedview
     id="namedview4"
     pagecolor="#ffffff"
     bordercolor="#000000"
     borderopacity="0.25"
     inkscape:showpageshadow="2"
     inkscape:pageopacity="0.0"
     inkscape:pagecheckerboard="0"
     inkscape:deskcolor="#d1d1d1"
     showgrid="false"
     inkscape:zoom="5.2945493"
     inkscape:cx="28.897644"
     inkscape:cy="43.818649"
     inkscape:window-width="1366"
     inkscape:window-height="745"
     inkscape:window-x="-8"
     inkscape:window-y="-8"
     inkscape:window-maximized="1"
     inkscape:current-layer="g347" /><g
     inkscape:groupmode="layer"
     inkscape:label="Image"
     id="g8"><text
       xml:space="preserve"
       style="font-size:7.14426px;fill:#ffffff;stroke-width:0.595355"
       x="2.4557724"
       y="28.889393"
       id="text224"
       transform="scale(0.92692864,1.0788317)"><tspan
         sodipodi:role="line"
         id="tspan222"
         x="2.4557724"
         y="28.889393"
         style="font-style:normal;font-variant:normal;font-weight:normal;font-stretch:normal;font-family:Rockwell;-inkscape-font-specification:Rockwell;stroke-width:0.595355;fill:#ffffff">        </tspan><tspan
         sodipodi:role="line"
         x="2.4557724"
         y="38.037834"
         id="tspan278"
         style="font-style:normal;font-variant:normal;font-weight:normal;font-stretch:normal;font-family:Perpetua;-inkscape-font-specification:Perpetua;stroke-width:0.595355;fill:#ffffff">HTML5 - CSS3 - Javascript </tspan><tspan
         sodipodi:role="line"
         x="2.4557724"
         y="47.775265"
         id="tspan280"
         style="font-style:normal;font-variant:normal;font-weight:normal;font-stretch:normal;font-family:Rockwell;-inkscape-font-specification:Rockwell;stroke-width:0.595355;fill:#ffffff" /><tspan
         sodipodi:role="line"
         x="2.4557724"
         y="56.923706"
         id="tspan276"
         style="stroke-width:0.595355;fill:#ffffff" /></text><text
       xml:space="preserve"
       id="text284"
       style="font-style:normal;font-variant:normal;font-weight:normal;font-stretch:normal;font-size:8px;font-family:Rockwell;-inkscape-font-specification:Rockwell;white-space:pre;shape-inside:url(#rect286);fill:#000000" /><text
       xml:space="preserve"
       style="font-style:normal;font-variant:normal;font-weight:normal;font-stretch:normal;font-size:5.3807px;font-family:Rockwell;-inkscape-font-specification:Rockwell;fill:#ffffff;stroke-width:0.672588"
       x="13.67961"
       y="55.184128"
       id="text292"
       transform="scale(1.0632693,0.94049551)"><tspan
         sodipodi:role="line"
         id="tspan290"
         x="13.67961"
         y="55.184128"
         style="stroke-width:0.672588;fill:#ffffff">(nivel avanzado)</tspan></text><text
       xml:space="preserve"
       style="font-style:normal;font-variant:normal;font-weight:normal;font-stretch:normal;font-size:8px;font-family:Rockwell;-inkscape-font-specification:Rockwell;fill:#ffffff"
       x="7.8261871"
       y="47.50235"
       id="text296"><tspan
         sodipodi:role="line"
         id="tspan294"
         x="7.8261871"
         y="47.50235">Desarrollo web </tspan></text><g
       id="g347"
       transform="matrix(0.53909508,0,0,0.45360505,1.8654122,2.5662782)"
       style="filter:url(#filter351)"><path
         class="cls-1"
         d="M 16.3,0 H 106 a 2.15,2.15 0 0 1 2.14,2.14 v 37.38 l -3.36,-2.27 V 8.91 h -87 v 52.44 h 87 v -5.58 l 3.36,1.51 v 5.19 a 2.19,2.19 0 0 1 -0.39,1.23 h 11.76 a 3.35,3.35 0 0 1 0,6.69 H 3.35 a 3.35,3.35 0 1 1 0,-6.69 h 11.2 A 2.12,2.12 0 0 1 14.16,62.47 V 2.14 A 2.14,2.14 0 0 1 16.3,0 Z m 12.44,3.45 a 1.29,1.29 0 1 1 -1.29,1.29 1.29,1.29 0 0 1 1.29,-1.29 z m -4.51,0 a 1.29,1.29 0 1 1 -1.29,1.29 1.29,1.29 0 0 1 1.29,-1.29 z m -4.51,0 a 1.29,1.29 0 1 1 -1.29,1.29 1.29,1.29 0 0 1 1.29,-1.29 z m 38.2,62 h 7 a 1.2,1.2 0 0 1 1.2,1.2 v 0 a 1.2,1.2 0 0 1 -1.2,1.2 h -7 a 1.2,1.2 0 0 1 -1.2,-1.2 v 0 a 1.2,1.2 0 0 1 1.2,-1.2 z"
         id="path325"
         style="fill:#e6e6e6" /><path
         class="cls-2"
         d="m 37.25,45.05 c -0.92,0 -0.92,-3.42 0,-3.42 h 36.92 a 10.55,10.55 0 0 0 5.17,1.82 11,11 0 0 0 4.14,-0.37 l 1.89,2 z m -11.89,0 c -0.91,0 -0.91,-3.42 0,-3.42 H 34 c 0.91,0 0.91,3.42 0,3.42 z M 25.07,37.9 c -0.92,0 -0.92,-3.42 0,-3.42 h 8.63 c 0.91,0 0.91,3.42 0,3.42 z m 12.18,0 c -0.92,0 -0.92,-3.42 0,-3.42 H 69.3 l 0.1,0.22 c 0.51,1.1 1,2.18 1.59,3.2 z"
         id="path327" /><path
         class="cls-3"
         d="m 78.16,13 h 17 A 2.77,2.77 0 0 1 98,15.73 v 10.85 a 2.77,2.77 0 0 1 -2.76,2.76 H 89.51 A 11.07,11.07 0 0 0 87.76,26.85 15.21,15.21 0 0 0 80,22.55 21.7,21.7 0 0 0 75.38,22.05 V 15.73 A 2.77,2.77 0 0 1 78.16,13 Z"
         id="path329"
         style="fill:#00ffff" /><path
         class="cls-4"
         d="m 52.68,13 h 17 a 2.77,2.77 0 0 1 2.75,2.76 v 6.45 c -1.39,0.14 -2.67,0.34 -3.74,0.54 A 4.53,4.53 0 0 0 65.1,28 4.4,4.4 0 0 0 65.58,29.36 H 52.68 A 2.76,2.76 0 0 1 49.93,26.6 V 15.73 A 2.76,2.76 0 0 1 52.68,13 Z"
         id="path331"
         style="fill:#008080" /><path
         class="cls-5"
         d="m 27.2,13 h 17 a 2.77,2.77 0 0 1 2.8,2.73 v 10.85 a 2.78,2.78 0 0 1 -2.76,2.76 h -17 A 2.76,2.76 0 0 1 24.49,26.58 V 15.73 A 2.76,2.76 0 0 1 27.2,13 Z"
         id="path333"
         style="fill:#0000ff" /><path
         class="cls-1"
         d="m 69.55,27.17 c 4.64,3.09 4,11.12 10.26,11.78 a 6.49,6.49 0 0 0 4.93,-1.61 4.15,4.15 0 0 0 1.34,-2.7 c 0.4,-4.15 -3.4,-6.86 -7,-7.68 a 24.48,24.48 0 0 0 -9.48,0.21 z m 19,8.21 a 6.25,6.25 0 0 1 -2.33,4 l 4.78,5 a 18.69,18.69 0 0 0 4.64,-8.07 31.63,31.63 0 0 1 -7.09,-0.95 z m 8.29,1.93 a 21,21 0 0 1 -4.48,7.93 l 22.17,9.95 a 6.26,6.26 0 0 0 1.46,0.54 2.36,2.36 0 0 0 2.74,-2.92 2.77,2.77 0 0 0 -1.21,-1.45 l -20.68,-14 z"
         id="path335"
         style="fill:#e6e6e6" /></g></g></svg>
