<?xml version="1.0" encoding="UTF-8" standalone="no"?>
<!-- Created with Inkscape (http://www.inkscape.org/) -->

<svg
   version="1.1"
   id="svg2"
   width="1333.3333"
   height="1330"
   viewBox="0 0 1333.3333 1330"
   sodipodi:docname="Rompecabezas.svg"
   inkscape:version="1.2.2 (b0a8486541, 2022-12-01)"
   xmlns:inkscape="http://www.inkscape.org/namespaces/inkscape"
   xmlns:sodipodi="http://sodipodi.sourceforge.net/DTD/sodipodi-0.dtd"
   xmlns="http://www.w3.org/2000/svg"
   xmlns:svg="http://www.w3.org/2000/svg">
  <defs
     id="defs6" />
  <sodipodi:namedview
     id="namedview4"
     pagecolor="#ffffff"
     bordercolor="#000000"
     borderopacity="0.25"
     inkscape:showpageshadow="2"
     inkscape:pageopacity="0.0"
     inkscape:pagecheckerboard="0"
     inkscape:deskcolor="#d1d1d1"
     showgrid="false"
     inkscape:zoom="0.39236111"
     inkscape:cx="640.99115"
     inkscape:cy="925.16814"
     inkscape:window-width="1366"
     inkscape:window-height="745"
     inkscape:window-x="-8"
     inkscape:window-y="-8"
     inkscape:window-maximized="1"
     inkscape:current-layer="g8" />
  <g
     inkscape:groupmode="layer"
     inkscape:label="Image"
     id="g8">
    <path
       style="fill:#000000;stroke-width:1.33333"
       d="m 0,1386.6667 v -53.3334 H 222.84111 445.6822 L 444.9392,1329 c -9.7814,-57.0481 -11.9392,-76.8339 -11.96,-109.6667 -0.017,-27.0968 1.8883,-40.7833 7.2731,-52.2389 3.4407,-7.3198 9.3966,-12.376 14.85,-12.6068 16.7592,-0.7093 21.7335,1.3346 39.5643,16.2569 6.9667,5.8302 15.9667,12.2478 20,14.2613 6.5375,3.2635 8.7081,3.6466 20,3.5296 15.3807,-0.1594 24.3263,-3.194 36.3622,-12.3349 33.2818,-25.2764 33.2818,-76.4579 0,-101.7343 -12.1772,-9.2483 -21.0291,-12.2603 -36.3622,-12.3731 -11.2317,-0.082 -13.4974,0.3201 -20,3.5539 -4.0333,2.0059 -12.7333,8.2142 -19.3333,13.7964 -15.3902,13.0167 -22.9023,16.6317 -34.7508,16.7226 -9.542,0.073 -13.2339,-1.6034 -18.1622,-8.2484 -6.8153,-9.1893 -11.688,-35.4867 -11.72,-63.2509 -0.034,-29.15586 5.5909,-80.00863 13.125,-118.6667 1.4292,-7.33333 2.2032,-13.70805 1.72,-14.16603 -1.1014,-1.04381 -39.3882,-7.16316 -61.4814,-9.82652 -67.9664,-8.19344 -120.1535,-3.31981 -130.3019,12.16858 -1.6226,2.47645 -1.9622,5.61722 -1.4899,13.77744 0.7017,12.12057 1.8201,14.25664 17.8477,34.08702 13.2375,16.37834 16.5171,23.71795 16.5338,37.00158 0.045,36.23523 -30.4841,64.31973 -67.32027,61.92863 -19.02746,-1.2351 -35.70215,-10.2194 -46.70353,-25.1637 -8.85332,-12.0264 -11.73058,-20.71543 -11.85702,-35.807 -0.0943,-11.24631 0.30284,-13.48899 3.5409,-20 2.00585,-4.03333 8.16697,-12.73333 13.6914,-19.33333 13.45277,-16.07199 16.66158,-22.6583 16.66158,-34.19906 0,-10.70962 -1.36618,-14.19161 -7.11333,-18.12961 -19.54724,-13.39399 -67.73432,-15.1156 -138.92797,-4.96359 -12.48939,1.78095 -28.23939,4.37264 -35,5.7593 L 1.33333,891.65492 V 669.01625 446.37757 l 3,0.75199 c 1.65,0.4136 12,2.27177 23,4.12929 75.35354,12.72455 130.4882,13.18502 154.96808,1.29424 10.57476,-5.13654 12.36525,-8.1658 12.36525,-20.9202 0,-13.32934 -1.82761,-17.24437 -16.01174,-34.29956 -5.79391,-6.96666 -12.1152,-15.78141 -14.04731,-19.58833 -12.54356,-24.71496 2.74221,-60.86191 31.69531,-74.95133 42.57618,-20.71886 93.41268,13.06293 90.05428,59.84282 -0.8024,11.17779 -3.9948,17.42726 -17.1855,33.64263 -15.1469,18.62005 -16.2463,20.81336 -16.836,33.5872 -0.6205,13.43997 1.4135,17.29367 11.7824,22.32369 25.9754,12.60096 87.344,11.73067 163.7298,-2.32192 9.8163,-1.80589 18.0395,-3.0918 18.2737,-2.85757 0.9045,0.90445 7.2612,37.70008 9.7673,56.53752 7.8868,59.28157 6.7178,102.63209 -3.3415,123.91051 -5.1649,10.92526 -6.8554,11.87478 -21.1418,11.87478 -11.9222,0 -12.5332,-0.1509 -19.5232,-4.82224 -3.9686,-2.65224 -11.6925,-8.58764 -17.164,-13.18978 -13.5977,-11.43718 -23.5163,-15.9951 -34.7184,-15.95434 -17.2772,0.0629 -30.3534,5.3561 -43.4145,17.57408 -32.3224,30.23604 -24.234,83.39959 15.6611,102.93744 16.2668,7.96632 33.3161,8.80663 46.1227,2.27323 2.7952,-1.426 11.0556,-7.48525 18.3564,-13.46499 16.667,-13.65106 21.6502,-16.25517 32.6114,-17.04209 13.01,-0.934 17.3504,1.35756 22.5254,11.89243 7.1315,14.51769 8.6609,24.7466 8.6418,57.79626 -0.019,32.80646 -1.9894,53.42814 -9.228,96.57522 -2.5137,14.98302 -4.4292,27.37157 -4.2567,27.53008 0.1726,0.15852 6.1631,-0.84338 13.3124,-2.22643 43.3309,-8.38253 85.9612,-12.47821 119.5587,-11.48651 26.4067,0.77946 36.81,2.54682 47.8015,8.12068 10.4964,5.32282 11.6411,7.3515 11.6411,20.63058 0,13.66744 -0.7644,15.26304 -16.5642,34.57726 -13.7389,16.7948 -17.416,24.60696 -17.3902,36.94579 0.037,17.51712 5.2347,30.7681 17.1093,43.6162 5.28,5.7129 10.1233,9.2124 18.4832,13.3549 10.5513,5.2283 12.2275,5.6495 24.4385,6.1399 20.8202,0.8363 34.1715,-4.1821 48.4899,-18.226 8.8678,-8.6978 14.9648,-19.9669 17.6009,-32.53177 3.8847,-18.51635 0.4206,-28.8018 -16.7342,-49.68656 -13.4331,-16.35386 -15.9961,-21.14166 -16.9815,-31.72202 -1.4576,-15.65154 4.0515,-21.66032 25.5483,-27.86561 9.9807,-2.88101 12.9391,-3.07447 46,-3.00795 30.8864,0.0621 38.5217,0.52094 60.6667,3.64547 27.5559,3.88799 60.3439,9.51623 61.3605,10.53289 1.1581,1.15806 7.1618,36.00764 10.5232,61.08388 10.1362,75.61627 5.8199,127.68627 -11.6513,140.55767 -3.048,2.2455 -5.6023,2.7507 -13.372,2.6447 -12.251,-0.167 -15.3152,-1.6671 -34.2372,-16.7611 -20.1812,-16.0985 -24.0001,-17.8127 -39.2899,-17.6357 -19.3884,0.2244 -34.8496,7.9577 -47.6323,23.8247 -18.5079,22.9735 -18.5156,55.6739 -0.019,78.7595 12.4088,15.4871 29.7292,23.934 48.9843,23.8889 13.5868,-0.032 19.2197,-2.6628 37.666,-17.593 18.2892,-14.8031 22.1846,-16.7175 34.3567,-16.8847 7.9905,-0.1097 10.4634,0.3781 13.543,2.6717 9.7519,7.263 13.8355,22.2542 14.7515,54.1531 0.8927,31.0887 -2.2311,64.8144 -10.0689,108.7076 l -2.4404,13.6666 h 220.4294 220.4294 V 1386.6667 1440 H 666.6667 2e-5 v -53.3333 z m 61.321866,4 c 6.77255,-19.0119 7.04822,-20 5.57969,-20 -0.70297,0 -3.53912,6.45 -6.30255,14.3333 -2.763426,7.8833 -5.448806,14.8235 -5.967496,15.4224 -0.5187,0.5991 -3.22558,-5.5789 -6.0153,-13.7288 -4.66229,-13.6205 -6.51175,-17.2425 -8.02944,-15.7248 -0.50034,0.5003 2.53547,9.6188 9.57808,28.7692 3.21707,8.7479 5.45853,6.9255 11.157016,-9.0713 z m 23.23574,13.8573 c 4.14456,-1.5904 2.0075,-2.8516 -3.73511,-2.2044 -4.7269,0.5328 -6.38376,0.1187 -8.66667,-2.1637 -5.29313,-5.2932 -3.80988,-6.8226 6.61677,-6.8226 h 9.43928 L 87.295316,1389 c -1.7041,-8.0567 -7.86639,-12.0771 -14.56892,-9.5051 -3.19277,1.2252 -6.05974,7.6551 -6.05974,13.5904 0,9.085 9.01101,14.8463 17.89095,11.4387 z m -15.22428,-15.5607 c 0,-3.2788 4.17076,-7.63 7.3137,-7.63 3.82237,0 7.35297,3.2468 7.35297,6.7619 0,2.228 -0.97943,2.5715 -7.33334,2.5715 -5.06195,0 -7.33333,-0.5276 -7.33333,-1.7034 z m 40.955104,14.1939 c 0.33832,-1.0304 -1.32294,-1.3045 -5.23312,-0.8639 -7.286254,0.8214 -10.994714,-2.6505 -10.994714,-10.2933 0,-6.9515 3.67323,-10.8968 9.886654,-10.6192 6.75841,0.302 7.64024,0.076 5.38608,-1.3808 -3.75661,-2.4277 -10.616854,-1.5044 -14.006384,1.8852 -6.00633,6.0063 -5.97549,14.2541 0.0759,20.3056 2.64263,2.6425 4.39201,3.2133 8.842154,2.8851 3.05125,-0.2251 5.77079,-1.0886 6.04341,-1.9187 z m 12.37823,1.3231 c 0,-0.4691 -0.9726,-1.5642 -2.16133,-2.4334 -1.50985,-1.104 -2.36766,-4.4641 -2.84583,-11.147 -0.65054,-9.0922 -0.54338,-9.5666 2.16134,-9.5666 1.5652,0 2.84582,-0.6 2.84582,-1.3333 0,-0.7333 -1.2,-1.3333 -2.66666,-1.3333 -2.07408,0 -2.66667,-0.889 -2.66667,-4 0,-2.2 -0.65163,-4 -1.44807,-4 -0.98431,0 -1.30457,4.9458 -1,15.4433 0.39006,13.444 0.78315,15.6881 3.03624,17.3333 2.74913,2.0076 4.74516,2.4438 4.74516,1.037 z m 23.21482,-3.2492 c 4.95109,-5.8842 4.77048,-13.451 -0.44559,-18.667 -2.65999,-2.66 -5.23256,-3.8974 -8.10256,-3.8974 -6.39853,0 -12,6.2238 -12,13.3333 0,11.9221 13.26824,17.8827 20.54815,9.2311 z m -14.45091,-0.6576 c -6.64549,-6.6455 -2.78253,-19.2402 5.90123,-19.2402 9.02385,0 12.59557,15.109 4.80193,20.313 -2.54844,1.7016 -8.52807,1.1022 -10.70316,-1.0728 z M 156,1395.2713 c 0,-9.7806 0.1116,-10.1256 3.99157,-12.3333 2.19536,-1.2492 3.99536,-2.7213 4,-3.2713 0.0133,-1.5839 -3.28545,-1.1631 -5.22491,0.6666 -1.41333,1.3334 -1.88889,1.3334 -2.37777,0 -1.80473,-4.922 -3.05556,-0.146 -3.05556,11.6667 0,8 0.53333,13.3333 1.33333,13.3333 0.77111,0 1.33334,-4.2429 1.33334,-10.062 z m 32.10256,6.1646 c 6.7259,-6.7259 4.17256,-13.135 -6.66734,-16.7354 -8.24873,-2.7398 -10.32265,-4.956 -7.38601,-7.8926 2.66203,-2.662 5.51763,-2.6984 10.43653,-0.1334 4.65658,2.4286 4.39472,2.4284 5.32572,0 1.20439,-3.1386 -6.49761,-6.4484 -12.98168,-5.5788 -6.03729,0.8099 -8.82978,3.654 -8.82978,8.9932 0,4.38 2.48672,6.6083 10.40765,9.326 8.17155,2.8038 9.99683,5.871 5.62659,9.4552 -3.16403,2.595 -5.43302,2.7102 -15.04591,0.7636 -0.82315,-0.1666 -1.71733,0.7007 -1.98708,1.9274 -0.54423,2.4749 2.06327,3.293 11.43464,3.588 4.73328,0.1489 6.46908,-0.5183 9.66667,-3.7159 z m 18.15481,1.7938 c 0.26309,-0.7902 -1.03719,-2.1274 -2.88951,-2.9713 -3.05883,-1.3937 -3.36786,-2.2713 -3.36786,-9.5632 0,-7.6749 0.14682,-8.0285 3.33333,-8.0285 2.07408,0 3.33333,-0.7556 3.33333,-2 0,-1.2444 -1.25925,-2 -3.33333,-2 -2.81482,0 -3.33333,-0.6223 -3.33333,-4 0,-2.6667 -0.66667,-4 -2,-4 -1.66127,0 -2,2.5841 -2,15.2577 0,14.31 0.18634,15.3885 3,17.3636 3.23863,2.2735 6.48982,2.2473 7.25737,-0.059 z m 21.39413,0.064 c 3.90165,-2.7328 5.81885,-10.0192 4.1892,-15.9213 -1.52615,-5.5269 -5.60603,-8.7057 -11.17404,-8.7057 -5.494,0 -9.4792,3.0485 -11.33469,8.6708 -1.8899,5.7264 0.10733,12.9849 4.40006,15.9917 3.68455,2.5808 10.20824,2.5643 13.91947,-0.035 z m -12.24257,-4.924 c -4.03288,-5.7577 -1.0773,-15.7033 4.66666,-15.7033 3.86351,0 7.9244,4.7829 7.9244,9.3333 0,4.5504 -4.06089,9.3334 -7.9244,9.3334 -1.42508,0 -3.52508,-1.3335 -4.66666,-2.9634 z m 39.04487,3.7856 c 0.4023,-2.1182 -0.083,-2.3705 -3.1019,-1.6128 -5.162,1.2956 -8.1696,-0.079 -10.0369,-4.5872 -1.2958,-3.1281 -1.2958,-4.783 0,-7.9112 1.8673,-4.5082 4.8749,-5.8828 10.0369,-4.5872 3.019,0.7576 3.5042,0.5055 3.1025,-1.6128 -0.583,-3.0738 -8.1325,-4.1574 -12.5381,-1.7996 -7.50409,4.016 -7.91624,17.95 -0.6985,23.6159 1.1635,0.9135 4.5103,1.5135 7.4373,1.3333 4.0022,-0.2461 5.4401,-0.95 5.7987,-2.8384 z m 9.5462,-2.822 c 0,-3.3 0.45,-5.9868 1,-5.9706 0.55,0.016 2.8,2.7148 5,5.997 2.8104,4.1931 4.9175,5.9687 7.0851,5.9707 2.9416,0 2.8224,-0.3717 -2.5588,-8.0432 l -5.6441,-8.0461 5.1628,-5.2872 c 4.3075,-4.4112 4.7265,-5.2872 2.5294,-5.2872 -1.4484,0 -4.8702,1.8437 -7.604,4.097 L 264,1386.8608 v -8.0971 c 0,-7.2081 -0.2928,-8.097 -2.6667,-8.097 -2.5299,0 -2.6666,0.8889 -2.6666,17.3333 0,16.4444 0.1367,17.3333 2.6666,17.3333 2.2716,0 2.6667,-0.8889 2.6667,-6 z M 1180.697,1396 c 1.2969,-4.0333 2.6349,-8.0833 2.9732,-9 0.3383,-0.9167 0.069,-1.6667 -0.5985,-1.6667 -1.0797,0 -7.0717,16.4051 -7.0717,19.3612 0,2.7472 2.5145,-1.9074 4.697,-8.6945 z m -195.85046,-1.8377 c 1.9189,-5.6884 2.4595,-8.8199 1.4655,-8.4886 -0.8662,0.2888 -2.4461,3.3303 -3.5109,6.759 -1.0648,3.4286 -2.3253,6.234 -2.8011,6.234 -0.4759,0 -1.7364,-2.8054 -2.8011,-6.234 -1.0648,-3.4287 -2.6531,-6.473 -3.5295,-6.7651 -1.393,-0.4644 0.028,5.0236 4.3457,16.7767 1.3199,3.5932 3.8674,0.5046 6.8314,-8.282 z m 14.8616,7.9081 c -0.2061,-0.6945 -1.8218,-1.2945 -3.5905,-1.3333 -5.4232,-0.1187 -5.0006,-3.4038 0.4379,-3.4038 3.0314,0 4.77776,-0.6336 4.77776,-1.7333 0,-2.5967 -2.84186,-4.9333 -5.99996,-4.9333 -5.755,0 -8.1309,7.012 -3.8324,11.3105 2.2456,2.2456 8.86816,2.3208 8.2072,0.093 z m -5.7441,-7.462 c -0.4335,-0.7013 0.4473,-1.2751 1.9573,-1.2751 3.2194,0 3.5442,0.7415 0.788,1.7991 -1.0765,0.4132 -2.3119,0.1773 -2.7453,-0.524 z m 21.31586,8.1447 c 0.4239,-0.6859 -1.1907,-1.4359 -3.588,-1.6667 -3.6484,-0.3513 -4.3586,-0.9629 -4.3586,-3.7531 0,-2.7901 0.7102,-3.4017 4.3586,-3.753 4.8756,-0.4695 4.5886,-2.9136 -0.342,-2.9136 -3.7802,0 -7.3499,3.2378 -7.3499,6.6666 0,4.988 8.903,9.2658 11.2799,5.4198 z m 8.7201,-0.086 c 0,-0.7334 -0.6,-1.3334 -1.3334,-1.3334 -0.7333,0 -1.3333,-1.8 -1.3333,-4 0,-2.2 0.693,-4 1.54,-4 0.8673,0 0.4734,-1.1785 -0.9018,-2.6981 -1.7434,-1.9264 -2.7219,-2.2452 -3.4207,-1.1145 -0.8911,1.4418 -0.4072,8.6993 0.8543,12.8126 0.6056,1.9746 4.5949,2.2639 4.5949,0.3334 z m 13.9047,-0.7619 c 4.0436,-4.0436 1.1171,-11.2381 -4.5714,-11.2381 -3.1814,0 -6.6667,3.4853 -6.6667,6.6666 0,3.1814 3.4853,6.6667 6.6667,6.6667 1.3619,0 3.4191,-0.9428 4.5714,-2.0952 z m -8.0533,-2.478 c -1.3276,-3.4595 0.5331,-6.3188 3.8093,-5.8536 2.2036,0.3129 3.0059,1.3165 3.0059,3.7601 0,2.4436 -0.8023,3.4472 -3.0059,3.7602 -1.8031,0.2561 -3.3275,-0.411 -3.8093,-1.6667 z m 15.4819,-0.1353 c 0,-2.9554 0.7447,-4.9943 2,-5.476 3.1187,-1.1967 2.3522,-2.8155 -1.3333,-2.8155 -3.0997,0 -3.3334,0.4556 -3.3334,6.5 0,3.5751 0.6,6.5 1.3334,6.5 0.7333,0 1.3333,-2.1188 1.3333,-4.7085 z m 17.2802,2.7725 c 2.3717,-2.8576 0.5173,-6.8816 -4.0414,-8.7699 -4.7383,-1.9626 -4.4594,-4.6021 0.4954,-4.6884 5.0065,-0.088 5.8902,-1.6478 1.5501,-2.7372 -4.451,-1.117 -7.7985,0.7135 -8.3742,4.5796 -0.3193,2.1444 0.7511,3.4026 4.3581,5.1227 5.6731,2.7053 5.4662,5.1749 -0.4103,4.8993 -4.022,-0.1886 -5.1944,0.749 -3.3023,2.641 1.6185,1.6185 8.0907,0.9217 9.7246,-1.0471 z m 9.3865,0.6027 c 0,-0.7334 -0.6,-1.3334 -1.3334,-1.3334 -1.6825,0 -1.7688,-7.6217 -0.093,-8.2222 0.6821,-0.2444 0.3584,-1.6415 -0.7193,-3.1046 -1.5771,-2.1412 -2.1801,-2.303 -3.0905,-0.8301 -1.4535,2.3519 -0.1498,12.5213 1.7695,13.8032 2.063,1.3777 3.4669,1.2509 3.4669,-0.3129 z m 13.9047,-0.7619 c 4.0436,-4.0436 1.1171,-11.2381 -4.5714,-11.2381 -3.1814,0 -6.6667,3.4853 -6.6667,6.6666 0,3.1814 3.4853,6.6667 6.6667,6.6667 1.3619,0 3.4191,-0.9428 4.5714,-2.0952 z m -8.0533,-2.478 c -1.3276,-3.4595 0.5331,-6.3188 3.8093,-5.8536 2.2036,0.3129 3.0059,1.3165 3.0059,3.7601 0,2.4436 -0.8023,3.4472 -3.0059,3.7602 -1.8031,0.2561 -3.3275,-0.411 -3.8093,-1.6667 z m 24.3835,2.56 c 0.2423,-0.7405 -1.5115,-1.3405 -3.8972,-1.3333 -3.7415,0.013 -4.3377,-0.445 -4.3377,-3.3202 0,-2.7901 0.7102,-3.4017 4.3586,-3.753 4.8756,-0.4695 4.5886,-2.9136 -0.3421,-2.9136 -6.3592,0 -9.5433,6.9494 -5.1822,11.3105 2.2879,2.2879 8.653,2.2944 9.4006,0.013 z m 4.4797,-1.6535 0.048,-3.6666 3.0021,3.6666 c 4.0041,4.8904 5.481,4.654 2.8393,-0.4545 -1.9731,-3.8156 -1.9603,-4.31 0.1724,-6.6667 1.986,-2.1945 2.019,-2.5454 0.2396,-2.5454 -1.1352,0 -2.4094,0.9 -2.8315,2 -1.4057,3.6633 -3.5178,2.0622 -3.5178,-2.6667 0,-2.5667 -0.6,-4.6667 -1.3334,-4.6667 -0.7619,0 -1.3333,4 -1.3333,9.3334 0,5.3333 0.5714,9.3333 1.3333,9.3333 0.7334,0 1.355,-1.65 1.3813,-3.6667 z m 13.2854,2.3334 c 0,-0.7334 -0.6,-1.3334 -1.3334,-1.3334 -0.7333,0 -1.3333,0.6 -1.3333,1.3334 0,0.7333 0.6,1.3333 1.3333,1.3333 0.7334,0 1.3334,-0.6 1.3334,-1.3333 z m 15.5682,-0.6799 c 0.2423,-0.7405 -1.5114,-1.3405 -3.8972,-1.3333 -3.7415,0.013 -4.3377,-0.445 -4.3377,-3.3202 0,-2.7901 0.7102,-3.4017 4.3586,-3.753 4.8756,-0.4695 4.5886,-2.9136 -0.342,-2.9136 -6.3592,0 -9.5433,6.9494 -5.1823,11.3105 2.2879,2.2879 8.6531,2.2944 9.4006,0.013 z m 13.0032,-0.083 c 4.0436,-4.0429 1.1171,-11.2374 -4.5714,-11.2374 -3.1814,0 -6.6667,3.4853 -6.6667,6.6666 0,3.1814 3.4853,6.6667 6.6667,6.6667 1.3619,0 3.419,-0.9428 4.5714,-2.0952 z m -8.0534,-2.478 c -1.3275,-3.4594 0.5332,-6.3188 3.8093,-5.8536 2.2037,0.313 3.006,1.3166 3.006,3.7602 0,2.4436 -0.8023,3.4472 -3.006,3.7601 -1.803,0.2561 -3.3274,-0.4109 -3.8093,-1.6667 z m 15.7348,-0.4268 c 0.3324,-4.0162 1.0041,-5.0838 3.4138,-5.4261 2.6895,-0.3819 3,0.1357 3,5 0,6.8111 2.3615,7.1647 2.9195,0.4372 0.2893,-3.4865 1.1165,-5.122 2.7472,-5.4311 1.9127,-0.3625 2.3333,0.5368 2.3333,4.989 0,2.987 0.6,5.431 1.3334,5.431 1.4562,0 1.8223,-7.8409 0.524,-11.2242 -0.9575,-2.4954 -4.6652,-2.7679 -6.924,-0.5091 -1.2337,1.2337 -1.6,1.2359 -1.6,0.013 0,-1.0014 -1.9752,-1.513 -5.3334,-1.3814 l -5.3333,0.209 v 6.448 c 0,7.577 2.3172,8.7263 2.9195,1.4482 z m 39.7472,3.6674 c 0,-0.7334 -0.6,-1.3334 -1.3334,-1.3334 -0.7407,0 -1.3333,-3.5556 -1.3333,-8 0,-8.652 -0.8684,-9.5773 -4.7933,-5.1072 -2.2803,2.597 -2.3014,2.8058 -0.2067,2.0419 2.0011,-0.7299 2.3333,0 2.3333,5.1072 0,3.2769 -0.6,5.9581 -1.3333,5.9581 -0.7333,0 -1.3333,0.6 -1.3333,1.3334 0,0.7333 1.8,1.3333 4,1.3333 2.2,0 4,-0.6 4,-1.3333 z m 10.3805,-7.3586 c 2.3574,-4.7805 4.2861,-8.9805 4.2861,-9.3333 0,-0.3528 -2.7,-0.6415 -6,-0.6415 -6.6825,0 -8.2481,2.2619 -2.0179,2.9155 l 3.982,0.4179 -3.3154,7.1324 c -3.6795,7.9158 -3.7584,8.2009 -2.2682,8.2009 0.576,0 2.976,-3.9113 5.3334,-8.6919 z m 15.5242,6.5967 c 1.1524,-1.1524 2.0953,-3.2096 2.0953,-4.5715 0,-2.9378 -3.4092,-6.6666 -6.0953,-6.6666 -1.0476,0 -1.9047,-0.6 -1.9047,-1.3334 0,-0.7333 1.5,-1.3333 3.3333,-1.3333 1.8333,0 3.3333,-0.6 3.3333,-1.3333 0,-0.7334 -2.1,-1.3334 -4.6666,-1.3334 -3.7115,0 -4.6667,0.5235 -4.6667,2.5576 0,1.4067 -0.3423,3.4498 -0.7608,4.5402 -0.5874,1.5308 0.2481,1.9354 3.6667,1.7757 3.8889,-0.1816 4.4274,0.1987 4.4274,3.1265 0,2.9122 -0.5475,3.3086 -4.3333,3.1368 -4.3007,-0.1952 -5.8641,1.3567 -2.6667,2.6468 3.2154,1.2975 6.1621,0.8639 8.2381,-1.2121 z m 15.1619,0.4952 c 2.1914,-2.1913 2.006,-5.0748 -0.5046,-7.8489 -1.9196,-2.1212 -1.9062,-2.6284 0.1534,-5.7716 l 2.2579,-3.4462 h -6.232 c -3.8152,0 -5.9125,0.5171 -5.408,1.3334 0.4532,0.7333 1.9886,1.3333 3.412,1.3333 2.9725,0 3.3179,1.4035 0.9325,3.7888 -1.6292,1.6292 -0.405,3.2111 3.562,4.6028 0.682,0.2392 0.8227,1.5221 0.3128,2.8509 -0.7165,1.8674 -1.8307,2.2352 -4.9065,1.62 -2.1887,-0.4377 -3.9795,-0.2609 -3.9795,0.3931 0,2.7301 7.9405,3.604 10.4,1.1444 z m 14.6667,0 c 2.1914,-2.1913 2.006,-5.0748 -0.5046,-7.8489 -1.9197,-2.1212 -1.9062,-2.6284 0.1533,-5.7716 l 2.258,-3.4462 h -6.232 c -3.8152,0 -5.9125,0.5171 -5.408,1.3334 0.4532,0.7333 1.9886,1.3333 3.412,1.3333 2.9724,0 3.3178,1.4035 0.9324,3.7888 -1.6291,1.6292 -0.4049,3.2111 3.5621,4.6028 0.6819,0.2392 0.8227,1.5221 0.3128,2.8509 -0.7165,1.8674 -1.8307,2.2352 -4.9065,1.62 -2.1887,-0.4377 -3.9795,-0.2609 -3.9795,0.3931 0,2.7301 7.9405,3.604 10.4,1.1444 z m 14.6667,0 c 2.1913,-2.1913 2.0059,-5.0748 -0.5046,-7.8489 -1.9197,-2.1212 -1.9062,-2.6284 0.1533,-5.7716 l 2.258,-3.4462 h -6.2321 c -3.8151,0 -5.9124,0.5171 -5.408,1.3334 0.4533,0.7333 1.9887,1.3333 3.4121,1.3333 2.9724,0 3.3178,1.4035 0.9324,3.7888 -1.6292,1.6292 -0.4049,3.2111 3.5621,4.6028 0.6819,0.2392 0.8227,1.5221 0.3128,2.8509 -0.7166,1.8674 -1.8308,2.2352 -4.9066,1.62 -2.1887,-0.4377 -3.9794,-0.2609 -3.9794,0.3931 0,2.7301 7.9404,3.604 10.4,1.1444 z m 14.6666,0 c 2.1914,-2.1913 2.006,-5.0748 -0.5046,-7.8489 -1.9196,-2.1212 -1.9062,-2.6284 0.1534,-5.7716 l 2.2579,-3.4462 h -6.232 c -3.8152,0 -5.9125,0.5171 -5.408,1.3334 0.4532,0.7333 1.9886,1.3333 3.412,1.3333 2.9725,0 3.3179,1.4035 0.9325,3.7888 -1.6292,1.6292 -0.405,3.2111 3.562,4.6028 0.682,0.2392 0.8227,1.5221 0.3128,2.8509 -0.7165,1.8674 -1.8307,2.2352 -4.9065,1.62 -2.1887,-0.4377 -3.9795,-0.2609 -3.9795,0.3931 0,2.7301 7.9405,3.604 10.4,1.1444 z m 13.6,0.2667 c 0,-0.7334 -0.6,-1.3334 -1.3333,-1.3334 -0.7407,0 -1.3333,-3.5556 -1.3333,-8 0,-8.652 -0.8685,-9.5773 -4.7934,-5.1072 -2.2802,2.597 -2.3014,2.8058 -0.2066,2.0419 2.001,-0.7299 2.3333,0 2.3333,5.1072 0,3.2769 -0.6,5.9581 -1.3333,5.9581 -0.7334,0 -1.3334,0.6 -1.3334,1.3334 0,0.7333 1.8,1.3333 4,1.3333 2.2,0 4,-0.6 4,-1.3333 z M 287.1139,1381.3339 c -1.5874,-0.64 -3.5192,-2.252 -4.2928,-3.5822 -0.7737,-1.3301 -1.4249,-1.8656 -1.4472,-1.19 -0.069,2.0967 4.2627,6.1094 6.4994,6.0204 1.4396,-0.057 1.1943,-0.4604 -0.7594,-1.2482 z m 7.5528,-6.0686 c 0,-3.8994 -3.318,-7.2653 -7.162,-7.2653 -3.1586,0 -6.198,2.2805 -6.1308,4.6 0.022,0.77 0.6521,0.35 1.3996,-0.9333 1.56,-2.6784 6.602,-3.0912 8.9598,-0.7334 2.0806,2.0806 2.0466,6.6992 -0.067,9.0691 -1.4179,1.59 -1.3183,1.6055 0.6667,0.104 1.2833,-0.9711 2.3333,-3.1492 2.3333,-4.8404 z m -6.1426,1.9496 c 1.1761,0.9762 1.5819,0.3796 1.537,-2.2594 -0.04,-2.3239 -0.8824,-3.744 -2.3944,-4.0351 -1.8597,-0.3581 -2.312,0.4503 -2.2281,3.9819 0.058,2.437 0.4162,3.656 0.7963,2.7088 0.4719,-1.176 1.198,-1.3016 2.2892,-0.3962 z m -1.8574,-3.8816 c 0,-0.7333 0.6,-1.3333 1.3333,-1.3333 0.7333,0 1.3333,0.6 1.3333,1.3333 0,0.7334 -0.6,1.3334 -1.3333,1.3334 -0.7333,0 -1.3333,-0.6 -1.3333,-1.3334 z m 810.8061,-334.11 c -28.2222,-7.5894 -48.3893,-35.2396 -46.5677,-63.84698 0.6946,-10.90848 5.2622,-19.76405 17.9027,-34.70965 12.8285,-15.16792 16.7085,-23.14382 16.774,-34.48102 0.068,-11.72561 -2.0474,-15.29061 -12.3285,-20.7802 -22.8608,-12.20657 -84.59476,-11.36756 -160.3674,2.17955 -15.5795,2.7854 -20.0015,3.17943 -20.8199,1.85516 -2.4664,-3.99075 -10.9557,-60.13279 -13.5079,-89.33092 -2.3089,-26.41597 -0.9619,-64.62487 2.7302,-77.44257 5.9883,-20.78928 12.1429,-26.32636 27.6563,-24.8816 10.5804,0.98534 15.3682,3.54836 31.722,16.98145 20.82044,17.10191 31.18914,20.61516 49.50154,16.7728 12.32646,-2.5864 21.90246,-7.52748 30.68376,-15.83244 14.2176,-13.44639 20.4814,-27.88193 20.4814,-47.20107 0,-35.1812 -27.3695,-63.05541 -61.99996,-63.1433 -13.7468,-0.0349 -21.63254,3.63618 -40.00004,18.62154 -17.0947,13.94688 -19.2271,15.00796 -31.6415,15.74427 -12.4247,0.73693 -15.5379,-0.82236 -20.1371,-10.08564 -11.6087,-23.38163 -12.1114,-74.31872 -1.4633,-148.25156 3.2616,-22.64561 5.1497,-33.07673 6.1725,-34.09949 0.2754,-0.2754 8.2787,0.93052 17.7851,2.67981 72.72734,13.38277 136.8744,14.73333 160.9067,3.38773 13.3182,-6.2875 16.7282,-12.91686 14.3044,-27.8091 -1.4317,-8.79664 -5.016,-14.94756 -17.2196,-29.55007 -13.6419,-16.32345 -16.7072,-23.17312 -16.7072,-37.33333 0,-13.09458 2.5982,-22.22788 9.3065,-32.7146 9.7534,-15.2471 25.4784,-25.60258 43.4916,-28.64091 32.5403,-5.48864 65.0611,17.23092 71.9138,50.24019 3.6613,17.63604 -0.2287,29.20898 -16.2848,48.44865 -5.2019,6.23333 -10.8559,13.53947 -12.5644,16.23584 -6.0011,9.47092 -6.6367,28.41893 -1.1565,34.47452 3.6175,3.99729 14.8106,8.96385 25.9605,11.51912 12.5077,2.86647 62.4704,3.23456 84.6666,0.62377 17.9575,-2.11221 53.9045,-7.44273 67,-9.9353 l 9.6667,-1.83994 v 221.93887 221.93888 l -3,-0.7376 c -16.7982,-4.13013 -69.7756,-11.09408 -97.6667,-12.83841 -47.8687,-2.99376 -83.3956,4.33668 -88.8431,18.33145 -1.9029,4.88859 -0.737,19.96087 1.9883,25.70399 1.2149,2.56021 7.3187,10.93916 13.5639,18.61988 15.2126,18.70916 17.1845,22.93742 17.7057,37.96493 0.3287,9.47487 -0.1634,13.66077 -2.3384,19.89236 -11.1392,31.91454 -44.9783,50.01474 -77.2702,41.33094 z M 542.6666,459.91031 c -27.9794,-2.26419 -93.4457,-11.83076 -95.8273,-14.0032 -1.1661,-1.06376 -8.5781,-45.60787 -11.7432,-70.57378 -3.3327,-26.28764 -3.3873,-82.7518 -0.092,-95.67857 2.6582,-10.42949 7.4783,-20.54332 11.5396,-24.21344 3.5886,-3.24284 14.9844,-4.30043 23.7303,-2.20231 6.3102,1.51379 8.9775,3.30028 33.0465,22.13336 11.0754,8.66607 19.4599,11.76291 31.3212,11.56851 27.3805,-0.44873 51.053,-19.05805 59.5579,-46.81945 2.7747,-9.05699 2.3062,-26.69342 -0.9695,-36.49683 -7.6973,-23.03672 -27.4007,-39.81792 -51.2191,-43.62292 -15.8047,-2.52481 -26.3345,0.88605 -42.0188,13.611 -15.4768,12.55653 -18.1844,14.57135 -23.047,17.15023 -7.0269,3.72668 -20.2204,4.8048 -26.5249,2.16752 -6.2213,-2.60254 -12.1414,-12.54426 -15.239,-25.59142 -2.9794,-12.5495 -3.9705,-51.44014 -1.9308,-75.766599 C 435.388,66.077968 441.6002,23.101176 446.0534,3 l 0.6646,-3 h 222.4561 222.4561 l 2.8751,15.666667 c 8.3604,45.555934 11.3822,74.63314 11.3968,109.666663 0.014,34.53388 -2.5135,48.92258 -10.7934,61.43436 -4.3838,6.62432 -9.0906,8.40214 -20.144,7.60868 -11.3088,-0.81178 -16.1426,-3.32556 -32.9642,-17.14289 -17.6431,-14.49207 -23.5413,-17.20365 -37.458,-17.22045 -17.4604,-0.0211 -31.3755,5.86806 -44.2238,18.71636 -8.7745,8.77453 -15.5365,22.06422 -17.6737,34.7354 -6.4802,38.41876 25.7033,75.01448 64.1931,72.9937 12.5422,-0.65849 18.1594,-3.39732 34.8377,-16.98613 20.2252,-16.47864 20.9099,-16.80569 35.1812,-16.80569 10.1231,0 12.6672,0.43148 15.0054,2.54492 4.1839,3.78164 9.1163,14.82482 11.6672,26.12174 3.1768,14.06932 3.1683,62.58995 -0.016,90 -2.0251,17.43246 -11.0183,74.05562 -11.8709,74.74155 -0.4938,0.39725 -31.1138,5.76576 -44.9758,7.88544 -45.1541,6.90467 -97.0284,8.72513 -118,4.14107 -13.6141,-2.97584 -22.0417,-6.60731 -26.7581,-11.53012 -2.9971,-3.12835 -3.8484,-5.42498 -4.2939,-11.58456 -0.994,-13.74172 2.0767,-20.35271 19.0303,-40.97079 14.1906,-17.25785 17.4651,-26.42745 15.2423,-42.68259 -5.7837,-42.29484 -52.3862,-67.70526 -89.8873,-49.0118 -15.3133,7.63335 -26.3765,19.46412 -32.8519,35.13132 -2.3771,5.7514 -2.9984,9.9168 -3.0648,20.54715 -0.075,11.97172 0.2794,14.01413 3.468,20 1.9531,3.66667 7.837,11.76667 13.0753,18 14.5373,17.29904 16.4523,21.11056 17.0202,33.87719 0.3219,7.23728 -0.1022,11.8869 -1.2881,14.12281 -2.5253,4.76135 -17.1455,11.69868 -29.692,14.08903 -13.3934,2.55169 -45.892,3.44849 -66,1.82128 z"
       id="path1573" />
  </g>
</svg>
