<?xml version="1.0" encoding="UTF-8" standalone="no"?>
<svg
   version="1.0"
   width="1280.000000pt"
   height="960.000000pt"
   viewBox="0 0 1280.000000 960.000000"
   preserveAspectRatio="xMidYMid meet"
   id="svg614"
   sodipodi:docname="Textos.svg"
   inkscape:version="1.2.2 (b0a8486541, 2022-12-01)"
   xmlns:inkscape="http://www.inkscape.org/namespaces/inkscape"
   xmlns:sodipodi="http://sodipodi.sourceforge.net/DTD/sodipodi-0.dtd"
   xmlns="http://www.w3.org/2000/svg"
   xmlns:svg="http://www.w3.org/2000/svg">
  <defs
     id="defs618" />
  <sodipodi:namedview
     id="namedview616"
     pagecolor="#ffffff"
     bordercolor="#000000"
     borderopacity="0.25"
     inkscape:showpageshadow="2"
     inkscape:pageopacity="0.0"
     inkscape:pagecheckerboard="0"
     inkscape:deskcolor="#d1d1d1"
     inkscape:document-units="pt"
     showgrid="false"
     inkscape:zoom="0.44140625"
     inkscape:cx="854.0885"
     inkscape:cy="641.13274"
     inkscape:window-width="1366"
     inkscape:window-height="745"
     inkscape:window-x="-8"
     inkscape:window-y="-8"
     inkscape:window-maximized="1"
     inkscape:current-layer="svg614" />
  <metadata
     id="metadata532">
Created by potrace 1.15, written by Peter Selinger 2001-2017
</metadata>
  <g
     transform="translate(0.000000,960.000000) scale(0.100000,-0.100000)"
     fill="#000000"
     stroke="none"
     id="g612"
     style="fill:#ffffff">
    <path
       d="M9990 9094 c-19 -8 -49 -26 -67 -40 -25 -19 -43 -25 -73 -23 -49 4 -62 -7 -21 -16 30 -6 31 -7 13 -31 -15 -21 -22 -23 -59 -18 -29 4 -43 3 -43 -5 0 -6 11 -11 24 -11 31 0 39 -12 23 -34 -14 -19 -38 -23 -84 -12 -21 5 -33 4 -33 -3 0 -12 62 -25 88 -19 17 5 17 2 9 -32 -20 -74 21 -121 93 -106 34 6 35 2 15 -34 -8 -14 -14 -29 -15 -34 0 -16 51 37 67 69 9 17 44 60 79 97 101 105 130 193 79 243 -28 29 -46 30 -95 9z m44 -53 c46 -51 6 -155 -87 -222 -92 -67 -165 -10 -119 93 32 71 120 146 173 148 9 0 24 -9 33 -19z"
       id="path534"
       style="fill:#ffffff" />
    <path
       d="M11245 8743 c-89 -21 -145 -59 -145 -99 0 -28 -8 -29 -80 -12 -43 10 -53 9 -66 -4 -15 -14 1 -20 168 -60 167 -41 185 -43 201 -29 18 15 18 16 0 22 -14 5 -10 9 19 18 38 12 98 71 98 95 0 14 -24 38 -55 54 -25 12 -113 22 -140 15z m116 -59 c25 -23 24 -36 -5 -63 -47 -44 -165 -47 -207 -4 -18 17 -18 20 -3 42 9 13 31 29 48 37 41 19 141 12 167 -12z"
       id="path536"
       style="fill:#ffffff" />
    <path
       d="M9980 8538 c0 -100 -1 -103 -25 -114 -20 -10 -36 -7 -91 13 -58 20 -69 22 -81 10 -12 -12 -5 -17 49 -37 35 -12 65 -24 67 -26 2 -2 -4 -13 -14 -24 -25 -28 -10 -38 18 -12 42 40 75 18 36 -24 l-22 -24 21 0 c12 0 22 5 22 10 0 6 5 10 10 10 6 0 10 -27 10 -60 0 -57 1 -60 25 -60 l25 0 0 109 c0 100 2 112 23 135 12 14 31 26 42 28 18 3 25 -17 70 -179 27 -101 52 -183 55 -183 3 0 13 7 23 14 17 13 17 19 6 75 -7 33 -11 63 -8 65 3 3 44 -6 91 -21 77 -23 89 -24 117 -12 17 8 31 16 31 19 0 3 -45 18 -100 34 -55 15 -100 30 -100 31 0 2 27 49 60 105 33 56 60 104 60 106 0 3 -13 -2 -29 -10 -18 -10 -47 -46 -77 -98 l-49 -83 -6 60 c-6 68 -19 94 -59 117 -35 20 -91 10 -126 -23 l-24 -22 0 86 c0 86 0 87 -25 87 l-25 0 0 -102z"
       id="path538"
       style="fill:#ffffff" />
    <path
       d="M8450 8589 c-96 -3 -180 -7 -187 -8 -6 0 -16 -15 -22 -32 -9 -28 -8 -33 17 -54 15 -12 95 -79 177 -148 l150 -125 12 26 c13 29 12 29 -56 84 l-25 19 30 92 30 92 59 3 c60 3 75 12 75 45 0 14 -8 17 -42 15 -24 -1 -122 -5 -218 -9z m70 -64 c0 -13 -38 -125 -46 -134 -1 -2 -41 29 -89 67 l-85 71 67 4 c154 8 153 8 153 -8z"
       id="path540"
       style="fill:#ffffff" />
    <path
       d="M11826 8525 c-16 -12 -17 -17 -6 -30 10 -13 9 -15 -9 -15 -57 0 -121 -65 -121 -123 0 -42 27 -92 69 -129 20 -19 38 -38 40 -43 2 -6 8 -21 13 -35 14 -39 82 -140 93 -140 6 1 19 7 29 15 18 14 17 17 -23 78 -22 35 -41 66 -41 70 0 4 9 7 20 7 22 0 90 56 90 74 0 6 4 17 9 25 16 25 41 -6 41 -51 0 -32 -6 -46 -31 -69 -17 -16 -42 -32 -55 -35 -28 -7 -30 -16 -9 -34 12 -10 21 -10 45 0 32 13 100 82 100 103 1 6 11 0 23 -15 22 -27 23 -27 49 -10 l27 18 -51 73 c-59 84 -58 108 2 148 77 53 113 44 176 -42 l47 -64 29 17 c15 9 28 19 28 22 0 4 -128 169 -145 188 -9 9 -53 -31 -48 -44 3 -9 -1 -14 -13 -14 -35 0 -119 -47 -149 -83 l-30 -35 -90 94 c-84 87 -91 93 -109 79z m80 -129 c43 -42 58 -86 30 -86 -8 0 -37 -16 -64 -35 l-51 -35 -35 36 c-40 41 -53 83 -35 116 18 34 40 47 78 48 27 0 43 -9 77 -44z m15 -147 c-35 -28 -51 -22 -17 7 15 14 31 22 35 19 3 -4 -5 -15 -18 -26z"
       id="path542"
       style="fill:#ffffff" />
    <path
       d="M10450 8490 c-54 -29 -94 -65 -86 -78 5 -8 20 -2 48 18 48 35 64 37 77 12 8 -16 3 -25 -34 -52 -25 -19 -45 -40 -45 -47 0 -19 11 -16 54 17 22 17 43 27 47 23 4 -5 23 -44 42 -87 18 -44 38 -81 43 -83 5 -1 19 5 32 15 l22 17 -41 94 -42 95 26 21 c16 15 22 27 17 36 -7 11 -13 9 -31 -6 -21 -20 -21 -20 -36 3 -19 27 -46 27 -93 2z"
       id="path544"
       style="fill:#ffffff" />
    <path
       d="M9204 8435 c11 -8 23 -15 28 -15 17 0 7 -40 -12 -50 -15 -8 -27 -7 -50 5 -17 9 -36 13 -42 9 -7 -4 0 -12 16 -21 53 -28 11 -77 -46 -55 -41 15 -59 -1 -20 -17 44 -18 74 -10 97 26 11 18 25 32 31 33 11 0 79 70 72 74 -15 10 -62 26 -76 26 -15 -1 -15 -2 2 -15z"
       id="path546"
       style="fill:#ffffff" />
    <path
       d="M7934 8316 c-62 -65 -72 -135 -17 -121 l25 6 -22 -31 c-12 -17 -20 -35 -18 -41 3 -10 148 192 148 206 0 4 -6 5 -14 2 -8 -3 -17 1 -20 9 -10 25 -39 15 -82 -30z m72 9 c7 -17 -29 -79 -59 -100 -15 -10 -24 -11 -34 -4 -23 20 43 119 80 119 4 0 10 -7 13 -15z"
       id="path548"
       style="fill:#ffffff" />
    <path
       d="M8384 8271 c-38 -23 -78 -73 -99 -125 -15 -34 -18 -37 -31 -24 -13 13 -39 6 -222 -60 -114 -41 -211 -78 -216 -83 -6 -5 -3 -16 8 -27 16 -19 18 -19 73 1 l56 21 49 -54 c85 -94 83 -90 49 -148 l-29 -50 22 -21 22 -21 104 194 c104 192 105 193 127 179 13 -9 23 -24 23 -34 0 -10 5 -21 10 -24 6 -4 10 7 10 24 0 21 5 31 15 31 24 0 92 68 114 114 49 100 1 159 -85 107z m76 -45 c0 -68 -98 -175 -138 -150 -24 16 -26 38 -6 80 28 59 77 104 113 104 29 0 31 -3 31 -34z m-296 -252 c-27 -48 -53 -89 -59 -90 -9 -3 -86 83 -93 104 -3 9 189 84 197 76 2 -1 -19 -42 -45 -90z"
       id="path550"
       style="fill:#ffffff" />
    <path
       d="M8897 8129 c-15 -12 -38 -37 -51 -55 l-23 -35 -7 42 c-6 36 -8 39 -22 28 -14 -11 -15 -28 -10 -109 4 -52 10 -104 12 -116 5 -19 1 -21 -38 -20 -24 1 -54 9 -67 18 l-23 16 23 4 c15 2 25 11 27 24 4 27 -41 66 -103 90 l-46 17 -24 -25 c-28 -31 -31 -28 88 -107 61 -41 77 -56 72 -69 -15 -35 -17 -102 -5 -117 20 -24 25 -18 25 30 0 59 29 92 67 74 27 -12 48 -47 48 -79 0 -10 -15 -31 -34 -45 -39 -30 -66 -80 -66 -123 l0 -30 -44 16 c-105 38 -131 -52 -37 -131 39 -33 114 -61 146 -55 14 3 25 2 25 -1 0 -4 -48 -12 -107 -19 -60 -7 -119 -15 -133 -19 -24 -6 -25 -6 -7 14 16 19 16 21 2 27 -22 8 -30 2 -45 -34 -7 -16 -18 -30 -24 -30 -25 0 -134 -59 -164 -90 -26 -26 -32 -39 -31 -69 2 -25 -6 -49 -25 -80 -25 -39 -30 -43 -58 -37 -17 3 -42 6 -57 6 -15 0 -40 14 -60 31 l-33 31 21 170 c12 93 19 173 16 179 -4 5 -17 9 -29 9 -21 0 -24 -6 -30 -52 -39 -307 -37 -298 -65 -298 -15 0 -37 -7 -49 -16 -21 -14 -22 -14 -22 5 0 11 8 25 19 30 23 13 53 57 52 79 -1 9 -1 67 -1 127 1 98 0 108 -14 95 -10 -10 -16 -38 -17 -87 -1 -40 -5 -73 -9 -73 -4 0 -13 11 -20 25 -16 30 -75 72 -119 85 -44 12 -81 -5 -81 -38 0 -20 -3 -22 -14 -12 -13 10 -8 22 28 78 30 47 49 67 63 67 30 0 39 13 19 28 -16 12 -16 14 2 31 11 9 28 16 39 14 11 -2 18 3 18 12 0 29 -41 22 -69 -10 -14 -17 -30 -28 -36 -25 -5 3 -10 3 -11 -2 0 -4 -2 -17 -3 -28 -3 -22 -72 -135 -83 -135 -4 0 -14 7 -24 16 -19 17 -44 10 -33 -8 4 -7 2 -8 -4 -4 -15 9 -16 33 -2 41 5 3 23 -1 39 -10 18 -9 32 -11 36 -5 3 5 -6 15 -20 23 l-26 13 50 47 c28 27 51 49 51 51 0 2 -7 6 -15 10 -10 3 -35 -13 -69 -43 -43 -39 -59 -48 -80 -44 -15 3 -26 1 -26 -6 0 -6 7 -11 15 -11 14 0 14 -3 1 -23 -8 -12 -12 -27 -8 -33 11 -17 71 -46 82 -39 6 4 55 -29 110 -72 72 -56 99 -84 100 -100 0 -14 -6 -23 -15 -23 -15 0 -18 -23 -16 -105 l0 -30 -9 29 c-12 38 -46 87 -78 111 -40 30 -127 32 -185 5 -49 -23 -102 -75 -118 -117 -15 -39 -10 -105 11 -150 l19 -42 -44 -7 c-50 -7 -72 1 -55 21 8 10 4 14 -17 18 -16 3 -32 1 -37 -4 -6 -5 -25 -9 -43 -9 -24 0 -37 7 -49 25 -9 14 -34 36 -55 48 -28 17 -36 26 -29 37 16 25 11 50 -9 50 -11 0 -21 9 -24 21 -3 12 -10 18 -16 14 -8 -4 -11 20 -11 74 0 45 4 81 8 81 5 0 30 -6 55 -14 43 -13 47 -13 47 3 0 13 -14 21 -56 30 -48 11 -55 16 -52 34 2 18 10 22 38 22 19 0 47 -4 63 -8 20 -5 27 -4 27 7 0 9 -24 20 -66 32 -77 20 -115 13 -124 -26 -7 -26 -10 -27 -48 -15 -20 6 -23 4 -20 -11 2 -10 14 -21 28 -24 24 -6 25 -8 28 -110 1 -57 7 -107 12 -110 5 -3 -2 -22 -15 -42 -26 -38 -31 -53 -16 -44 15 10 43 -6 37 -20 -3 -8 -1 -14 4 -14 6 0 10 5 10 11 0 8 5 8 15 -1 20 -16 19 -30 -1 -30 -13 0 -14 -3 -5 -14 9 -11 -9 -14 -106 -20 -65 -4 -122 -11 -126 -15 -4 -4 -9 -19 -10 -33 -2 -21 21 -44 133 -138 74 -62 135 -115 135 -119 0 -3 -6 -44 -14 -91 -12 -77 -12 -89 3 -118 9 -17 25 -36 37 -42 30 -17 96 -14 124 4 25 16 25 16 21 -6 -13 -61 -26 -130 -26 -137 0 -5 11 -11 24 -13 24 -5 25 -2 51 141 15 80 33 175 40 211 8 38 10 69 5 75 -6 7 4 18 27 30 21 12 51 42 70 73 22 34 40 52 53 52 28 0 25 -16 -16 -83 -20 -32 -34 -61 -31 -64 3 -3 22 19 41 50 34 52 57 72 70 60 12 -13 5 -36 -29 -89 -19 -30 -35 -60 -35 -66 0 -18 14 -1 54 66 47 79 48 112 1 107 -6 0 -15 9 -20 22 -6 13 -17 21 -29 19 -11 -2 -15 1 -11 7 3 6 1 11 -4 11 -6 0 -11 -4 -11 -10 0 -17 -17 -11 -24 8 -3 9 -8 22 -12 29 -11 24 51 25 100 0 25 -13 43 -26 39 -30 -3 -4 -1 -7 5 -7 6 0 14 5 17 10 3 6 18 10 33 10 15 0 45 9 67 18 26 12 49 16 65 11 14 -4 19 -7 13 -8 -7 -1 -13 -8 -13 -16 0 -18 5 -18 31 -4 16 8 25 7 37 -4 29 -25 60 -27 65 -5 7 25 29 19 42 -10 6 -13 19 -22 32 -22 25 0 31 -21 10 -38 -8 -7 -19 -7 -36 2 -21 11 -35 10 -102 -12 -44 -15 -79 -29 -79 -32 0 -3 70 -41 156 -85 l156 -80 -7 -64 c-5 -51 -4 -62 7 -59 8 3 14 24 16 57 l3 53 37 -7 c20 -4 40 -12 44 -18 4 -7 10 -8 20 0 7 6 45 13 83 17 39 3 82 9 98 12 l27 6 0 -69 c0 -65 -1 -70 -29 -86 -30 -17 -71 -88 -71 -122 0 -16 -4 -15 -28 8 -31 29 -58 36 -48 12 3 -10 -1 -15 -13 -15 -38 0 -48 -30 -26 -82 6 -15 3 -15 -34 2 -24 12 -61 20 -91 20 -44 0 -56 -4 -82 -30 -17 -17 -32 -30 -33 -28 -1 2 -8 14 -15 26 -6 13 -31 32 -54 43 -24 10 -47 29 -54 44 -6 14 -19 25 -27 25 -12 0 -14 -4 -5 -19 14 -27 14 -28 -20 -44 l-29 -15 -57 64 c-65 74 -97 94 -153 94 -31 0 -49 -7 -76 -31 -19 -17 -35 -40 -35 -50 0 -23 -9 -24 -24 -4 -10 14 -14 14 -31 1 -19 -14 -19 -16 -2 -44 22 -39 22 -42 -9 -42 -31 0 -124 -48 -124 -64 0 -6 4 -17 9 -25 7 -12 14 -10 36 7 37 29 91 43 120 32 13 -5 31 -23 40 -39 20 -40 19 -42 -9 -31 -14 5 -41 6 -60 3 -29 -4 -36 -2 -36 11 0 9 -7 16 -15 16 -10 0 -15 -10 -15 -34 0 -18 -7 -39 -16 -47 -12 -10 -15 -27 -12 -70 l3 -58 -38 -6 c-22 -4 -49 -19 -66 -36 l-30 -29 -7 57 c-8 71 -9 72 -34 66 -15 -4 -20 -13 -19 -37 0 -55 26 -180 38 -184 6 -2 11 -11 11 -20 0 -24 35 -73 62 -88 33 -19 98 -17 133 4 26 16 31 17 41 4 7 -9 18 -12 32 -8 21 7 22 12 16 75 l-7 68 36 7 c23 4 46 19 66 41 26 29 32 32 39 19 7 -13 13 -14 31 -5 20 11 20 13 6 48 -8 19 -15 37 -15 39 0 2 20 4 45 4 45 0 94 18 126 47 14 12 17 12 23 -3 4 -9 5 -18 4 -19 -2 -1 -11 -6 -21 -12 -17 -9 -18 -11 -2 -26 15 -15 11 -30 -44 -203 l-61 -186 23 -19 c12 -10 26 -18 30 -19 5 0 39 18 77 41 67 39 69 40 99 25 39 -21 44 -31 25 -50 -14 -14 -13 -17 10 -27 20 -10 23 -15 14 -26 -9 -11 -4 -13 28 -12 21 1 50 -2 63 -6 16 -6 22 -5 18 2 -4 6 -1 13 7 16 9 4 26 -12 48 -43 18 -28 41 -50 51 -50 14 0 8 14 -28 67 -25 37 -45 74 -45 82 0 8 -9 25 -21 37 -19 20 -20 24 -5 46 8 12 18 42 22 65 3 24 13 48 20 54 12 9 12 15 2 27 -11 12 -7 12 20 -2 31 -16 34 -16 59 4 l26 20 -36 15 -36 15 24 36 c14 20 25 43 25 50 0 8 4 14 9 14 5 0 16 3 25 6 14 5 16 -4 16 -60 0 -57 2 -66 18 -66 11 0 22 -12 30 -33 16 -44 68 -93 117 -110 37 -13 40 -16 37 -48 -2 -26 -14 -44 -50 -76 l-47 -43 41 0 c22 0 44 -3 48 -7 4 -4 23 -6 42 -4 18 1 34 -1 34 -6 -1 -15 -29 -45 -37 -40 -5 3 -15 2 -22 -2 -10 -6 -4 -25 23 -80 36 -70 36 -71 13 -66 -15 4 -28 1 -36 -9 -12 -14 -7 -23 28 -61 22 -24 41 -53 41 -63 0 -10 4 -22 9 -28 6 -5 13 -38 16 -74 l6 -65 -96 -110 c-52 -60 -95 -113 -95 -117 0 -18 20 -5 55 33 20 22 40 38 43 34 4 -4 6 -33 5 -65 -3 -73 11 -88 65 -72 21 7 56 27 79 47 l41 35 -5 -40 c-6 -39 0 -47 24 -32 9 6 33 168 33 228 0 10 7 13 24 8 40 -10 67 5 87 49 22 50 24 80 5 96 -11 9 -15 4 -19 -26 -13 -78 -54 -104 -95 -60 -39 41 -28 89 28 117 53 27 80 75 80 140 0 100 -52 158 -132 147 -35 -5 -40 -2 -54 25 -25 49 -14 58 45 39 28 -9 57 -25 64 -35 14 -19 43 -14 31 6 -5 7 4 9 27 5 19 -4 76 -9 127 -13 71 -5 90 -10 82 -19 -7 -9 -6 -16 4 -24 11 -9 19 -5 39 19 14 16 32 30 39 30 8 0 34 -40 58 -89 29 -60 50 -91 64 -95 28 -7 30 -2 12 33 -22 41 -21 42 21 25 52 -22 118 -23 139 -2 15 15 15 21 4 49 -17 40 -82 88 -132 95 -36 6 -54 24 -24 24 26 0 76 56 76 87 0 18 13 41 36 66 l35 38 89 -27 c50 -15 90 -30 90 -33 0 -4 -27 -90 -59 -191 -61 -188 -62 -199 -19 -200 14 0 31 43 83 203 36 112 65 208 65 214 0 14 -243 92 -256 81 -7 -5 -17 6 -27 33 -18 46 -10 70 30 88 21 10 26 7 43 -22 11 -17 22 -36 24 -42 2 -7 7 -7 14 0 6 7 4 24 -9 53 -22 52 -52 56 -98 13 -17 -16 -37 -31 -45 -34 -8 -3 -12 -15 -9 -30 7 -34 -10 -41 -67 -27 l-49 12 19 51 c11 29 20 53 20 53 0 1 -10 4 -21 7 -15 4 -38 -6 -73 -29 -42 -28 -53 -32 -64 -21 -10 10 -10 20 -2 42 14 36 -8 56 -26 23 -10 -19 -15 -16 -68 49 -31 39 -56 73 -56 75 0 3 25 27 55 53 46 39 58 45 70 35 11 -9 13 -23 9 -50 -5 -32 -3 -38 16 -43 13 -3 23 0 26 9 2 8 6 21 9 29 2 8 13 15 24 15 14 0 19 5 15 15 -4 8 -2 15 4 15 5 0 13 -11 16 -24 14 -56 124 -71 262 -36 138 35 338 143 407 219 31 35 40 39 69 35 26 -4 49 4 103 35 51 29 65 41 52 45 -9 3 -24 8 -32 11 -16 5 -45 67 -45 96 0 13 7 19 23 19 36 0 58 -22 91 -91 40 -82 66 -93 31 -12 -35 79 -72 115 -121 117 -22 0 -46 7 -54 15 -24 23 -23 -3 4 -69 22 -53 23 -60 8 -56 -9 3 -69 21 -133 40 -161 50 -248 47 -383 -12 -27 -12 -64 -22 -82 -22 -26 0 -34 -4 -34 -17 0 -12 -33 -38 -87 -73 -48 -30 -90 -56 -94 -58 -4 -2 0 34 9 80 14 76 21 92 46 101 5 2 -1 29 -12 60 -20 54 -21 87 -1 87 5 0 9 -4 9 -9 0 -4 29 -23 65 -40 64 -32 105 -35 105 -7 0 7 12 23 26 37 36 33 54 72 54 114 l0 35 40 -20 c37 -19 44 -18 41 2 0 4 8 12 19 18 23 12 27 58 8 79 -11 11 -6 12 27 6 46 -8 63 -26 35 -37 -30 -11 -24 -43 15 -77 41 -36 40 -44 -24 -106 -37 -35 -44 -38 -62 -27 -25 16 -45 6 -28 -14 6 -8 18 -14 25 -14 8 0 14 -7 14 -15 0 -25 13 -17 53 33 80 100 76 97 99 83 17 -10 40 -8 27 2 -2 2 -30 23 -61 46 -95 69 -65 102 31 36 l51 -36 25 23 c31 29 46 108 21 108 -9 0 -16 -8 -16 -20 0 -11 -3 -20 -8 -20 -6 0 -40 20 -61 36 -2 2 8 17 23 34 14 17 26 37 26 43 0 6 13 -1 28 -16 50 -48 132 -57 174 -20 15 13 18 9 32 -40 21 -73 21 -74 -19 -87 -20 -7 -35 -18 -35 -27 0 -15 2 -15 68 3 22 6 23 4 20 -26 -2 -28 -9 -35 -38 -45 -41 -14 -49 -42 -10 -36 66 9 105 47 97 95 -4 28 -2 35 14 39 20 5 27 37 7 37 -6 0 -9 2 -6 5 2 3 19 -2 37 -11 31 -16 87 -16 122 0 13 6 19 -14 38 -126 24 -142 38 -185 64 -207 10 -8 17 -28 17 -51 0 -22 8 -48 20 -62 l19 -25 -39 -13 c-56 -19 -51 -34 8 -25 26 4 81 7 123 6 46 -1 93 4 119 13 43 15 44 14 99 -18 l56 -32 3 -118 c2 -108 4 -118 22 -123 11 -3 20 -12 20 -20 0 -12 -10 -13 -55 -8 -46 6 -55 5 -55 -8 0 -11 16 -17 60 -22 55 -6 60 -9 60 -31 0 -23 -3 -24 -64 -24 l-64 0 -68 81 -67 81 -14 -27 c-14 -25 -12 -29 23 -72 l38 -46 -24 -43 c-22 -43 -24 -44 -71 -44 -37 0 -47 3 -43 14 3 9 -5 16 -22 20 -24 6 -35 0 -83 -48 -31 -30 -65 -56 -76 -58 -35 -7 -204 89 -187 106 4 4 -6 6 -23 4 l-29 -3 -27 120 c-16 66 -26 125 -24 130 2 6 4 4 4 -2 1 -7 8 -13 17 -13 13 0 15 6 10 28 -19 79 -19 102 -1 122 10 11 24 20 32 20 7 0 13 7 13 15 0 23 -18 18 -49 -12 -15 -16 -35 -26 -45 -25 -13 3 -17 -2 -14 -20 2 -17 -2 -24 -19 -26 -13 -2 -23 -10 -23 -18 0 -12 -5 -12 -32 2 -50 26 -125 15 -160 -25 -23 -26 -28 -40 -28 -84 1 -28 7 -63 15 -77 19 -33 18 -39 -2 -34 -12 3 -18 16 -19 35 -1 17 -8 37 -17 46 -21 21 -108 37 -118 21 -12 -19 -1 -28 35 -28 37 0 60 -20 54 -47 -3 -15 -12 -17 -46 -15 -33 3 -42 0 -42 -12 0 -11 13 -18 41 -22 l40 -7 -7 -104 -7 -105 24 4 c15 2 25 10 26 23 1 11 5 55 8 98 5 50 11 77 19 77 7 0 22 -31 34 -69 22 -68 22 -72 7 -163 -23 -141 -21 -136 -48 -131 -38 7 -97 -50 -97 -94 0 -50 -20 -124 -42 -152 -34 -44 -16 -67 28 -36 19 13 22 12 34 -9 7 -13 30 -32 52 -42 27 -12 37 -22 33 -32 -3 -9 0 -19 7 -23 10 -6 8 -14 -9 -30 -18 -18 -25 -20 -37 -10 -10 8 -16 9 -21 1 -20 -32 42 -41 70 -10 10 11 26 20 36 20 11 0 19 9 21 23 2 17 11 23 38 25 46 5 71 28 69 66 -1 17 2 40 7 51 7 18 6 18 -9 7 -14 -12 -25 -9 -78 17 -43 22 -77 31 -109 31 -51 0 -77 18 -66 46 5 12 14 14 46 9 42 -7 80 0 80 16 0 5 -13 9 -28 9 -39 0 -45 9 -19 30 12 10 22 26 22 37 0 12 9 19 27 21 24 3 27 8 35 65 9 55 10 58 17 32 13 -57 51 -120 86 -143 30 -20 45 -23 100 -20 78 4 132 30 174 82 28 34 31 46 35 117 2 43 5 79 7 79 2 0 30 -14 61 -31 l58 -30 -42 6 c-28 5 -43 3 -43 -4 0 -6 6 -11 13 -11 6 0 18 -4 26 -9 11 -7 8 -17 -19 -53 -19 -23 -37 -48 -42 -54 -5 -7 -1 -13 10 -17 15 -3 30 10 63 54 24 32 51 58 59 58 28 -2 32 1 20 16 -6 8 -9 19 -5 25 12 19 35 10 51 -22 9 -18 30 -45 47 -61 23 -21 27 -31 19 -39 -7 -7 -12 -23 -12 -36 0 -19 4 -23 19 -19 14 3 17 0 14 -13 -3 -12 3 -23 17 -30 20 -11 28 -7 74 39 l51 51 -23 16 c-12 8 -20 20 -17 25 9 14 -7 11 -25 -6 -10 -9 -25 -13 -34 -9 -15 6 -15 9 5 30 12 13 28 24 35 24 8 0 11 6 7 16 -5 13 0 14 28 9 19 -3 71 -12 117 -19 l83 -13 15 28 c8 15 14 30 14 32 0 3 -29 40 -65 83 l-66 79 73 3 c79 3 98 12 98 48 0 20 5 24 30 24 42 0 40 28 -2 32 -24 2 -34 8 -36 23 -2 18 3 20 47 20 l49 0 18 -58 c19 -65 25 -71 55 -62 14 5 18 12 13 27 -5 18 -4 19 16 8 21 -11 72 -9 115 4 17 6 29 -8 79 -89 33 -53 63 -98 67 -101 11 -6 39 7 39 18 0 6 -18 39 -40 74 -22 35 -40 65 -40 66 0 2 21 3 48 4 26 0 57 4 68 8 21 7 21 6 17 -61 -5 -62 -3 -72 19 -97 31 -36 104 -47 143 -22 23 15 25 15 25 -1 -1 -10 -7 -46 -14 -80 -15 -68 -13 -73 18 -73 19 0 24 16 59 208 21 114 38 210 37 215 0 4 -11 7 -24 7 -23 0 -25 -6 -42 -97 -14 -80 -22 -103 -45 -125 -52 -52 -129 -25 -129 45 1 17 9 72 19 120 20 94 16 106 -28 94 -13 -3 -22 3 -30 21 -7 13 -9 27 -6 30 3 3 5 0 5 -6 0 -20 36 -31 121 -38 67 -5 82 -3 72 7 -9 9 -2 18 33 41 125 83 110 178 -27 165 -51 -4 -58 -3 -48 9 9 11 7 14 -12 14 -15 0 -46 -22 -87 -62 -36 -35 -60 -54 -54 -42 6 11 18 27 27 34 8 7 34 35 56 61 l41 49 -34 0 c-29 0 -41 -9 -93 -69 -33 -39 -63 -70 -67 -70 -4 -1 -16 24 -27 54 -30 80 -40 92 -68 87 -20 -4 -23 -9 -18 -31 25 -118 33 -194 24 -219 l-11 -27 -23 51 c-26 58 -66 94 -105 94 -29 0 -40 19 -40 67 0 26 -14 36 -38 29 -14 -5 -18 -14 -15 -39 l4 -32 -17 34 c-37 71 -126 93 -183 45 l-31 -26 0 37 c0 55 35 85 100 85 28 0 60 -5 71 -10 16 -9 19 -7 19 14 0 31 -8 36 -73 43 -94 10 -153 -32 -164 -116 l-6 -40 -38 22 c-21 12 -39 25 -39 29 0 13 62 58 80 58 10 0 20 7 24 15 3 9 0 15 -8 15 -11 0 -13 10 -9 39 8 59 -3 90 -42 113 l-35 20 0 78 c0 49 5 88 15 106 22 43 19 126 -6 158 l-20 26 77 35 c122 56 118 56 145 -14 24 -61 32 -68 58 -52 12 7 10 20 -12 72 l-26 64 67 33 c37 17 71 31 76 29 5 -2 19 -30 31 -62 22 -59 37 -73 63 -57 9 6 6 22 -13 70 -14 34 -25 65 -25 70 0 4 25 20 55 35 63 31 62 34 39 -83 -13 -68 -13 -84 -2 -91 36 -23 44 -11 63 102 11 61 24 117 30 123 5 7 55 32 110 55 130 56 170 78 169 90 -1 6 -2 20 -2 31 -2 14 -9 20 -27 20 -38 0 -30 12 34 51 l58 36 74 -73 c42 -40 87 -76 101 -79 58 -15 128 46 128 111 0 25 1 26 18 11 17 -15 19 -15 35 0 15 15 11 22 -58 98 l-73 81 39 25 c34 20 39 28 34 49 -4 14 -10 28 -14 32 -3 4 -254 -27 -556 -70 l-550 -78 53 -36 53 -35 132 23 c73 13 148 27 167 30 33 5 40 0 118 -77 45 -45 82 -83 82 -85 0 -2 -101 -4 -225 -4 -124 0 -225 2 -225 5 0 3 12 17 28 30 25 22 26 25 10 41 -16 16 -20 14 -70 -30 -50 -45 -55 -47 -97 -42 -49 7 -88 33 -72 49 7 7 4 19 -8 36 -10 14 -30 45 -45 69 l-27 43 28 -2 c53 -4 71 1 102 30 48 45 43 87 -23 197 l-53 89 19 37 c23 44 18 86 -15 116 -90 82 -247 81 -344 -3 -22 -18 -56 -36 -75 -40 -20 -4 -46 -17 -58 -30 l-22 -23 39 9 c54 12 53 13 53 -29 0 -21 7 -48 16 -61 19 -26 107 -71 141 -71 15 0 21 -5 17 -14 -3 -8 6 -32 20 -55 32 -51 32 -61 1 -61 -20 0 -27 8 -42 51 -16 46 -36 69 -49 57 -2 -3 3 -24 11 -48 20 -57 19 -67 -10 -86 -38 -25 -62 -10 -82 52 -9 30 -22 53 -27 51 -16 -6 -10 -52 11 -95 15 -32 24 -37 55 -40 29 -2 43 2 62 21 18 18 28 22 40 15 11 -6 28 -6 47 1 27 9 31 8 52 -27 40 -63 41 -68 10 -39 -29 27 -30 27 -48 7 -17 -19 -16 -22 91 -135 60 -64 122 -132 137 -151 16 -19 34 -34 41 -34 7 0 25 14 41 30 37 38 82 41 91 6 3 -13 0 -42 -6 -65 -9 -34 -15 -41 -36 -41 -16 0 -39 -13 -61 -35 -30 -30 -35 -41 -31 -70 4 -38 8 -36 -179 -110 -23 -9 -45 -24 -48 -33 -7 -22 -105 -55 -105 -36 0 7 -16 16 -35 20 -20 3 -40 14 -45 24 -5 9 -23 23 -40 30 -28 12 -41 30 -21 30 6 0 6 12 0 32 -5 17 -8 33 -6 34 1 1 21 11 44 23 23 11 48 31 54 43 l11 21 -28 -20 c-49 -34 -61 -35 -69 -5 -5 21 -2 30 16 42 13 8 42 29 65 46 l41 32 13 -38 c12 -37 13 -38 36 -23 l23 15 -19 49 c-11 27 -20 61 -20 75 0 14 -6 32 -14 40 -8 7 -16 19 -19 26 -6 18 -43 -5 -39 -24 1 -10 -7 -15 -29 -16 -37 -1 -97 -45 -119 -88 -13 -24 -22 -29 -52 -30 -51 -2 -104 -43 -119 -94 l-12 -39 -30 16 c-19 9 -43 13 -66 10 -31 -5 -34 -4 -18 7 16 13 16 14 -5 29 -20 14 -21 18 -8 26 16 11 17 11 -40 16 -8 1 -25 7 -37 13 -15 8 -23 9 -23 2 0 -5 -7 -10 -16 -10 -9 0 -24 20 -37 50 -18 43 -42 68 -54 57 -2 -2 10 -34 27 -70 16 -37 30 -75 30 -86 0 -11 5 -31 11 -45 10 -20 8 -29 -10 -54 -12 -17 -24 -44 -27 -61 -4 -18 -14 -33 -26 -37 -15 -4 -17 -9 -7 -20 8 -10 9 -14 0 -14 -22 0 -23 30 -9 145 8 64 12 118 9 120 -2 3 -15 5 -28 5 -17 0 -23 -6 -23 -22 l0 -23 -18 21 c-25 31 -55 44 -103 44 -35 0 -47 -6 -79 -37 -20 -21 -39 -44 -41 -52 -7 -20 -70 -4 -76 20 -3 10 -14 19 -25 19 -14 0 -18 -5 -14 -18 5 -14 -3 -20 -38 -30 -24 -6 -57 -23 -74 -37 l-30 -25 -49 59 c-51 63 -63 70 -83 46 -10 -12 -10 -18 0 -30 11 -13 7 -15 -28 -15 -48 0 -106 -43 -117 -87 l-6 -27 -20 30 c-27 41 -24 59 13 88 l32 25 11 -24 c10 -23 11 -24 31 -7 12 9 30 42 39 72 19 58 62 123 75 115 5 -3 11 -23 15 -44 5 -29 11 -38 21 -34 8 3 14 11 14 19 0 17 12 18 28 2 6 -6 15 -8 19 -5 4 4 -8 21 -26 37 -26 24 -32 37 -29 62 5 48 24 45 37 -6 20 -79 52 -94 114 -52 33 23 85 26 71 5 -2 -5 12 -15 32 -24 46 -19 68 -19 32 1 -16 8 -28 20 -28 27 0 17 41 42 63 38 21 -3 22 13 0 89 -10 38 -22 60 -31 60 -11 0 -13 -8 -8 -30 15 -74 16 -86 7 -99 -8 -12 -13 -12 -24 -3 -12 10 -16 9 -21 -3 -11 -30 -35 -16 -46 28 -17 64 -18 67 -36 67 -11 0 -14 -5 -10 -17 18 -45 18 -100 1 -116 -19 -19 -60 -23 -71 -6 -18 30 -33 113 -22 132 10 20 8 20 -72 14 -65 -5 -88 -11 -106 -28 l-22 -20 -43 21 c-29 15 -53 20 -76 17 -29 -5 -35 -2 -42 16 -7 19 -4 23 22 30 48 13 116 66 110 86 -4 13 -3 14 5 2 9 -12 15 -13 37 -3 21 10 24 15 15 31 -14 27 -13 31 8 31 24 1 60 29 46 38 -65 44 -104 79 -104 93 0 10 -4 20 -9 24 -5 3 -19 31 -31 62 l-21 56 77 134 c42 74 74 136 71 139 -10 10 -27 -6 -48 -48 -20 -38 -21 -39 -40 -23 -12 12 -17 26 -13 39 3 12 0 34 -5 49 -13 34 -53 36 -94 6z m54 -41 c10 -19 7 -25 -30 -56 -23 -19 -48 -47 -57 -63 -20 -39 -34 -36 -34 6 0 44 21 86 56 114 34 27 50 26 65 -1z m46 -85 c9 -24 -36 -102 -70 -120 -27 -13 -31 -13 -45 1 -14 14 -11 19 31 56 25 22 49 50 52 60 8 24 23 26 32 3z m-339 -30 c32 -24 41 -46 22 -58 -14 -9 -72 19 -100 49 -21 23 -22 29 -10 36 19 12 47 4 88 -27z m273 19 c-11 -21 -41 -48 -41 -38 0 4 7 18 16 31 19 29 40 34 25 7z m1689 -26 l35 -13 -35 -6 c-53 -10 -80 -33 -80 -68 0 -39 48 -89 84 -89 43 0 29 -17 -23 -30 -41 -10 -59 -9 -104 4 -97 28 -132 91 -85 151 44 56 133 78 208 51z m85 -56 c10 -11 16 -22 13 -25 -3 -3 -35 -8 -72 -12 -62 -6 -66 -5 -66 15 0 39 94 56 125 22z m-1836 -60 c11 0 40 -56 56 -107 5 -20 3 -23 -18 -23 -21 0 -25 6 -31 39 -4 24 -17 51 -35 69 -23 22 -27 32 -18 41 9 9 14 8 23 -4 6 -8 17 -15 23 -15z m1841 -3 c0 -23 -23 -37 -60 -37 -33 0 -60 14 -60 31 0 5 19 10 43 12 23 2 50 4 60 5 9 1 17 -4 17 -11z m90 -258 c0 -34 -41 -69 -80 -69 -33 0 -80 35 -80 60 0 10 -10 43 -21 74 -12 31 -20 57 -18 59 2 1 27 13 54 27 l50 25 48 -75 c26 -42 47 -86 47 -101z m-226 105 c3 -8 2 -12 -4 -9 -6 3 -10 10 -10 16 0 14 7 11 14 -7z m-1629 -35 c14 -14 16 -22 8 -30 -16 -16 -60 -3 -73 21 -23 43 23 49 65 9z m-100 -18 c3 -11 17 -27 31 -36 21 -14 23 -19 13 -32 -11 -12 -7 -20 27 -48 38 -33 39 -34 19 -49 -11 -9 -35 -15 -55 -13 -32 2 -35 5 -48 52 -8 28 -20 57 -27 65 -11 12 -11 21 0 48 16 36 31 41 40 13z m225 -54 c0 -4 -9 -3 -20 3 -11 6 -20 15 -20 20 0 6 9 5 20 -2 11 -7 20 -16 20 -21z m-104 -27 c8 0 14 -6 14 -14 0 -26 -17 -26 -41 1 -19 21 -21 25 -6 20 10 -4 25 -7 33 -7z m2802 -22 c9 -9 -18 -31 -123 -100 -75 -48 -140 -88 -145 -88 -9 0 -106 108 -112 124 -2 6 78 24 177 42 99 18 182 32 186 33 3 1 10 -4 17 -11z m-3049 -9 c17 -6 31 -17 31 -25 0 -7 14 -29 30 -47 17 -19 30 -39 30 -45 0 -20 -33 -22 -76 -3 -61 27 -108 110 -71 124 19 8 22 8 56 -4z m3151 -100 c51 -65 54 -106 9 -143 -22 -19 -38 -25 -53 -20 -24 7 -136 113 -136 129 0 12 109 85 127 85 7 0 31 -23 53 -51z m-4014 -94 c24 -14 48 -34 54 -45 9 -17 7 -20 -11 -20 -12 0 -30 -7 -40 -16 -16 -14 -20 -13 -58 21 -43 39 -49 53 -29 73 18 18 36 15 84 -13z m994 -34 c-14 -28 -12 -67 6 -102 18 -36 17 -38 -22 -43 -16 -3 -37 -7 -46 -11 -12 -5 -18 -3 -18 6 0 8 -9 4 -23 -9 -21 -20 -34 -22 -135 -22 -103 0 -113 2 -136 24 -15 13 -26 30 -26 39 0 16 64 77 81 77 6 0 21 -13 35 -29 48 -57 152 -82 174 -42 16 30 12 66 -10 94 -25 31 -17 35 68 36 59 1 62 0 52 -18z m104 -10 c21 -24 15 -49 -20 -82 -21 -20 -27 -21 -35 -9 -15 25 -22 59 -15 85 8 31 45 34 70 6z m-314 0 c0 -4 -5 -22 -11 -40 l-11 -32 -24 22 c-29 27 -27 41 7 50 35 10 39 10 39 0z m64 -20 c10 -11 16 -30 14 -43 -2 -18 -10 -24 -35 -26 -37 -4 -40 4 -21 55 14 38 19 40 42 14z m1764 -38 c14 -27 5 -40 -59 -84 l-59 -40 -10 26 c-10 27 -4 71 11 81 5 3 9 1 9 -5 0 -6 16 1 36 14 43 30 60 31 72 8z m753 1 l36 -6 -9 -46 c-4 -25 -9 -46 -11 -47 -1 -1 -20 -9 -42 -18 -22 -8 -57 -23 -78 -31 l-38 -17 -13 33 c-10 24 -12 46 -6 78 5 25 9 48 10 53 0 8 100 9 151 1z m-3264 -46 c-2 -34 -6 -44 -21 -46 -19 -4 -19 -3 -3 22 15 23 16 25 1 19 -15 -5 -15 -3 1 20 9 15 19 27 21 27 1 0 2 -19 1 -42z m2340 -78 c12 -23 10 -25 -15 -31 -15 -3 -45 -15 -67 -27 -44 -25 -59 -16 -44 27 20 58 103 78 126 31z m-2610 3 c38 -18 77 -70 89 -118 7 -29 6 -29 -49 21 -46 42 -102 72 -115 60 -1 -2 36 -38 82 -80 47 -42 83 -82 80 -89 -4 -11 -76 -57 -88 -57 -4 0 -6 7 -6 15 0 21 -33 19 -63 -5 -28 -22 -57 -26 -57 -9 0 14 67 79 81 79 5 0 9 5 9 10 0 20 -19 9 -64 -35 l-45 -46 -22 42 c-16 33 -20 55 -17 96 5 61 24 87 83 114 49 23 58 23 102 2z m2233 13 c0 -2 -7 -6 -15 -10 -8 -3 -15 -1 -15 4 0 6 7 10 15 10 8 0 15 -2 15 -4z m-1566 -53 c-8 -47 -9 -48 -34 -37 -19 9 -19 9 1 42 28 43 42 41 33 -5z m56 11 c0 -12 -25 -54 -32 -54 -9 0 -10 16 -2 47 4 13 11 20 20 16 8 -3 14 -7 14 -9z m1264 7 c4 -5 -3 -7 -14 -4 -23 6 -26 13 -6 13 8 0 17 -4 20 -9z m301 -1 c4 -6 -5 -10 -19 -10 -14 0 -26 5 -26 10 0 6 9 10 19 10 11 0 23 -4 26 -10z m-1235 -7 c0 -5 -9 -19 -20 -33 -18 -24 -23 -25 -164 -28 -80 -2 -146 -1 -146 2 0 3 5 16 11 30 12 25 14 25 143 29 72 1 141 4 154 5 12 1 22 -1 22 -5z m1170 -24 c0 -6 -4 -7 -10 -4 -5 3 -10 11 -10 16 0 6 5 7 10 4 6 -3 10 -11 10 -16z m-1890 -18 c0 -28 3 -30 45 -37 37 -5 46 -11 51 -31 9 -36 -8 -83 -38 -106 -34 -25 -48 -15 -48 33 0 51 -8 70 -31 70 -15 0 -18 -9 -21 -52 l-3 -53 -22 35 c-44 68 -18 170 43 170 20 0 24 -5 24 -29z m760 19 c0 -5 -4 -10 -10 -10 -5 0 -10 5 -10 10 0 6 5 10 10 10 6 0 10 -4 10 -10z m2149 -22 c-9 -32 -27 -51 -41 -42 -13 8 -10 19 13 48 28 35 40 33 28 -6z m-1350 -52 c1 -16 -3 -14 -20 8 -18 23 -19 29 -8 43 12 14 14 13 20 -8 4 -13 7 -32 8 -43z m71 48 c38 -26 50 -45 50 -81 0 -24 -8 -41 -26 -58 -27 -25 -64 -34 -64 -15 0 6 7 10 15 10 11 0 14 7 10 23 -34 150 -34 153 15 121z m654 -16 c8 -18 17 -47 20 -65 7 -28 5 -31 -13 -26 -12 3 -21 1 -21 -5 0 -5 16 -12 36 -15 35 -6 74 -31 74 -48 0 -4 -30 -6 -66 -5 -61 3 -67 6 -94 37 l-28 34 19 36 c13 26 15 39 7 47 -8 8 -8 15 2 27 21 26 50 18 64 -17z m-3220 -32 c-10 -16 -26 -26 -40 -26 -24 0 -24 1 -8 25 9 14 25 25 35 25 11 0 19 7 20 18 1 15 2 15 6 0 2 -9 -3 -28 -13 -42z m2860 39 c-7 -17 -20 -20 -29 -6 -3 5 3 12 12 14 10 3 19 5 20 6 1 0 0 -6 -3 -14z m-771 -53 c41 -40 43 -47 22 -68 -13 -13 -16 -11 -27 17 -13 31 -13 31 -36 13 l-22 -19 30 -85 c16 -47 29 -89 27 -95 -3 -9 -122 129 -144 169 -19 32 -15 60 10 83 46 43 84 39 140 -15z m228 -24 l15 -73 33 3 c27 3 39 -2 63 -28 27 -30 28 -35 17 -61 -7 -18 -19 -29 -30 -29 -11 0 -19 -7 -19 -15 0 -21 -39 -19 -77 5 -30 18 -33 18 -42 3 -8 -15 -13 -15 -36 -5 -31 15 -30 22 27 136 22 43 37 80 34 83 -2 2 -15 -3 -29 -11 -22 -15 -25 -15 -41 3 -18 19 -17 21 15 40 19 12 39 21 45 21 5 0 17 -33 25 -72z m69 37 c0 -18 -4 -22 -20 -18 -13 3 -20 14 -20 28 0 18 4 22 20 18 13 -3 20 -14 20 -28z m-624 11 c3 -8 -2 -28 -10 -45 -19 -35 -2 -56 21 -26 13 18 13 18 27 -1 8 -10 25 -40 37 -66 21 -46 22 -47 3 -78 -11 -18 -36 -42 -56 -54 l-37 -21 -28 32 c-37 41 -73 53 -73 23 0 -30 -16 -16 -23 19 -9 42 -69 71 -161 78 -66 5 -190 -8 -233 -24 -14 -5 -12 1 10 26 15 18 27 37 27 42 0 6 4 8 9 4 16 -9 24 15 11 30 -10 12 -10 18 1 31 11 14 39 16 199 13 153 -2 191 1 220 14 44 20 49 20 56 3z m1064 -3 c0 -14 -54 -55 -58 -44 -6 19 26 61 43 55 8 -4 15 -9 15 -11z m-2772 -10 c-2 -10 -13 -19 -26 -21 -24 -4 -29 7 -10 26 18 18 40 15 36 -5z m2877 -4 c-4 -5 -13 -9 -22 -9 -13 0 -13 3 -3 15 13 15 35 11 25 -6z m-1691 -32 c19 -33 19 -36 3 -61 -23 -35 -51 -33 -78 5 -15 21 -25 27 -32 20 -8 -8 -1 -22 20 -49 l31 -38 -82 -27 c-100 -33 -146 -35 -146 -8 0 14 10 20 38 25 21 3 48 16 61 30 25 27 43 89 35 122 -5 21 -3 21 62 18 66 -3 69 -4 88 -37z m1801 3 c3 -5 -1 -10 -10 -10 -9 0 -13 5 -10 10 3 6 8 10 10 10 2 0 7 -4 10 -10z m-3015 -20 c0 -5 -2 -10 -4 -10 -3 0 -8 5 -11 10 -3 6 -1 10 4 10 6 0 11 -4 11 -10z m2200 -22 c0 -6 -7 -5 -15 2 -8 7 -15 17 -15 22 0 6 7 5 15 -2 8 -7 15 -17 15 -22z m-2133 -3 l28 -24 -25 0 c-28 0 -60 20 -60 38 0 19 27 12 57 -14z m2817 -16 c-3 -5 -10 -7 -15 -3 -5 3 -7 10 -3 15 3 5 10 7 15 3 5 -3 7 -10 3 -15z m120 -5 c4 -10 -5 -36 -20 -61 l-25 -44 -20 25 c-24 30 -24 31 2 67 22 32 53 38 63 13z m-2271 -45 c-4 -4 -19 -6 -32 -2 l-24 6 24 18 c21 16 25 16 32 2 5 -8 5 -19 0 -24z m2403 -67 c12 -65 -55 -117 -118 -91 l-30 12 23 18 c20 15 25 16 32 3 4 -8 19 -14 33 -14 20 0 24 4 20 18 -17 54 -33 142 -27 147 11 11 61 -57 67 -93z m-2599 53 c-11 -7 -26 -11 -34 -8 -13 5 -11 9 8 24 16 12 27 15 34 8 7 -7 4 -15 -8 -24z m321 16 c14 -12 22 -30 22 -50 0 -41 -12 -39 -38 8 -34 60 -28 78 16 42z m1242 -3 c0 -19 -2 -20 -10 -8 -13 19 -13 30 0 30 6 0 10 -10 10 -22z m705 -4 c0 -25 -52 -31 -80 -10 -20 15 -19 15 5 16 14 0 32 5 40 10 21 13 35 7 35 -16z m-630 6 c3 -5 1 -10 -4 -10 -6 0 -11 5 -11 10 0 6 2 10 4 10 3 0 8 -4 11 -10z m406 -34 c-9 -23 -13 -25 -31 -14 -19 12 -19 13 8 34 31 25 37 19 23 -20z m682 28 c31 -6 37 -11 37 -31 0 -21 -3 -23 -22 -17 -39 11 -78 34 -78 44 0 12 11 12 63 4z m-1298 -85 c46 -57 59 -68 71 -58 12 9 12 6 3 -22 -6 -19 -13 -41 -15 -49 -5 -15 -93 114 -94 138 0 7 -7 24 -16 37 -31 47 -6 25 51 -46z m-1675 20 c18 -33 2 -75 -46 -119 -48 -44 -80 -60 -121 -60 -24 0 -25 1 -11 18 9 9 26 39 38 65 16 34 26 45 33 38 13 -13 47 -15 47 -2 0 5 -7 14 -15 21 -20 16 -19 22 6 54 16 21 24 24 39 16 11 -6 24 -20 30 -31z m1074 -8 c84 -45 92 -51 77 -64 -44 -39 -185 -90 -284 -102 -51 -6 -57 -5 -57 10 0 17 -1 17 -18 2 -20 -18 -55 -13 -103 14 -24 13 -23 14 16 19 28 3 41 10 43 23 3 15 -2 18 -32 15 -115 -10 42 83 199 117 33 7 61 14 62 14 2 1 45 -21 97 -48z m32 38 c24 -6 44 -15 44 -20 0 -14 -48 -10 -80 6 -51 27 -37 32 36 14z m1424 -18 c0 -45 -89 -63 -129 -27 -33 30 -24 40 15 16 30 -19 40 -21 60 -11 14 6 23 15 20 20 -4 5 0 12 6 14 23 9 28 7 28 -12z m640 4 c0 -17 5 -18 29 -6 9 5 22 7 28 3 15 -10 33 -48 33 -71 l0 -21 -32 20 c-39 24 -79 25 -118 5 -34 -18 -34 -18 -19 24 15 42 79 79 79 46z m-3547 -14 c-3 -10 0 -22 6 -25 10 -6 -4 -66 -16 -66 -4 0 -46 34 -127 102 -6 4 24 8 66 8 70 0 76 -2 71 -19z m3387 -33 c0 -23 -5 -28 -35 -34 -19 -3 -46 -18 -60 -32 -14 -14 -27 -23 -30 -20 -6 6 -9 35 -7 72 2 27 3 28 20 13 15 -14 19 -14 37 -1 16 12 17 18 8 33 -10 16 -8 17 28 7 33 -9 39 -14 39 -38z m-780 0 c0 -4 -13 -8 -30 -8 -28 0 -29 1 -18 25 11 24 12 24 30 9 10 -10 18 -21 18 -26z m504 18 c-3 -9 -10 -16 -15 -16 -6 0 -5 9 1 21 13 24 24 20 14 -5z m-2894 4 c0 -5 -2 -10 -4 -10 -3 0 -8 5 -11 10 -3 6 -1 10 4 10 6 0 11 -4 11 -10z m1335 -19 c-3 -6 -11 -8 -17 -5 -6 4 -5 9 3 15 16 10 23 4 14 -10z m165 -41 c11 -20 6 -40 -8 -40 -10 0 -42 54 -42 69 0 17 37 -5 50 -29z m255 21 c7 -13 -16 -62 -26 -55 -11 6 -12 48 -2 57 9 10 21 9 28 -2z m-1812 -32 c-5 -5 -24 -12 -42 -15 -31 -7 -33 -6 -22 14 6 11 23 22 38 24 29 3 42 -7 26 -23z m2121 0 c-8 -14 -54 -10 -54 4 0 9 10 12 30 9 16 -2 27 -8 24 -13z m-601 -42 c-8 -13 -33 14 -33 37 0 20 1 20 19 -4 11 -13 17 -28 14 -33z m232 6 c11 -51 12 -55 20 -75 12 -29 0 -21 -39 27 -31 37 -35 48 -26 65 17 31 37 24 45 -17z m103 2 c16 -36 15 -76 -4 -103 -22 -31 -28 -28 -42 23 -10 38 -10 51 3 75 19 37 28 38 43 5z m462 -17 c0 -38 -48 -36 -110 4 l-35 23 60 5 c65 6 85 -2 85 -32z m130 38 c0 -3 -4 -8 -10 -11 -5 -3 -10 -1 -10 4 0 6 5 11 10 11 6 0 10 -2 10 -4z m72 -22 c39 -27 48 -43 26 -45 -40 -4 -78 22 -78 53 0 24 7 23 52 -8z m900 9 c22 -20 24 -59 2 -67 -42 -16 -70 -6 -87 30 -10 19 -15 40 -12 45 10 15 77 10 97 -8z m-1982 -28 c0 -34 -12 -46 -25 -24 -4 6 -17 14 -28 18 -20 8 -20 9 8 24 42 23 45 21 45 -18z m-1420 5 c0 -31 -78 -43 -88 -12 -4 13 31 30 66 31 15 1 22 -5 22 -19z m3208 -95 c-2 -104 -4 -115 -21 -115 -46 0 -94 94 -81 159 8 37 46 71 81 71 l24 0 -3 -115z m-1602 -146 c-60 -185 -76 -188 -57 -12 7 65 14 123 14 128 1 6 -10 11 -24 13 -26 3 -27 2 -38 -92 -7 -53 -11 -121 -10 -151 3 -56 -14 -96 -24 -59 -14 50 -17 94 -7 94 6 0 10 48 10 134 0 125 1 135 20 141 10 3 29 1 40 -5 11 -6 24 -8 29 -6 5 3 11 -1 15 -9 3 -8 13 -15 22 -15 13 0 15 7 10 38 l-7 37 28 -43 28 -44 -49 -149z m542 197 c12 -24 12 -34 -3 -72 -20 -53 -33 -52 -52 1 -10 31 -11 45 -1 72 15 40 37 40 56 -1z m-813 -28 c-44 -19 -65 -22 -65 -9 0 22 49 41 85 32 16 -4 12 -8 -20 -23z m-120 -5 c-4 -16 -9 -30 -12 -33 -11 -11 -139 -4 -163 10 -24 14 -24 14 32 22 31 4 72 11 90 17 55 16 61 14 53 -16z m525 -26 c0 -13 -29 12 -42 37 -10 19 -8 18 16 -3 14 -14 26 -29 26 -34z m318 -25 c11 -28 16 -54 11 -57 -14 -9 -46 13 -75 50 l-27 35 24 23 c30 29 40 21 67 -51z m1213 -35 c-8 -8 -11 5 -11 44 0 72 14 86 18 18 2 -28 -2 -57 -7 -62z m-1382 62 c-18 -11 -22 -5 -14 22 7 20 8 21 17 4 8 -12 7 -20 -3 -26z m-1800 -70 c-15 -96 -42 -142 -83 -147 -77 -9 -103 27 -85 119 12 61 17 67 36 48 9 -9 13 -2 18 24 7 36 7 36 64 39 31 2 58 2 60 1 2 -1 -2 -39 -10 -84z m3331 36 l0 -55 -48 0 -49 0 11 50 c9 47 12 49 45 53 20 2 37 4 39 5 1 1 2 -23 2 -53z m-2002 -18 c2 -42 -1 -59 -11 -63 -12 -4 -12 -15 -2 -68 10 -58 10 -64 -7 -75 -14 -9 -18 -8 -19 1 0 7 -27 33 -60 58 l-59 45 3 59 2 59 60 22 c85 32 89 30 93 -38z m481 -72 c17 -44 31 -81 31 -82 0 -2 -10 -3 -23 -3 -22 0 -24 -7 -37 -82 -15 -99 -26 -124 -45 -108 -10 9 -6 30 21 115 41 127 43 172 9 213 -18 21 -21 32 -13 35 19 7 24 -1 57 -88z m-188 -71 c-5 -36 -17 -77 -26 -90 -15 -23 -60 -42 -72 -31 -11 12 48 176 75 208 l27 33 3 -27 c2 -16 -1 -57 -7 -93z m108 74 c13 -23 11 -36 -25 -148 -28 -90 -35 -125 -26 -128 7 -2 19 -16 27 -32 13 -25 13 -29 -5 -45 -18 -17 -21 -15 -73 29 -62 53 -73 77 -46 102 18 16 19 16 19 -3 0 -18 37 -40 48 -28 2 2 10 52 18 112 20 157 24 175 37 170 7 -2 18 -15 26 -29z m1365 -26 l24 -7 -23 -28 -24 -27 -16 29 c-20 40 -21 68 -1 52 8 -7 26 -15 40 -19z m194 21 c-9 -2 -22 -17 -29 -32 -13 -28 -78 -65 -105 -59 -41 9 89 100 136 97 11 -1 11 -2 -2 -6z m76 -9 c26 -10 18 -29 -21 -48 -29 -14 -38 -15 -44 -4 -13 21 -11 26 19 42 33 18 27 17 46 10z m46 -69 c0 -31 -77 -76 -91 -53 -16 24 -9 37 29 57 49 27 62 26 62 -4z m-2187 -43 c9 -10 23 -34 31 -54 15 -34 14 -38 -7 -69 -26 -39 -62 -55 -101 -45 -69 17 -88 91 -37 148 l29 32 12 -77 c14 -82 18 -91 40 -77 11 7 11 19 2 66 -7 31 -12 66 -12 76 0 23 22 23 43 0z m2067 -59 c0 -4 -64 32 -80 44 -2 2 2 8 10 13 9 6 22 -1 42 -22 15 -17 28 -32 28 -35z m-1035 37 c16 -6 17 -9 5 -13 -80 -26 -123 -44 -169 -68 -30 -16 -55 -28 -57 -26 -1 1 1 17 3 35 6 37 19 46 95 66 60 17 94 18 123 6z m971 -41 c38 -23 71 -43 73 -45 1 -1 -16 -8 -38 -14 -80 -21 -151 12 -151 70 0 43 32 40 116 -11z m-2927 14 l21 -18 -25 -12 c-20 -9 -25 -8 -25 3 0 8 -4 14 -9 14 -5 0 -16 3 -25 6 -14 5 -16 -6 -16 -87 l-1 -94 -24 40 c-35 56 -34 116 1 144 33 26 75 27 103 4z m2121 -26 c42 -21 38 -59 -12 -101 -48 -41 -57 -34 -39 28 7 29 7 36 -4 36 -9 0 -18 -22 -26 -61 -11 -55 -15 -62 -50 -80 -53 -27 -58 -25 -48 19 5 20 9 46 9 57 0 37 -25 -3 -35 -58 -9 -43 -16 -54 -40 -67 -38 -18 -152 -25 -188 -11 l-29 11 25 30 c14 16 28 42 31 57 6 28 43 56 126 99 97 49 226 68 280 41z m-1481 -49 c-8 -14 -14 -18 -17 -10 -4 13 17 46 25 38 3 -2 -1 -15 -8 -28z m419 7 c-10 -23 -13 -24 -21 -9 -6 11 -5 19 4 25 24 15 29 10 17 -16z m618 -30 c-3 -13 -22 -36 -40 -50 -34 -25 -36 -26 -66 -10 -37 19 -39 15 42 70 65 44 77 42 64 -10z m-1616 19 c18 -46 12 -93 -15 -119 -28 -28 -60 -33 -69 -9 -12 33 -6 122 10 138 25 25 63 20 74 -10z m634 17 c3 -5 -3 -11 -13 -14 -14 -3 -18 -1 -14 9 6 16 19 18 27 5z m475 -2 c18 -6 30 -14 27 -16 -3 -3 6 -28 20 -55 l25 -50 -36 -44 c-69 -84 -75 -86 -93 -34 -10 26 -7 34 29 79 22 27 35 52 30 55 -5 4 -25 -12 -43 -34 -30 -38 -33 -40 -45 -24 -22 29 -16 82 12 109 28 28 30 29 74 14z m-318 -84 c32 0 59 -1 59 -3 0 -1 -14 -30 -31 -64 -27 -54 -29 -62 -15 -70 9 -5 14 -13 11 -19 -8 -13 -69 -11 -82 2 -13 13 -57 -7 -48 -22 4 -5 -7 -21 -24 -35 -16 -13 -33 -34 -36 -44 -4 -11 -11 -20 -17 -20 -7 0 -9 24 -5 75 l7 74 -45 26 c-29 17 -42 31 -38 41 3 8 11 14 17 14 7 0 16 11 22 25 l9 25 47 -40 c26 -22 49 -36 53 -31 5 10 -62 80 -77 81 -5 0 -8 7 -8 16 0 12 7 15 31 12 21 -3 33 0 36 9 4 11 15 6 40 -19 31 -30 40 -33 94 -33z m-601 41 c0 -21 -17 -29 -48 -21 -26 6 -26 7 -8 21 26 18 56 18 56 0z m762 -68 c-5 -20 -22 -24 -39 -7 -9 9 -8 19 4 42 l15 31 13 -24 c7 -13 10 -31 7 -42z m2345 28 c15 -14 25 -39 29 -71 8 -59 -6 -52 -26 14 -14 44 -29 57 -55 48 -12 -5 -9 -20 15 -92 l29 -86 -21 -8 c-53 -19 -78 8 -78 86 0 16 -7 27 -20 30 -23 6 -24 9 -9 53 8 21 23 37 43 46 36 15 63 10 93 -20z m-3077 3 c0 -6 9 -9 19 -6 21 5 31 -25 31 -87 0 -39 -6 -47 -54 -75 -31 -17 -41 -19 -47 -9 -17 26 -8 49 26 69 19 12 35 25 35 29 0 22 -25 20 -61 -5 -23 -14 -42 -25 -44 -23 -1 2 -5 27 -7 57 l-5 53 32 -5 c17 -3 38 -1 46 4 19 12 29 11 29 -2z m289 -23 c14 -14 14 -17 0 -32 -20 -19 -55 -5 -83 33 l-19 26 43 -6 c23 -3 50 -13 59 -21z m1011 -26 c0 -14 -12 -12 -38 6 -33 23 -27 37 8 19 17 -9 30 -20 30 -25z m-220 -16 c0 -1 -6 -7 -14 -13 -12 -10 -18 -7 -30 18 -22 42 -20 45 14 19 17 -12 30 -23 30 -24z m2704 40 c18 -7 21 -36 5 -65 -6 -11 -31 -33 -56 -49 l-45 -29 -49 25 c-27 13 -49 28 -49 32 0 10 59 66 85 80 22 12 84 16 109 6z m-3624 -24 c9 -16 6 -22 -20 -35 -34 -18 -36 -15 -15 25 18 35 21 36 35 10z m-297 -72 c26 -16 -51 -68 -101 -68 -22 0 -39 10 -61 35 -17 20 -31 37 -31 38 0 1 25 2 56 2 51 0 58 3 87 35 l32 35 3 -35 c2 -19 8 -38 15 -42z m3304 60 c-3 -8 -6 -5 -6 6 -1 11 2 17 5 13 3 -3 4 -12 1 -19z m-1922 -14 c9 -14 15 -27 13 -30 -8 -7 -48 27 -48 42 0 22 16 17 35 -12z m-258 -24 c11 -29 9 -33 -24 -64 l-37 -33 85 -102 c46 -56 85 -105 86 -109 2 -4 -43 -7 -100 -8 -89 0 -147 -9 -204 -31 -14 -5 -15 -1 -10 27 12 56 40 78 52 39 6 -19 8 -20 26 -3 10 9 19 21 19 25 0 8 -44 87 -96 174 -13 22 -24 54 -24 70 1 25 2 27 11 12 5 -9 7 -22 4 -28 -11 -17 44 -87 64 -82 10 2 42 36 72 74 29 38 56 69 59 69 3 0 11 -14 17 -30z m-680 -5 c56 -27 71 -41 55 -57 -16 -16 -44 -1 -80 42 -18 22 -31 40 -29 40 2 0 26 -11 54 -25z m1702 -11 c52 -37 67 -129 26 -169 -69 -70 -195 26 -169 130 13 52 93 73 143 39z m1252 6 c19 -11 54 -68 46 -77 -3 -2 -13 9 -23 26 -13 22 -24 29 -36 25 -13 -4 -18 0 -18 15 0 24 4 25 31 11z m-3673 -15 c2 -2 1 -12 -2 -23 -8 -23 -39 -39 -44 -23 -2 6 -17 11 -34 11 -35 0 -34 19 3 38 20 10 66 9 77 -3z m3602 -62 c7 -43 15 -81 16 -85 8 -14 44 5 44 25 0 19 1 20 20 2 38 -34 20 -55 -46 -55 -36 0 -69 24 -83 63 -9 22 16 127 30 127 3 0 12 -35 19 -77z m-2985 47 c3 -5 -6 -12 -20 -16 -24 -6 -25 -9 -25 -80 0 -41 -4 -74 -8 -74 -26 0 -76 82 -67 110 14 46 102 90 120 60z m505 -32 c0 -4 -13 -8 -30 -8 -34 0 -37 6 -13 32 16 18 18 18 30 2 7 -10 13 -21 13 -26z m-456 -4 c11 -28 6 -34 -19 -22 -26 11 -30 19 -18 31 11 12 31 7 37 -9z m-643 -47 c-9 -24 -46 -57 -63 -57 -5 0 -8 14 -8 30 0 40 47 85 67 64 9 -9 10 -20 4 -37z m399 -13 l-13 -37 -13 24 c-11 21 -10 26 9 41 29 22 32 17 17 -28z m239 17 c11 -7 11 -15 2 -44 -12 -36 -37 -64 -47 -54 -10 10 7 107 19 107 7 0 18 -4 26 -9z m-759 -28 c0 -22 -2 -25 -10 -13 -13 20 -13 40 0 40 6 0 10 -12 10 -27z m1175 7 c10 -15 -17 -121 -29 -117 -11 4 -76 106 -76 120 0 11 98 8 105 -3z m-104 -114 c60 -108 65 -113 87 -103 13 6 21 16 18 24 -8 19 8 16 27 -5 16 -17 15 -20 -7 -41 -26 -24 -96 -41 -96 -22 0 8 -5 8 -19 -1 -15 -9 -25 -8 -51 8 -46 27 -73 83 -72 150 0 53 21 104 42 104 5 0 37 -51 71 -114z m2909 78 c10 -30 10 -38 -1 -45 -30 -20 -109 14 -109 46 0 15 38 33 72 34 22 1 29 -5 38 -35z m-3820 6 c0 -29 -44 -70 -75 -70 -34 0 -32 25 4 40 16 6 37 20 47 31 22 24 24 24 24 -1z m-230 -44 c0 -15 -32 -39 -67 -50 -33 -10 -30 17 3 43 30 24 64 28 64 7z m577 -82 c-2 -2 -17 9 -34 24 -28 23 -30 30 -22 52 10 24 11 24 35 -24 14 -27 23 -50 21 -52z m723 50 c0 -12 -7 -24 -15 -27 -17 -7 -27 5 -20 27 17 53 16 51 25 36 6 -8 10 -25 10 -36z m1373 -21 c6 -29 4 -32 -24 -38 -35 -8 -104 18 -113 41 -4 10 4 14 29 14 21 0 44 9 62 24 31 27 33 25 46 -41z m-213 42 c6 -8 9 -19 5 -24 -9 -15 -44 9 -38 26 7 17 18 17 33 -2z m-1810 -57 c0 -5 -4 -8 -8 -8 -9 0 -32 44 -32 58 1 9 39 -41 40 -50z m-590 17 c18 -20 22 -31 17 -62 -17 -106 -152 -111 -173 -6 -6 30 -4 32 34 42 22 6 51 20 64 31 29 25 30 25 58 -5z m1785 -38 c-17 -41 -23 -43 -49 -24 -16 12 -15 15 21 39 21 14 39 25 41 23 1 -1 -5 -18 -13 -38z m1558 -66 c37 -44 67 -81 67 -83 0 -2 -32 1 -71 6 -67 9 -70 11 -64 33 4 17 -1 30 -19 46 -22 21 -23 24 -10 50 8 15 18 27 22 27 4 0 37 -36 75 -79z m-2874 45 c19 -20 20 -26 9 -50 -9 -21 -9 -32 0 -47 11 -16 7 -22 -25 -42 -57 -36 -83 -48 -83 -40 0 16 65 203 70 203 4 0 16 -11 29 -24z m174 16 c16 -7 14 -11 -14 -31 -23 -17 -36 -21 -47 -14 -25 15 -24 29 0 41 27 13 37 13 61 4z m1846 -26 l24 -13 -32 -11 c-29 -10 -31 -10 -31 14 0 27 5 29 39 10z m197 -31 c-22 -16 -46 -20 -46 -7 0 15 13 22 39 22 25 -1 25 -1 7 -15z m484 8 c0 -5 -7 -16 -14 -26 -12 -16 -20 -17 -50 -9 -19 6 -46 8 -58 5 l-23 -5 24 21 c17 15 37 21 72 21 27 0 49 -3 49 -7z m-1531 -31 l-9 -28 -110 0 c-88 0 -107 3 -98 13 17 21 98 42 165 42 l62 1 -10 -28z m-1085 -14 c-7 -11 -34 3 -34 18 0 12 4 12 19 2 11 -7 18 -15 15 -20z m2051 12 c4 -11 18 -28 31 -37 23 -15 23 -16 7 -30 -17 -13 -16 -14 9 -9 15 4 48 1 73 -6 42 -11 45 -14 45 -46 0 -49 -33 -97 -80 -116 -76 -30 -137 -12 -169 52 -18 37 -36 112 -27 112 3 0 24 -25 46 -55 33 -45 100 -99 100 -80 0 2 -29 45 -65 94 -36 48 -65 93 -65 99 0 8 62 40 82 41 4 1 10 -8 13 -19z m108 -21 c-20 -20 -23 -20 -44 -6 l-23 16 35 15 c43 19 62 4 32 -25z m507 11 c0 -11 -7 -20 -15 -20 -13 0 -14 4 -5 20 6 11 13 20 15 20 3 0 5 -9 5 -20z m-1515 -10 c18 -20 17 -20 -8 -20 -20 0 -27 5 -27 20 0 11 4 20 8 20 5 0 17 -9 27 -20z m164 3 c3 -2 -6 -15 -20 -28 -22 -22 -28 -24 -62 -14 -33 9 -37 12 -26 26 9 10 15 11 17 4 6 -18 20 -13 27 9 5 16 12 19 33 14 15 -4 29 -9 31 -11z m891 -30 c0 -14 -32 -18 -43 -6 -4 3 1 15 10 25 13 14 18 16 25 6 4 -7 8 -19 8 -25z m-863 -13 c-11 -29 -26 -38 -40 -24 -9 9 32 66 43 59 4 -3 3 -19 -3 -35z m-1217 -1 c-11 -39 -13 -41 -33 -33 -18 7 -12 32 11 52 25 20 31 14 22 -19z m1278 13 c9 -6 4 -16 -18 -37 -36 -34 -44 -30 -28 13 13 33 23 38 46 24z m-815 -34 c-24 -23 -40 -20 -30 7 4 8 17 15 29 15 l22 0 -21 -22z m507 -10 c36 -39 54 -82 46 -105 -6 -14 -10 -12 -26 14 -20 33 -95 83 -123 83 -10 0 -27 -10 -38 -21 -16 -16 -20 -29 -16 -55 l6 -33 -76 35 c-84 38 -86 38 -81 24 2 -6 41 -28 88 -50 77 -36 82 -40 50 -40 -73 0 -105 11 -122 41 -14 23 -24 29 -53 29 -42 0 -46 17 -10 50 41 39 119 59 228 60 98 0 98 0 127 -32z m-1090 -8 c0 -18 -3 -19 -21 -9 -17 9 -19 13 -8 20 22 14 29 11 29 -11z m1185 6 c19 -8 35 -22 35 -30 0 -9 5 -16 10 -16 18 0 11 -26 -12 -47 -42 -37 -46 -36 -46 10 1 25 -6 54 -17 70 -20 31 -17 32 30 13z m1385 -16 c0 -5 10 -12 21 -15 19 -6 20 -8 5 -23 -14 -15 -18 -14 -46 13 -37 35 -38 44 -5 37 14 -2 25 -8 25 -12z m-2504 -6 c18 -15 18 -15 -6 -10 -14 3 -29 6 -33 6 -5 0 -5 5 -2 10 9 14 18 13 41 -6z m959 -27 c11 -9 15 -19 10 -27 -6 -10 -11 -9 -21 4 -11 16 -13 16 -18 -2 -4 -11 -13 -23 -21 -26 -22 -8 -19 40 3 53 22 14 25 13 47 -2z m-920 -17 c3 -5 2 -10 -4 -10 -5 0 -13 5 -16 10 -3 6 -2 10 4 10 5 0 13 -4 16 -10z m-35 -29 c0 -5 -6 -11 -12 -14 -18 -6 -39 3 -32 14 7 12 44 12 44 0z m1022 -16 c13 -28 6 -41 -14 -29 -7 5 -16 9 -20 10 -5 1 -10 2 -13 3 -9 2 15 41 26 41 5 0 15 -11 21 -25z m1511 1 c3 -12 -30 -32 -39 -24 -11 12 5 40 21 36 9 -2 17 -7 18 -12z m-2491 -18 c-7 -7 -12 -8 -12 -2 0 14 12 26 19 19 2 -3 -1 -11 -7 -17z m540 -6 c-27 -4 -37 2 -27 17 4 8 13 7 28 -1 l22 -13 -23 -3z m2028 16 c0 -11 -61 -58 -76 -58 -19 0 -18 13 6 43 18 23 70 34 70 15z m-930 -28 c-27 -20 -36 -19 -27 5 4 8 17 15 29 15 l23 0 -25 -20z m-1084 -63 c15 -28 13 -41 -7 -43 -5 -1 -13 -2 -18 -3 -5 0 -7 -11 -4 -23 5 -22 5 -22 -9 -5 -7 10 -20 17 -28 15 -17 -4 -44 47 -36 68 4 10 13 13 25 9 13 -4 20 0 24 16 5 19 8 20 22 9 9 -8 23 -27 31 -43z m1078 28 c-16 -25 -34 -33 -34 -16 0 7 37 38 48 40 1 1 -5 -10 -14 -24z m-393 -28 c67 -45 70 -97 5 -97 -64 0 -139 63 -123 103 10 26 77 22 118 -6z m-552 -79 c24 -25 35 -75 26 -116 -7 -34 -55 -86 -55 -60 0 9 -11 30 -25 46 -22 26 -23 31 -10 42 13 11 11 18 -16 51 -17 21 -28 43 -24 49 12 19 83 11 104 -12z m-116 -66 c-22 -5 -37 13 -29 35 7 16 9 16 26 -7 17 -22 17 -25 3 -28z m1172 -2 c25 -12 45 -27 45 -34 0 -21 -57 -69 -75 -62 -14 5 -13 10 9 39 29 38 32 49 14 46 -7 -1 -26 3 -42 10 -16 6 -37 9 -47 6 -23 -8 -42 2 -33 17 9 15 76 4 129 -22z m-1268 -15 c9 -25 -2 -27 -22 -5 -17 18 -17 20 -1 20 9 0 19 -7 23 -15z m1134 2 c-1 -12 -15 -9 -19 4 -3 6 1 10 8 8 6 -3 11 -8 11 -12z m95 -8 c8 -13 -15 -59 -30 -59 -7 0 -22 7 -34 16 -22 15 -22 17 -6 35 19 21 59 25 70 8z m-1102 -55 c20 -20 21 -54 1 -54 -18 0 -65 43 -65 60 0 16 47 12 64 -6z m1196 -9 c-7 -8 -17 -15 -23 -15 -5 0 -2 9 8 20 21 23 35 19 15 -5z m-1215 -78 c15 -9 20 -23 21 -55 0 -30 8 -50 25 -68 19 -21 21 -27 9 -34 -26 -16 -64 38 -76 108 -11 66 -10 68 21 49z m-7 -169 c2 -11 -10 -24 -35 -37 -21 -10 -49 -31 -62 -45 -28 -30 -41 -33 -41 -10 0 66 127 150 138 92z m-47 -88 c-19 -16 -37 -27 -40 -24 -8 7 47 54 62 54 7 -1 -3 -14 -22 -30z m79 3 c0 -60 -80 -137 -124 -120 -28 11 -20 53 13 66 15 7 43 28 62 47 40 41 49 42 49 7z"
       id="path552"
       style="fill:#ffffff" />
    <path
       d="M7474 8049 c-30 -18 -34 -18 -97 -3 -59 15 -71 15 -104 3 -111 -42 -29 -182 142 -244 28 -10 61 -29 75 -41 22 -21 88 -54 106 -54 4 0 -10 16 -32 35 l-39 34 38 1 c43 0 77 28 77 63 0 12 -9 38 -19 58 l-19 35 44 23 c24 13 44 28 44 32 0 14 -16 10 -43 -11 -52 -41 -116 -12 -66 30 32 26 3 27 -31 1 -22 -17 -27 -18 -52 -5 -34 18 -35 20 -2 37 15 8 23 17 17 20 -5 3 -23 -3 -39 -14z m-9 -55 c71 -33 105 -74 105 -124 0 -64 -53 -77 -154 -40 -94 36 -146 113 -116 171 16 29 97 26 165 -7z"
       id="path554"
       style="fill:#ffffff" />
    <path
       d="M11173 7999 c-18 -5 -33 -16 -33 -24 0 -18 -4 -18 45 0 56 20 92 18 116 -6 26 -26 14 -43 -46 -58 -45 -11 -75 -33 -75 -55 0 -7 11 -23 25 -36 19 -18 37 -24 73 -24 65 0 102 11 102 30 0 12 -5 14 -17 8 -39 -17 -109 -16 -127 1 -23 23 -8 40 49 54 72 18 91 49 56 92 -14 18 -30 23 -77 25 -32 2 -74 -1 -91 -7z"
       id="path556"
       style="fill:#ffffff" />
    <path
       d="M9691 7748 c-55 -104 -76 -155 -68 -160 16 -10 31 5 52 52 10 22 21 40 25 40 4 0 13 -26 21 -57 12 -54 37 -93 58 -93 5 0 -1 35 -15 78 -13 42 -24 78 -24 80 0 1 34 18 75 37 41 18 75 37 75 41 0 12 -65 -3 -123 -29 l-57 -27 45 90 c25 49 45 92 45 95 0 3 -7 5 -14 5 -9 0 -48 -63 -95 -152z"
       id="path558"
       style="fill:#ffffff" />
    <path
       d="M9890 7860 c0 -6 7 -39 16 -74 l16 -63 59 -1 c42 -1 59 3 59 12 0 9 -9 12 -24 9 -40 -8 -64 13 -81 72 -10 34 -22 55 -31 55 -8 0 -14 -5 -14 -10z"
       id="path560"
       style="fill:#ffffff" />
    <path
       d="M8157 7782 c-28 -31 -20 -60 28 -106 25 -25 45 -52 45 -63 0 -34 12 -63 26 -63 8 0 14 4 14 10 0 5 15 3 33 -5 34 -15 36 -28 10 -57 -9 -10 -12 -18 -7 -18 15 0 65 61 58 71 -3 5 1 9 10 9 8 0 16 5 18 10 2 7 14 7 36 1 38 -11 87 2 96 25 8 21 -4 123 -15 130 -19 12 -25 -8 -19 -58 9 -63 0 -78 -46 -78 -40 0 -53 17 -22 29 32 12 62 47 48 56 -6 4 -20 -5 -31 -19 -22 -27 -42 -35 -37 -13 6 29 -15 67 -51 96 -76 60 -162 79 -194 43z m98 -12 l27 -10 -33 -39 c-31 -34 -36 -36 -51 -23 -24 20 -32 50 -18 67 15 18 38 19 75 5z m80 -50 c15 -16 15 -22 5 -35 -15 -18 -54 -20 -68 -2 -9 10 -7 19 4 35 19 27 36 28 59 2z m11 -83 c11 -11 -45 -8 -67 3 -33 18 -21 28 20 16 22 -6 43 -15 47 -19z m-37 -33 c3 -3 0 -9 -7 -16 -8 -8 -15 -8 -27 2 -22 19 -18 32 8 24 12 -3 24 -8 26 -10z m43 -16 c-9 -9 -15 -9 -24 0 -9 9 -7 12 12 12 19 0 21 -3 12 -12z"
       id="path562"
       style="fill:#ffffff" />
    <path
       d="M12152 7778 c-18 -5 -39 -20 -48 -33 -19 -30 -65 -247 -54 -258 4 -5 16 -7 26 -5 14 2 21 23 35 96 23 122 26 130 55 148 28 19 65 13 94 -16 25 -25 26 -80 5 -180 -16 -77 -14 -90 15 -90 20 0 20 0 58 202 10 54 16 100 14 103 -11 11 -43 4 -48 -10 -5 -11 -12 -8 -35 14 -31 32 -69 41 -117 29z"
       id="path564"
       style="fill:#ffffff" />
    <path
       d="M7324 7560 c8 -62 -5 -90 -42 -90 -39 0 -52 17 -52 70 0 50 -5 61 -24 54 -9 -3 -11 -20 -8 -54 5 -58 -8 -80 -47 -80 -39 0 -51 17 -51 72 0 36 -4 48 -15 48 -12 0 -15 -15 -15 -75 0 -58 3 -75 14 -75 8 0 16 5 18 11 3 9 10 9 26 0 24 -13 57 -7 82 15 10 9 20 10 30 4 29 -19 88 -12 104 12 26 36 17 138 -12 138 -12 0 -13 -9 -8 -50z"
       id="path566"
       style="fill:#ffffff" />
    <path
       d="M6588 7543 c-23 -6 -25 6 20 -108 l20 -51 -67 4 -66 3 -24 -35 c-19 -29 -23 -45 -19 -79 l5 -44 -36 18 c-77 37 -155 51 -145 26 3 -9 -8 -18 -33 -25 -46 -14 -108 -64 -116 -92 -3 -13 3 -30 17 -47 18 -21 34 -27 79 -31 39 -3 54 -8 51 -17 -3 -7 3 -15 12 -19 11 -4 36 7 71 31 29 21 62 44 73 52 11 7 20 11 20 8 0 -4 -36 -34 -80 -68 -44 -34 -80 -64 -80 -66 0 -1 17 -3 38 -3 32 0 52 10 110 56 l72 55 10 -26 c5 -14 10 -44 10 -65 0 -28 5 -40 18 -43 9 -3 -4 -5 -29 -6 -60 -1 -78 -20 -55 -56 24 -37 72 -63 138 -76 58 -12 104 -42 92 -61 -4 -6 -27 -8 -55 -6 -46 5 -65 -4 -35 -15 40 -16 102 -17 120 -4 19 14 19 16 3 41 -25 37 -53 53 -126 70 -74 17 -128 59 -101 77 15 9 71 6 105 -8 13 -4 16 -2 13 8 -2 8 -15 16 -28 17 -15 3 -19 6 -11 11 10 6 9 33 -2 127 l-15 119 25 21 26 22 -24 7 c-30 9 -39 22 -39 56 0 31 20 42 54 29 32 -12 62 -52 81 -109 l16 -49 -30 -51 -30 -51 89 0 c49 0 92 5 95 10 4 6 -20 10 -65 10 -68 0 -70 1 -60 21 9 15 15 18 24 9 17 -13 46 -3 46 17 0 8 -5 23 -10 34 -8 14 -6 27 6 50 l16 32 -25 -7 c-24 -6 -27 -1 -83 139 -32 80 -60 144 -63 144 -3 -1 -14 -3 -23 -6z m-220 -335 c23 -18 42 -36 42 -40 0 -13 -87 -59 -124 -65 -39 -6 -92 11 -100 32 -11 29 78 103 125 105 8 0 34 -14 57 -32z"
       id="path568"
       style="fill:#ffffff" />
    <path
       d="M10106 7461 c-3 -5 23 -31 59 -57 35 -27 65 -52 65 -55 0 -4 -27 -17 -61 -29 -34 -13 -56 -27 -51 -32 8 -8 162 49 162 61 -1 9 -148 121 -159 121 -6 0 -12 -4 -15 -9z"
       id="path570"
       style="fill:#ffffff" />
    <path
       d="M10716 7222 c-3 -5 2 -34 11 -65 18 -65 9 -87 -36 -87 -42 0 -68 25 -82 81 -12 47 -31 70 -46 55 -3 -3 4 -42 17 -86 18 -63 27 -80 41 -80 11 0 19 3 19 8 0 4 24 6 53 4 42 -3 56 0 70 16 18 19 18 23 0 88 -18 64 -34 86 -47 66z"
       id="path572"
       style="fill:#ffffff" />
    <path
       d="M11813 7013 c4 -27 9 -65 13 -85 l7 -38 -37 0 -36 0 0 -86 c0 -47 5 -94 11 -106 13 -25 12 -26 -38 -34 l-42 -6 -7 73 c-6 62 -12 78 -35 101 -38 38 -104 39 -148 2 -30 -25 -31 -25 -31 -5 0 16 -6 21 -25 21 -25 0 -25 0 -25 -94 0 -51 3 -121 6 -155 6 -57 9 -61 32 -61 l25 0 -6 96 c-9 134 15 184 87 184 52 0 63 -27 71 -159 7 -119 8 -121 31 -121 21 0 24 5 24 34 l0 33 88 16 c48 9 110 19 139 23 28 3 64 14 80 24 27 16 29 16 56 -4 38 -28 151 -35 195 -12 38 20 42 20 42 1 0 -10 10 -15 29 -15 32 0 34 6 47 163 l7 77 -35 0 -35 0 -6 -74 c-3 -41 -10 -83 -16 -94 -14 -27 -74 -46 -123 -39 -63 8 -68 17 -68 123 l0 94 -30 0 c-24 0 -30 -4 -30 -22 -1 -13 -3 -50 -6 -83 -7 -65 -23 -90 -66 -100 -32 -8 -29 -16 -63 185 -33 197 -31 190 -62 190 -25 0 -26 -2 -20 -47z m38 -228 c12 -76 13 -95 2 -95 -7 0 -17 9 -23 20 -11 21 -12 170 -1 170 4 0 14 -43 22 -95z"
       id="path574"
       style="fill:#ffffff" />
    <path
       d="M11181 6766 c-56 -20 -111 -73 -111 -106 0 -43 26 -53 90 -34 59 17 80 13 80 -15 0 -28 -55 -70 -101 -77 -23 -4 -39 -12 -39 -20 0 -18 6 -18 64 2 89 30 144 109 101 144 -15 12 -29 11 -122 -6 -30 -6 -33 -4 -33 20 0 29 41 60 92 71 15 4 28 13 28 21 0 16 -4 16 -49 0z"
       id="path576"
       style="fill:#ffffff" />
    <path
       d="M6010 6540 l0 -220 25 0 25 0 0 100 c0 115 14 156 58 167 84 21 102 -6 102 -153 l0 -114 25 0 25 0 0 115 c0 135 -12 175 -59 195 -40 16 -97 7 -127 -21 l-24 -22 0 86 c0 86 0 87 -25 87 l-25 0 0 -220z"
       id="path578"
       style="fill:#ffffff" />
    <path
       d="M6557 6585 c-53 -18 -87 -52 -87 -86 0 -15 4 -30 10 -34 14 -9 0 -37 -37 -71 -27 -26 -33 -39 -33 -75 0 -23 5 -57 11 -74 10 -28 8 -42 -18 -110 l-30 -78 -94 -23 c-52 -13 -106 -23 -121 -24 -15 0 -30 -4 -33 -10 -3 -5 -14 -10 -23 -10 -32 0 -43 -15 -36 -48 4 -21 13 -32 28 -35 17 -3 11 -8 -27 -25 -89 -40 -86 -41 -145 49 -57 86 -93 112 -145 102 -38 -7 -87 -58 -87 -90 0 -25 -1 -25 -19 -9 -12 11 -25 15 -33 10 -7 -5 -22 -10 -33 -11 -11 -2 -55 -10 -99 -19 -43 -9 -82 -12 -86 -7 -4 4 -22 78 -40 163 -41 202 -36 188 -65 182 -14 -2 -25 -10 -25 -18 0 -7 16 -88 35 -180 19 -91 35 -168 35 -170 0 -3 -9 0 -19 6 -11 5 -22 6 -25 1 -12 -18 -106 -265 -106 -277 0 -20 33 -27 47 -9 10 15 13 14 26 -12 38 -72 144 -78 186 -10 19 32 94 218 89 222 -2 1 -13 5 -24 9 -20 6 -25 -3 -59 -91 -44 -113 -73 -148 -113 -139 -35 9 -72 50 -72 81 0 25 57 183 71 199 6 6 9 3 9 -7 0 -9 5 -17 10 -17 17 0 243 50 248 55 4 4 66 -87 91 -134 11 -19 8 -22 -29 -37 -35 -14 -40 -20 -40 -49 l0 -33 93 -6 c50 -3 164 -9 252 -13 153 -8 160 -9 163 -29 3 -19 -11 -27 -112 -64 l-115 -42 23 -61 c13 -34 45 -122 72 -195 47 -128 50 -132 74 -126 14 3 26 7 28 9 2 1 -26 80 -61 174 -36 94 -61 173 -57 176 13 8 147 55 158 55 6 0 13 -19 17 -42 4 -24 16 -60 27 -82 11 -21 15 -35 8 -31 -15 9 -70 -4 -70 -18 0 -8 17 -11 53 -9 41 3 58 -1 77 -16 21 -17 22 -22 11 -36 -8 -10 -29 -16 -55 -16 -83 0 -113 -59 -53 -104 23 -17 43 -21 99 -21 49 0 73 4 76 13 3 10 -7 11 -45 6 -61 -8 -123 15 -123 45 0 21 9 25 83 35 64 8 85 40 51 77 -14 16 -14 18 8 24 13 4 38 21 56 38 25 24 32 27 32 14 0 -11 8 -17 25 -17 30 0 30 -5 4 120 -12 55 -20 102 -18 103 2 2 76 0 164 -5 87 -4 161 -6 163 -4 2 2 -16 22 -40 45 l-43 40 -135 3 c-74 1 -148 1 -165 0 -27 -1 -37 8 -101 96 -60 82 -68 98 -52 100 17 3 418 -76 427 -84 2 -2 -10 -11 -28 -21 -33 -19 -39 -34 -18 -51 10 -9 26 -3 66 24 46 31 57 34 96 29 48 -8 81 -35 71 -60 -3 -8 7 -48 23 -88 16 -39 28 -73 27 -74 -1 -2 -16 2 -32 9 -40 15 -80 4 -115 -32 -39 -38 -38 -79 6 -186 l34 -86 -24 -36 c-33 -48 -32 -92 2 -133 69 -82 211 -104 319 -49 35 18 75 30 99 30 36 1 75 18 75 33 0 4 -20 4 -44 1 l-43 -6 5 51 c5 51 4 53 -40 95 -35 33 -46 52 -50 84 -4 24 -24 70 -48 109 l-43 67 21 17 c21 16 20 18 -89 190 -61 96 -116 173 -122 171 -6 -2 -23 -12 -39 -23 -22 -16 -37 -19 -68 -14 -22 4 -40 10 -39 13 2 20 106 217 116 220 7 2 15 -8 19 -22 5 -23 11 -26 48 -26 70 0 113 18 147 59 20 26 42 41 63 45 24 5 41 19 65 52 18 26 30 48 28 50 -2 3 -33 -2 -68 -10 -35 -9 -64 -14 -65 -13 -1 1 -14 58 -28 127 -15 69 -28 130 -31 137 -6 18 -45 3 -45 -17 0 -16 -3 -17 -39 -4 -28 9 -48 10 -72 4 -19 -6 -37 -10 -40 -10 -3 0 -21 27 -38 60 -29 54 -34 59 -53 49 -13 -7 -18 -17 -15 -29 4 -16 1 -18 -22 -14 -15 3 -45 -1 -66 -10 -44 -19 -50 -16 -41 17 7 29 47 48 105 49 28 0 41 5 41 14 0 18 -52 18 -103 -1z m38 -139 c-11 -8 -16 -20 -12 -29 5 -14 2 -15 -21 -5 -37 16 -36 16 -22 33 7 8 26 15 43 15 28 0 29 -1 12 -14z m109 -65 c-2 -14 -6 -36 -7 -48 -5 -38 -14 -36 -32 9 -14 36 -15 48 -4 81 l12 37 18 -27 c10 -15 16 -38 13 -52z m178 25 c24 -18 48 -78 48 -120 0 -50 -37 -90 -83 -90 -43 0 -72 23 -87 70 -19 58 -5 62 24 7 28 -57 33 -60 59 -40 15 11 12 19 -28 89 -39 70 -42 79 -27 88 24 14 74 12 94 -4z m-266 -81 c18 -43 18 -45 -2 -45 -18 0 -74 53 -74 69 0 6 14 11 31 11 25 0 32 -6 45 -35z m-118 -16 c26 -45 97 -85 131 -74 15 5 22 -3 36 -40 18 -45 28 -52 53 -36 11 6 10 16 -4 50 -9 23 -14 45 -10 48 3 4 6 -1 6 -10 0 -9 16 -34 35 -55 l34 -38 -120 -28 c-66 -15 -124 -25 -127 -21 -3 3 -14 26 -24 51 -12 33 -14 53 -7 71 13 36 12 42 -16 49 -21 5 -25 12 -25 40 0 45 10 43 38 -7z m-18 -221 c0 -5 -9 -8 -20 -8 -18 0 -19 3 -9 21 9 17 13 19 20 8 5 -8 9 -17 9 -21z m445 12 c-12 -20 -115 -39 -115 -21 0 6 47 19 113 30 5 0 6 -3 2 -9z m-305 -68 c0 -18 -58 -157 -66 -157 -27 0 -165 29 -169 35 -4 7 21 78 31 89 4 5 162 39 187 40 9 1 17 -2 17 -7z m-788 -64 c15 -12 100 -140 95 -144 -1 -1 -34 -15 -74 -32 l-72 -31 -36 57 c-29 46 -35 64 -31 92 9 59 75 91 118 58z m336 -199 c23 -38 42 -73 42 -77 0 -4 -87 -6 -194 -4 -152 2 -195 6 -199 16 -4 10 37 32 141 74 81 34 152 61 157 61 6 0 29 -31 53 -70z m218 -219 c19 -81 17 -98 -15 -131 -34 -34 -79 -39 -104 -11 -12 13 -57 169 -57 198 0 3 37 4 82 2 l82 -3 12 -55z m501 -35 c17 -12 100 -192 91 -200 -2 -1 -28 -5 -59 -7 l-57 -4 -42 68 c-23 37 -46 68 -51 68 -20 0 -8 49 17 69 31 25 71 27 101 6z m98 -255 c-3 -5 -21 -10 -40 -10 -19 0 -37 5 -40 10 -4 6 12 10 40 10 28 0 44 -4 40 -10z m114 -66 c29 -37 26 -70 -7 -104 -52 -52 -128 -60 -212 -22 l-35 16 40 6 c34 5 43 3 60 -17 18 -20 23 -21 39 -10 16 12 16 16 3 47 -8 19 -19 50 -25 68 -9 29 -8 32 11 32 12 1 33 7 47 14 29 16 48 9 79 -30z m-241 24 c20 -20 14 -28 -23 -28 -19 0 -35 4 -35 8 0 12 22 32 35 32 6 0 16 -5 23 -12z m42 -68 c17 -31 3 -43 -43 -36 -45 8 -67 21 -67 42 0 10 14 14 50 14 39 0 51 -4 60 -20z"
       id="path580"
       style="fill:#ffffff" />
    <path
       d="M12283 6203 l-123 -4 0 -26 0 -26 99 5 99 5 6 -36 c3 -20 6 -102 6 -183 l0 -148 30 0 c30 0 30 1 30 53 0 111 -13 367 -19 365 -3 -1 -61 -4 -128 -5z"
       id="path582"
       style="fill:#ffffff" />
    <path
       d="M6890 5980 c-11 -7 -14 -25 -12 -76 3 -74 6 -84 28 -84 13 0 14 10 9 63 -8 74 4 93 55 82 39 -9 60 -40 60 -90 0 -41 22 -86 35 -73 4 4 4 45 0 92 -6 75 -10 86 -26 86 -11 0 -19 -5 -19 -11 0 -5 -10 -3 -22 5 -25 18 -85 21 -108 6z"
       id="path584"
       style="fill:#ffffff" />
    <path
       d="M4450 5910 c-30 -11 -60 -20 -68 -20 -7 0 -47 -22 -88 -49 -41 -28 -92 -55 -112 -62 -20 -6 -55 -21 -77 -32 -69 -36 -108 -47 -171 -47 -57 0 -87 -7 -213 -46 -33 -10 -107 -14 -281 -14 -265 0 -306 -7 -396 -72 -68 -48 -93 -64 -154 -96 -130 -68 -177 -96 -210 -127 -19 -18 -51 -41 -70 -50 -60 -31 -253 -180 -305 -237 -106 -115 -163 -189 -286 -368 -28 -41 -61 -86 -74 -100 -68 -76 -152 -242 -164 -325 -11 -76 -74 -221 -122 -280 -9 -11 -19 -33 -22 -50 -21 -122 -29 -157 -43 -190 -12 -29 -15 -72 -15 -184 1 -130 5 -161 35 -278 43 -174 48 -168 -144 -168 -98 0 -143 -4 -151 -12 -7 -7 -25 -13 -41 -13 -20 0 -45 -17 -91 -60 l-65 -60 -83 0 c-72 0 -86 -3 -96 -19 -12 -19 -97 -81 -112 -81 -4 0 -20 -13 -36 -30 -16 -16 -39 -30 -51 -30 -12 0 -27 -7 -34 -15 -7 -8 -18 -15 -25 -15 -7 0 -26 -7 -41 -15 -16 -8 -43 -15 -60 -15 -17 0 -37 -7 -44 -15 -7 -8 -28 -15 -46 -15 -19 0 -42 -4 -52 -9 -9 -5 -37 -19 -62 -31 -25 -12 -58 -30 -75 -41 -16 -10 -41 -24 -55 -29 -14 -6 -38 -18 -54 -26 -16 -8 -41 -14 -56 -14 -63 0 -119 -94 -85 -142 9 -13 15 -44 15 -75 0 -28 5 -55 10 -58 6 -3 10 -40 10 -82 0 -63 -2 -74 -14 -64 -8 7 -17 27 -20 45 -4 18 -15 41 -26 51 -20 18 -20 14 -20 -1113 l0 -1132 2085 0 2085 0 0 69 c0 69 -1 71 -49 128 -99 118 -119 132 -207 147 -105 19 -194 54 -204 80 -4 12 -21 64 -37 116 l-29 95 -51 18 c-37 14 -70 39 -127 96 l-78 79 11 51 c6 29 11 64 11 78 0 15 6 34 14 42 31 35 54 90 57 137 4 49 4 49 -29 52 -18 2 -36 10 -39 18 -3 8 -11 14 -19 14 -8 0 -14 4 -14 9 0 5 -23 17 -50 26 -76 25 -107 82 -129 235 -8 54 -8 86 0 114 20 71 102 218 153 275 76 85 195 201 206 201 14 0 166 119 231 180 29 28 65 61 79 72 14 11 85 78 158 149 74 71 152 141 175 156 23 14 68 46 99 70 31 23 60 43 65 43 4 0 18 16 31 35 24 38 52 46 52 16 0 -33 26 -44 86 -38 30 3 61 10 67 15 7 6 23 11 37 11 64 2 124 15 163 35 35 19 43 29 49 62 17 95 22 110 40 133 13 17 15 28 8 35 -13 13 -13 63 -1 71 13 7 8 110 -6 127 -6 7 -14 29 -17 48 -10 49 -35 95 -81 148 -70 81 -93 99 -142 112 -26 7 -55 19 -64 27 -8 7 -29 13 -45 13 -49 1 -107 18 -116 34 -5 9 -15 16 -22 16 -14 0 -66 54 -66 69 0 5 23 33 51 63 27 29 62 73 76 98 15 25 37 59 50 76 13 17 23 36 23 42 0 6 13 25 28 42 30 32 72 104 72 122 0 6 24 41 54 77 30 36 68 95 86 129 29 57 32 71 28 130 -5 76 -53 203 -96 254 -16 19 -27 44 -28 65 0 20 -9 41 -23 54 -21 20 -21 39 0 39 14 0 89 53 89 63 0 23 66 138 82 143 10 3 25 17 32 32 18 35 61 73 109 98 54 27 63 40 43 62 -14 16 -14 21 -1 38 9 12 14 44 15 89 0 80 -36 192 -76 236 -13 14 -24 33 -24 42 0 44 -94 139 -180 182 -78 38 -229 45 -310 15z m-256 -952 c25 -30 25 -34 9 -45 -9 -7 -24 -13 -33 -13 -9 0 -21 -5 -28 -12 -9 -9 -15 -3 -27 25 -18 44 -19 64 -2 70 31 13 56 5 81 -25z m161 -351 c32 -16 75 -61 75 -77 0 -6 7 -13 15 -16 8 -4 15 -15 15 -25 0 -11 5 -28 12 -38 10 -16 6 -25 -21 -60 -18 -23 -36 -41 -41 -41 -5 0 -55 -43 -112 -96 -57 -53 -122 -109 -145 -125 l-43 -30 0 98 c0 54 -5 147 -12 206 -10 94 -9 112 4 135 8 15 14 32 11 38 -3 9 36 31 87 48 28 9 125 -1 155 -17z m-941 -491 c67 -102 135 -271 150 -380 7 -47 7 -48 -16 -43 -13 3 -79 10 -148 17 -69 6 -161 15 -205 20 -44 4 -110 6 -146 3 -37 -3 -98 -2 -135 2 -62 6 -67 8 -49 21 10 8 24 14 31 14 13 0 144 75 153 88 3 4 38 29 78 55 74 49 136 111 181 182 33 51 53 75 63 75 4 0 23 -24 43 -54z m1223 -1068 c6 -7 13 -22 15 -33 3 -11 9 -28 13 -37 5 -13 2 -18 -9 -18 -8 0 -41 -11 -72 -25 -32 -14 -59 -23 -61 -21 -2 2 11 36 29 75 26 54 38 70 54 71 12 0 26 -6 31 -12z m-1300 -272 c-53 -48 -127 -160 -127 -192 0 -13 -5 -26 -11 -30 -14 -8 -2 67 16 103 8 16 11 45 8 82 l-5 58 68 15 c96 21 106 13 51 -36z"
       id="path586"
       style="fill:#ffffff" />
    <path
       d="M9123 5906 c4 -9 -2 -17 -14 -21 -20 -7 -26 -30 -10 -39 5 -3 14 1 21 9 20 24 34 18 102 -36 36 -29 64 -45 67 -38 2 6 -1 14 -6 18 -5 3 -41 32 -80 64 -72 59 -89 68 -80 43z"
       id="path588"
       style="fill:#ffffff" />
    <path
       d="M10148 5872 c-25 -26 -51 -57 -57 -69 -14 -28 -4 -56 20 -50 13 4 19 -2 21 -22 2 -17 9 -26 20 -25 11 1 15 -4 11 -15 -3 -9 25 14 63 51 37 37 65 70 61 74 -3 4 -28 -16 -55 -45 -50 -53 -69 -62 -78 -36 -4 9 14 37 45 72 64 72 56 86 -9 15 -45 -48 -68 -61 -83 -46 -9 10 10 41 56 91 55 59 42 64 -15 5z"
       id="path590"
       style="fill:#ffffff" />
    <path
       d="M7485 5638 c58 -11 89 -33 62 -44 -10 -3 -30 -4 -45 -1 -60 11 -76 -30 -23 -57 37 -20 121 -31 121 -17 0 6 -18 11 -43 11 -45 0 -92 24 -81 42 4 6 24 7 48 4 22 -3 47 -2 55 3 37 24 -35 72 -106 70 -37 -1 -36 -2 12 -11z"
       id="path592"
       style="fill:#ffffff" />
    <path
       d="M10917 5554 c-4 -4 -7 -16 -7 -26 0 -37 35 -72 107 -105 71 -33 112 -71 98 -93 -8 -13 -56 -5 -99 17 -22 12 -27 12 -24 1 10 -32 124 -65 153 -44 16 11 16 15 2 42 -22 43 -55 70 -119 98 -96 43 -117 108 -23 75 53 -19 61 -5 9 17 -47 20 -87 27 -97 18z"
       id="path594"
       style="fill:#ffffff" />
    <path
       d="M7509 5407 c-24 -18 -46 -42 -48 -52 -3 -15 4 -13 33 13 45 39 66 41 66 6 0 -17 -17 -43 -55 -81 -104 -106 -99 -221 7 -149 44 29 58 20 58 -39 0 -44 22 -87 34 -66 4 6 4 43 0 82 -6 64 -9 70 -27 65 -15 -4 -17 -2 -8 7 6 6 11 18 11 26 0 12 -3 11 -18 -2 -10 -10 -33 -17 -50 -17 -18 0 -32 -4 -32 -10 0 -5 10 -10 23 -10 18 0 19 -2 7 -10 -28 -18 -50 -12 -50 15 0 17 19 46 60 90 60 64 74 93 68 136 -5 35 -30 34 -79 -4z"
       id="path596"
       style="fill:#ffffff" />
    <path
       d="M7775 5283 c4 -37 9 -75 11 -84 3 -13 -7 -19 -43 -28 -125 -31 -128 -32 -110 -43 10 -5 32 -6 50 -3 30 6 31 6 13 -8 -19 -14 -19 -15 12 -31 18 -9 32 -18 32 -19 0 -2 -11 -18 -25 -37 -17 -24 -22 -37 -15 -44 8 -8 21 1 43 28 l33 39 39 -20 c38 -19 65 -21 65 -4 0 5 -18 16 -40 26 -22 10 -40 21 -40 25 0 4 29 44 65 90 48 61 62 86 53 92 -9 5 -25 -6 -49 -34 -20 -22 -38 -37 -41 -32 -3 5 -9 36 -13 70 -5 45 -12 63 -27 73 -19 12 -20 11 -13 -56z m25 -140 c0 -12 -33 -43 -46 -43 -26 0 -24 19 3 34 31 17 43 19 43 9z"
       id="path598"
       style="fill:#ffffff" />
    <path
       d="M10393 5233 c4 -6 20 -16 37 -23 34 -14 40 -30 11 -30 -27 0 -71 -38 -71 -61 0 -25 23 -71 45 -89 14 -11 13 -15 -12 -31 -83 -55 -103 -62 -122 -45 -29 27 -99 20 -150 -13 l-44 -30 -74 60 c-40 33 -73 66 -73 73 0 8 7 33 15 56 14 39 14 45 -1 62 -10 10 -21 18 -25 18 -4 0 -40 -98 -78 -217 l-71 -218 27 -22 c24 -19 30 -21 48 -9 45 29 284 166 289 166 3 0 6 -13 6 -30 0 -47 26 -38 34 12 4 25 17 51 32 65 30 27 37 28 58 7 13 -12 15 -27 10 -70 -6 -44 -4 -54 8 -54 11 0 17 15 22 52 8 61 20 78 51 78 38 0 54 -29 46 -83 -8 -46 -1 -64 18 -53 4 3 11 29 15 58 11 79 58 122 111 102 14 -6 14 -9 -5 -29 -12 -13 -17 -25 -12 -29 5 -3 20 6 32 19 21 22 32 25 97 25 103 0 143 23 143 82 0 11 30 54 66 96 l65 77 -83 17 c-80 16 -115 15 -87 -3 8 -4 37 -11 66 -15 60 -7 60 -7 -4 -78 l-42 -48 -23 22 c-37 35 -95 60 -172 76 -39 8 -85 24 -103 34 -37 22 -109 38 -100 23z m264 -101 c96 -50 111 -137 27 -158 -31 -8 -107 3 -156 23 -78 31 -114 113 -65 148 31 23 138 15 194 -13z m-188 -141 c12 -8 12 -12 3 -24 -16 -18 -56 -27 -74 -15 -10 6 -8 13 11 28 26 22 39 24 60 11z m-486 -57 c32 -26 57 -48 55 -49 -15 -14 -188 -113 -188 -108 0 15 65 203 70 203 3 0 31 -21 63 -46z"
       id="path600"
       style="fill:#ffffff" />
    <path
       d="M9205 5110 c-10 -11 -24 -20 -32 -20 -7 0 -13 -6 -13 -14 0 -7 -7 -19 -15 -26 -11 -9 -19 -8 -37 4 -29 20 -82 21 -102 0 -10 -10 -16 -33 -16 -65 0 -27 -1 -52 -2 -56 -2 -4 5 -9 15 -11 14 -3 17 4 17 50 0 58 12 78 45 78 36 0 55 -31 55 -88 0 -40 4 -52 15 -52 11 0 15 12 15 48 0 27 6 56 13 66 12 16 14 16 26 2 11 -13 17 -14 28 -4 21 17 33 -6 33 -69 0 -40 4 -53 15 -53 11 0 15 11 15 38 0 20 3 55 7 76 6 37 5 39 -17 33 -20 -5 -80 16 -80 28 0 2 12 16 27 30 15 14 23 25 17 25 -6 0 -19 -9 -29 -20z"
       id="path602"
       style="fill:#ffffff" />
    <path
       d="M11807 4974 c-4 -64 -4 -121 -1 -125 7 -12 64 -11 64 0 0 6 21 0 48 -11 67 -31 189 -32 229 -2 79 59 12 143 -128 163 -35 4 -68 7 -74 6 -5 -2 -23 -6 -40 -8 -30 -5 -30 -5 -30 41 0 45 -1 47 -31 50 l-31 3 -6 -117z m224 -4 c50 -14 83 -52 75 -85 -16 -63 -170 -59 -219 6 -47 64 35 109 144 79z"
       id="path604"
       style="fill:#ffffff" />
    <path
       d="M9290 4901 c0 -5 16 -15 35 -22 36 -13 47 -29 20 -29 -22 0 -30 -27 -14 -47 38 -45 163 -71 176 -35 4 9 11 20 17 24 15 10 14 10 -113 67 -128 57 -121 54 -121 42z m160 -81 c52 -27 53 -50 3 -50 -37 0 -103 31 -103 48 0 28 47 29 100 2z"
       id="path606"
       style="fill:#ffffff" />
    <path
       d="M9100 4607 c0 -20 -7 -28 -37 -38 -41 -13 -118 -80 -139 -120 -21 -41 -17 -66 11 -85 22 -14 32 -15 63 -6 99 30 192 168 138 204 -6 4 -11 19 -11 34 0 15 -6 29 -12 31 -8 3 -13 -5 -13 -20z m20 -72 c30 -36 -78 -155 -140 -155 -16 0 -32 5 -35 11 -26 41 79 159 141 159 12 0 27 -7 34 -15z"
       id="path608"
       style="fill:#ffffff" />
    <path
       d="M9417 4332 c-85 -85 -103 -110 -71 -98 8 3 12 2 9 -4 -3 -5 3 -13 12 -19 27 -14 71 9 116 58 44 49 45 75 3 79 l-28 4 33 34 c18 19 29 34 23 34 -5 0 -49 -39 -97 -88z m73 -18 c0 -23 -64 -84 -88 -84 -35 0 -34 18 4 60 38 42 84 55 84 24z"
       id="path610"
       style="fill:#ffffff" />
  </g>
</svg>
