<?xml version="1.0" encoding="UTF-8" standalone="no"?>
<!-- Created with Inkscape (http://www.inkscape.org/) -->

<svg
   version="1.1"
   id="svg2"
   width="235.3"
   height="233.3"
   viewBox="0 0 235.30001 233.30001"
   sodipodi:docname="2.svg"
   inkscape:version="1.2.2 (b0a8486541, 2022-12-01)"
   xmlns:inkscape="http://www.inkscape.org/namespaces/inkscape"
   xmlns:sodipodi="http://sodipodi.sourceforge.net/DTD/sodipodi-0.dtd"
   xmlns="http://www.w3.org/2000/svg"
   xmlns:svg="http://www.w3.org/2000/svg">
  <defs
     id="defs6" />
  <sodipodi:namedview
     id="namedview4"
     pagecolor="#ffffff"
     bordercolor="#000000"
     borderopacity="0.25"
     inkscape:showpageshadow="2"
     inkscape:pageopacity="0.0"
     inkscape:pagecheckerboard="0"
     inkscape:deskcolor="#d1d1d1"
     showgrid="false"
     inkscape:zoom="0.78327174"
     inkscape:cx="284.70324"
     inkscape:cy="173.63067"
     inkscape:window-width="1366"
     inkscape:window-height="745"
     inkscape:window-x="-8"
     inkscape:window-y="-8"
     inkscape:window-maximized="1"
     inkscape:current-layer="g8" />
  <g
     inkscape:groupmode="layer"
     inkscape:label="Image"
     id="g8">
    <path
       style="fill:#000080;stroke:#000000;stroke-width:1.2767;stroke-opacity:1"
       d="m 0.72048926,195.00988 c 0.57777944,-30.19463 1.10618884,-38.398 2.66792724,-41.41805 3.5276164,-6.82169 4.6718552,-7.06788 13.4831065,-2.90078 19.13773,9.05073 41.626987,1.72171 51.053737,-16.6379 9.663011,-18.81974 2.797928,-42.174181 -15.345314,-52.203535 -6.569433,-3.631511 -8.183501,-3.971112 -18.873691,-3.971112 -9.938479,0 -12.633587,0.478191 -17.988481,3.191732 -3.464227,1.755471 -6.880533,3.191741 -7.5917823,3.191741 -0.7112593,0 -2.5474374,-2.441671 -4.0804058,-5.425962 C 1.4196185,73.723982 1.2235587,71.286541 0.65670933,36.705026 L 0.05504994,0 H 117.24067 234.42629 l -0.72506,36.859166 c -0.67185,34.153865 -0.92246,37.246096 -3.41455,42.130998 -1.4792,2.899491 -3.2714,5.271812 -3.98267,5.271812 -0.71124,0 -4.12755,-1.43627 -7.59177,-3.191741 -5.35491,-2.713541 -8.05003,-3.191732 -17.9885,-3.191732 -10.69018,0 -12.30424,0.339601 -18.87368,3.971112 -23.47688,12.977716 -26.49535,45.620365 -5.9071,63.881285 10.09692,8.95555 28.31325,11.56582 39.93915,5.72301 10.83068,-5.44317 11.31217,-5.42361 14.37715,0.58431 2.5494,4.9972 2.77813,7.84686 3.45057,42.98788 l 0.72017,37.6359 -38.18039,-0.56933 c -33.92345,-0.50586 -38.71417,-0.83382 -42.96799,-2.94145 -2.63317,-1.30467 -4.77719,-3.27112 -4.76446,-4.36988 0.0128,-1.09878 1.73625,-5.10576 3.83008,-8.9044 3.25552,-5.90623 3.80695,-8.2693 3.80695,-16.31429 0,-7.86682 -0.60898,-10.60404 -3.7182,-16.71226 -4.41694,-8.67734 -11.58462,-15.9499 -18.60138,-18.87358 -2.79628,-1.16514 -9.49474,-2.42073 -14.88541,-2.79022 -9.04858,-0.62021 -10.42287,-0.37055 -17.89632,3.25105 -10.503323,5.0899 -14.086709,8.5018 -18.859874,17.95741 -3.339847,6.61621 -3.917196,9.17944 -3.917196,17.39092 0,8.41242 0.501129,10.51892 3.960716,16.64898 2.178398,3.85992 3.644236,7.84277 3.257416,8.8508 -0.386809,1.00802 -2.600017,2.83759 -4.918234,4.06569 -3.667297,1.9428 -9.175761,2.30294 -42.395327,2.77175 L 0,232.662 Z"
       id="path593" />
  </g>
</svg>
