<?xml version="1.0" encoding="UTF-8" standalone="no"?>
<!-- Created with Inkscape (http://www.inkscape.org/) -->

<svg
   version="1.1"
   id="svg2"
   width="302.577"
   height="302.73599"
   viewBox="0 0 302.577 302.736"
   sodipodi:docname="3.svg"
   inkscape:version="1.2.2 (b0a8486541, 2022-12-01)"
   xmlns:inkscape="http://www.inkscape.org/namespaces/inkscape"
   xmlns:sodipodi="http://sodipodi.sourceforge.net/DTD/sodipodi-0.dtd"
   xmlns="http://www.w3.org/2000/svg"
   xmlns:svg="http://www.w3.org/2000/svg">
  <defs
     id="defs6" />
  <sodipodi:namedview
     id="namedview4"
     pagecolor="#ffffff"
     bordercolor="#000000"
     borderopacity="0.25"
     inkscape:showpageshadow="2"
     inkscape:pageopacity="0.0"
     inkscape:pagecheckerboard="0"
     inkscape:deskcolor="#d1d1d1"
     showgrid="false"
     inkscape:zoom="0.55385676"
     inkscape:cx="261.80054"
     inkscape:cy="290.68888"
     inkscape:window-width="1366"
     inkscape:window-height="745"
     inkscape:window-x="-8"
     inkscape:window-y="-8"
     inkscape:window-maximized="1"
     inkscape:current-layer="g8" />
  <g
     inkscape:groupmode="layer"
     inkscape:label="Image"
     id="g8">
    <path
       style="fill:#800080;stroke:#000000;stroke-width:1.2767;stroke-opacity:1"
       d="m 173.06503,299.96373 c -6.79556,-3.39033 -10.49951,-7.03042 -14.87865,-14.62214 -4.70164,-8.15081 -4.81055,-15.29144 -0.42679,-27.98578 4.27872,-12.39021 3.84565,-17.04821 -1.89563,-20.38884 -4.52105,-2.6306 -9.979,-3.07073 -66.66079,-5.37558 L 70.52552,230.83191 69.63615,194.25195 C 69.147,174.13296 68.20099,155.54367 67.53391,152.94242 65.91137,146.61537 60.5748,140.43658 56.73272,140.43658 c -1.67476,0 -7.38378,1.72354 -12.68671,3.83009 -10.97105,4.35817 -14.40724,4.63874 -22.60425,1.84574 C 8.00186,141.53298 0,130.20663 0,115.76235 0,102.0258 6.98718,90.910128 18.69741,86.017288 c 6.62216,-2.76692 17.85893,-2.15041 26.6253,1.46079 10.04629,4.13846 15.02579,4.11776 18.32475,-0.0762 4.38257,-5.57153 5.29413,-14.47637 5.29413,-51.717226 V 0 H 185.75928 302.57697 V 116.17935 232.3587 h -36.9763 c -34.28652,0 -37.49095,0.19255 -44.05122,2.64708 -3.89122,1.45589 -7.64711,3.71617 -8.34643,5.02285 -2.01069,3.75702 -1.48998,10.72012 1.25388,16.76706 3.01003,6.6335 3.46083,20.78424 0.85986,26.99104 -6.51094,15.53726 -27.45839,23.55745 -42.25173,16.177 z"
       id="path1011" />
  </g>
</svg>
