<?xml version="1.0" encoding="UTF-8" standalone="no"?>
<!-- Created with Inkscape (http://www.inkscape.org/) -->

<svg
   version="1.1"
   id="svg2"
   width="234.91499"
   height="235.02699"
   viewBox="0 0 234.915 235.027"
   sodipodi:docname="4.svg"
   inkscape:version="1.2.2 (b0a8486541, 2022-12-01)"
   xmlns:inkscape="http://www.inkscape.org/namespaces/inkscape"
   xmlns:sodipodi="http://sodipodi.sourceforge.net/DTD/sodipodi-0.dtd"
   xmlns="http://www.w3.org/2000/svg"
   xmlns:svg="http://www.w3.org/2000/svg">
  <defs
     id="defs6" />
  <sodipodi:namedview
     id="namedview4"
     pagecolor="#ffffff"
     bordercolor="#000000"
     borderopacity="0.25"
     inkscape:showpageshadow="2"
     inkscape:pageopacity="0.0"
     inkscape:pagecheckerboard="0"
     inkscape:deskcolor="#d1d1d1"
     showgrid="false"
     inkscape:zoom="0.55385676"
     inkscape:cx="184.16314"
     inkscape:cy="330.41034"
     inkscape:window-width="1366"
     inkscape:window-height="745"
     inkscape:window-x="-8"
     inkscape:window-y="-8"
     inkscape:window-maximized="1"
     inkscape:current-layer="g8" />
  <g
     inkscape:groupmode="layer"
     inkscape:label="Image"
     id="g8">
    <path
       style="fill:#800000;stroke:#000000;stroke-width:1.2767;stroke-opacity:1"
       d="M 4.9999971e-4,117.15217 0.0011,0.5683 37.982778,0.97282 c 32.953481,0.35097 38.510578,0.69405 41.976276,2.59152 2.196999,1.20285 4.298597,2.97928 4.670197,3.94762 0.3716,0.96834 -0.995099,4.81572 -3.037098,8.54972 -3.263998,5.96878 -3.712598,8.0825 -3.712598,17.49359 0,9.96665 0.3163,11.2506 4.588997,18.62729 5.507197,9.50826 12.558088,15.08293 22.896078,18.10235 19.45569,5.68243 41.11148,-4.80411 47.38688,-22.94651 3.27369,-9.46422 2.5791,-22.35432 -1.7012,-31.57157 -3.2034,-6.89828 -3.274,-7.44982 -1.2411,-9.69613 4.0249,-4.44739 10.76479,-5.24668 47.76048,-5.66393 L 233.63634,0 l -0.0221,26.86094 c -0.0331,40.24311 -2.60397,58.14 -8.35162,58.14 -1.05858,0 -4.75907,-1.43629 -8.22329,-3.19175 -8.91274,-4.51643 -23.80892,-4.54804 -33.47686,-0.071 -9.32285,4.3172 -12.84613,7.73959 -17.45058,16.95085 -3.45707,6.91588 -3.97047,9.27303 -3.97047,18.22933 0,8.94294 0.5116,11.29986 3.91721,18.04633 4.55038,9.01425 8.22964,12.62221 17.38838,17.05139 5.39707,2.61001 8.53627,3.20316 16.95262,3.20316 8.9395,0 11.34975,-0.51525 17.91639,-3.83009 4.17305,-2.10654 7.80375,-3.83008 8.06822,-3.83008 0.26446,0 1.42069,2.15442 2.56939,4.78761 3.24651,7.4421 4.68266,23.97196 4.68356,53.90692 l 8.1e-4,27.48245 -36.06746,-0.32913 c -37.03094,-0.33791 -43.66643,-1.11614 -47.72143,-5.59688 -1.9805,-2.18846 -1.8894,-2.84193 1.4271,-10.23193 3.0813,-6.86607 3.5113,-9.31768 3.3018,-18.82463 -0.214,-9.70941 -0.6765,-11.64626 -4.1401,-17.33797 -9.6113,-15.79428 -27.70299,-23.01285 -45.04288,-17.97202 -10.16269,2.95438 -17.436381,8.73189 -22.926478,18.21064 -4.234197,7.31037 -4.588997,8.71949 -4.588997,18.22933 0,8.84191 0.5276,11.35162 3.712498,17.66086 4.374897,8.6667 3.837798,10.46774 -3.988898,13.37539 -4.414997,1.64021 -12.417993,2.10727 -41.535976,2.42402 L 0,233.73603 Z"
       id="path1644" />
  </g>
</svg>
