<?xml version="1.0" encoding="UTF-8" standalone="no"?>
<!-- Created with Inkscape (http://www.inkscape.org/) -->

<svg
   version="1.1"
   id="svg2"
   width="377.65201"
   height="377.487"
   viewBox="0 0 377.65202 377.48701"
   sodipodi:docname="4.svg.2023_02_01_21_26_55.0.svg"
   inkscape:version="1.2.2 (b0a8486541, 2022-12-01)"
   xmlns:inkscape="http://www.inkscape.org/namespaces/inkscape"
   xmlns:sodipodi="http://sodipodi.sourceforge.net/DTD/sodipodi-0.dtd"
   xmlns:xlink="http://www.w3.org/1999/xlink"
   xmlns="http://www.w3.org/2000/svg"
   xmlns:svg="http://www.w3.org/2000/svg">
  <defs
     id="defs6">
    <linearGradient
       inkscape:collect="always"
       id="linearGradient15069">
      <stop
         style="stop-color:#000000;stop-opacity:1;"
         offset="0"
         id="stop15065" />
      <stop
         style="stop-color:#000000;stop-opacity:0;"
         offset="1"
         id="stop15067" />
    </linearGradient>
    <linearGradient
       inkscape:collect="always"
       xlink:href="#linearGradient15069"
       id="linearGradient15071"
       x1="1.0697306e-08"
       y1="188.10339"
       x2="376.39499"
       y2="188.10339"
       gradientUnits="userSpaceOnUse" />
  </defs>
  <sodipodi:namedview
     id="namedview4"
     pagecolor="#ffffff"
     bordercolor="#000000"
     borderopacity="0.25"
     inkscape:showpageshadow="2"
     inkscape:pageopacity="0.0"
     inkscape:pagecheckerboard="0"
     inkscape:deskcolor="#d1d1d1"
     showgrid="false"
     inkscape:zoom="0.55385676"
     inkscape:cx="161.59413"
     inkscape:cy="332.21586"
     inkscape:window-width="1366"
     inkscape:window-height="745"
     inkscape:window-x="-8"
     inkscape:window-y="-8"
     inkscape:window-maximized="1"
     inkscape:current-layer="g8" />
  <g
     inkscape:groupmode="layer"
     inkscape:label="Image"
     id="g8">
    <path
       style="fill:#ff5555;stroke:url(#linearGradient15071);stroke-width:1.2767"
       d="m 175.27448,373.06026 c -18.23975,-8.74565 -24.53613,-26.39383 -15.91684,-44.61347 4.25912,-9.00299 4.45428,-10.2025 2.39527,-14.72156 -2.71004,-5.94788 -11.95047,-8.46351 -31.08828,-8.46351 -9.27369,0 -26.43247,-0.37748 -38.130632,-0.83884 l -21.26939,-0.83884 v -37.43376 -37.43376 l -3.43017,-6.99398 c -5.05804,-10.31315 -7.80934,-11.03254 -20.23586,-5.29114 -12.33205,5.69776 -17.40472,5.81411 -28.23024,0.64758 -18.41704049,-8.78966 -24.7350405,-29.00984 -14.4398005,-46.21334 3.24252,-5.41828 5.6547205,-7.58245 12.7806605,-11.46645 11.44272,-6.23688 16.72474,-6.30167 29.57858,-0.36282 12.30932,5.68726 15.65537,4.82561 20.62718,-5.31171 l 3.34965,-6.82983 V 109.45851 72.022187 l 17.43726,-0.83628 c 9.59048,-0.45995 26.671152,-0.83628 37.957042,-0.83628 18.07702,0 21.30626,-0.32597 27.12643,-2.7383 6.33118,-2.62413 9.40139,-6.13916 9.40139,-10.76348 0,-1.04026 -1.72354,-5.3057 -3.83008,-9.47875 -8.25183,-16.34676 -2.53667,-34.90667 13.45562,-43.69702 12.22467,-6.71942 29.47313,-3.97141 39.13283,6.23461 9.31986,9.84696 11.08685,23.30197 4.86287,37.02869 -2.10655,4.64589 -3.83009,9.20235 -3.83009,10.12546 0,4.41837 3.22734,8.12166 9.26425,10.63048 5.63,2.33972 9.0156,2.65894 28.24936,2.66349 12.01902,0.003 29.17781,0.37877 38.13064,0.83537 l 16.27787,0.8302 v 37.437223 37.43723 l 3.34966,6.82983 c 4.94384,10.08028 8.16895,10.91003 20.52303,5.28009 5.30211,-2.41625 11.70368,-4.39317 14.22573,-4.39317 10.76478,0 22.09754,7.27396 29.72834,19.08122 3.07141,4.75245 3.66823,7.01205 3.66823,13.88824 0,6.75076 -0.66872,9.38114 -3.75737,14.77955 -4.87052,8.51277 -8.01203,11.32326 -17.1478,15.34095 -9.99402,4.3951 -15.1321,4.18453 -26.71713,-1.09494 -12.35408,-5.62993 -15.57919,-4.80018 -20.52303,5.2801 L 304.9,228.71652 v 37.43376 37.43376 l -21.26938,0.83884 c -11.69817,0.46136 -28.85695,0.83884 -38.13064,0.83884 -19.1378,0 -28.37824,2.51563 -31.08828,8.46351 -2.05902,4.51906 -1.86385,5.71857 2.39526,14.72156 6.27997,13.27472 4.82081,25.57697 -4.21574,35.54295 -6.52637,7.19763 -13.56048,10.90429 -22.63472,11.92747 -6.10874,0.68882 -8.09179,0.30294 -14.68202,-2.85695 z"
       id="path1082" />
  </g>
</svg>
