<?xml version="1.0" encoding="UTF-8" standalone="no"?>
<!-- Created with Inkscape (http://www.inkscape.org/) -->

<svg
   width="61.817001mm"
   height="61.483002mm"
   viewBox="0 0 61.817001 61.483002"
   version="1.1"
   id="svg2286"
   inkscape:version="1.2.2 (b0a8486541, 2022-12-01)"
   sodipodi:docname="6.svg"
   xmlns:inkscape="http://www.inkscape.org/namespaces/inkscape"
   xmlns:sodipodi="http://sodipodi.sourceforge.net/DTD/sodipodi-0.dtd"
   xmlns="http://www.w3.org/2000/svg"
   xmlns:svg="http://www.w3.org/2000/svg">
  <sodipodi:namedview
     id="namedview2288"
     pagecolor="#ffffff"
     bordercolor="#000000"
     borderopacity="0.25"
     inkscape:showpageshadow="2"
     inkscape:pageopacity="0.0"
     inkscape:pagecheckerboard="0"
     inkscape:deskcolor="#d1d1d1"
     inkscape:document-units="mm"
     showgrid="false"
     inkscape:zoom="0.25166597"
     inkscape:cx="433.11379"
     inkscape:cy="671.52505"
     inkscape:window-width="1366"
     inkscape:window-height="745"
     inkscape:window-x="-8"
     inkscape:window-y="-8"
     inkscape:window-maximized="1"
     inkscape:current-layer="layer1" />
  <defs
     id="defs2283" />
  <g
     inkscape:label="Layer 1"
     inkscape:groupmode="layer"
     id="layer1">
    <path
       style="fill:#241f1c;stroke-width:0.337794"
       d="m 0.00293,54.580084 c 0.004,-9.52888 0.53413,-13.93157 1.86403,-15.47612 0.0505,-0.0586 1.01484,0.3594 2.14306,0.92893 3.77054,1.90336 8.83977,1.28078 11.92795,-1.46495 0.49823,-0.44298 1.37227,-1.72934 1.9423,-2.85857 0.90107,-1.78501 1.03643,-2.40861 1.03643,-4.77476 0,-2.36616 -0.13536,-2.98976 -1.03643,-4.774764 -1.20395,-2.38502 -2.17743,-3.33963 -4.60068,-4.51151 -2.50458,-1.21122 -6.50102,-1.21258 -8.88797,-0.003 -0.91657,0.46447 -1.89566,0.84449 -2.17575,0.84449 -1.52974,0 -2.21555,-4.6544 -2.21555,-15.03622 V 0 l 9.54264,0.10762 c 9.79947,0.11052 11.57127,0.32138 12.64192,1.50444 0.54504,0.60226 0.52736,0.73442 -0.33291,2.48847 -0.75017,1.52958 -0.90851,2.31162 -0.90851,4.48711 0,3.27688 0.64225,5.21233 2.33557,7.03828 4.92302,5.30864 13.29726,4.27704 16.88496,-2.08001 0.93029,-1.64838 1.04702,-2.15813 1.04702,-4.5723 0,-2.33601 -0.13944,-2.9933 -0.99416,-4.68649 C 38.36199,0.61265 39.40444,0.25699 52.442609,0.11604 l 9.37374,-0.10133 2.6e-4,30.913974 2.7e-4,30.91397 -9.37401,-0.0839 c -9.620839,-0.0862 -11.444029,-0.29713 -12.605619,-1.45872 -0.65409,-0.65409 -0.65118,-0.67588 0.35715,-2.67335 0.86622,-1.71597 1.01802,-2.4026 1.02614,-4.64142 0.008,-2.31064 -0.11975,-2.87196 -1.06247,-4.65428 -2.7058,-5.11565 -8.82746,-6.94416 -14.11852,-4.21714 -3.52038,1.81442 -5.09609,4.64942 -5.09609,9.16883 0,2.17958 0.15539,2.97777 0.84448,4.33761 0.46446,0.91657 0.84448,1.89245 0.84448,2.16861 0,0.27616 -0.67175,0.79926 -1.49279,1.16244 -1.34661,0.59567 -2.45472,0.67165 -11.31621,0.77584 L 0,61.842684 Z"
       id="path1153" />
  </g>
</svg>
