<?xml version="1.0" encoding="UTF-8" standalone="no"?>
<!-- Created with Inkscape (http://www.inkscape.org/) -->

<svg
   width="62.025002mm"
   height="61.816002mm"
   viewBox="0 0 62.025001 61.816002"
   version="1.1"
   id="svg2286"
   inkscape:version="1.2.2 (b0a8486541, 2022-12-01)"
   sodipodi:docname="8.svg"
   xmlns:inkscape="http://www.inkscape.org/namespaces/inkscape"
   xmlns:sodipodi="http://sodipodi.sourceforge.net/DTD/sodipodi-0.dtd"
   xmlns="http://www.w3.org/2000/svg"
   xmlns:svg="http://www.w3.org/2000/svg">
  <sodipodi:namedview
     id="namedview2288"
     pagecolor="#ffffff"
     bordercolor="#000000"
     borderopacity="0.25"
     inkscape:showpageshadow="2"
     inkscape:pageopacity="0.0"
     inkscape:pagecheckerboard="0"
     inkscape:deskcolor="#d1d1d1"
     inkscape:document-units="mm"
     showgrid="false"
     inkscape:zoom="0.25166597"
     inkscape:cx="784.7704"
     inkscape:cy="667.55153"
     inkscape:window-width="1366"
     inkscape:window-height="745"
     inkscape:window-x="-8"
     inkscape:window-y="-8"
     inkscape:window-maximized="1"
     inkscape:current-layer="layer1" />
  <defs
     id="defs2283" />
  <g
     inkscape:label="Layer 1"
     inkscape:groupmode="layer"
     id="layer1">
    <path
       style="fill:#2b0000;stroke-width:0.337793"
       d="m 0.17893882,52.092339 c 0.16306892,-9.0928 0.22149853,-9.81603 0.90058408,-11.14716 0.3994073,-0.7829 0.8801641,-1.42347 1.0683529,-1.42347 0.1881788,0 1.0920728,0.38002 2.0086467,0.84448 1.4147407,0.71691 2.1310659,0.84448 4.7417387,0.84448 2.8170218,0 3.2363288,-0.0892 4.9936368,-1.06278 4.915098,-2.72295 6.725246,-9.17372 3.924524,-13.985709 C 15.006571,21.33452 9.5537168,19.60504 4.4557605,21.92458 2.0925462,22.99983 1.8051181,22.93935 0.8926541,21.17483 0.47640685,20.36988 0.33905776,18.20932 0.18782876,10.08753 L 0,0 7.0606633,0.0161 C 17.108157,0.039 22.7449,0.87302 22.72923,2.3343 c -0.003,0.2953 -0.456597,1.29694 -1.007614,2.22588 -0.861874,1.45297 -1.002653,2.03265 -1.007613,4.1488 -0.006,2.70551 0.430797,4.06852 2.117566,6.60271 0.834615,1.25391 1.611029,1.89838 3.357338,2.78679 1.991607,1.01319 2.586193,1.15566 4.823138,1.15566 2.176306,0 2.853401,-0.1524 4.60464,-1.03642 2.413444,-1.21831 3.302898,-2.13895 4.680389,-4.84444 1.43864,-2.82562 1.43967,-5.79817 0.003,-8.64421 C 39.742717,3.62495 39.2867,2.51364 39.2867,2.25948 c 0,-1.3848 5.841862,-2.22091 15.674317,-2.24338 L 62.02169,0 61.833941,10.08319 c -0.174949,9.39549 -0.236518,10.1788 -0.902864,11.48494 -0.393307,0.77096 -0.793075,1.40175 -0.888374,1.40175 -0.0953,0 -0.890634,-0.36353 -1.767428,-0.80783 -2.297565,-1.16428 -6.191029,-1.48262 -8.572074,-0.70088 -3.476337,1.14134 -6.274298,4.65644 -6.746475,8.475629 -0.506617,4.09778 1.58781,8.25107 5.155376,10.22318 1.738158,0.96084 2.165206,1.05069 4.993637,1.05069 2.651422,0 3.337308,-0.12383 4.804848,-0.8675 3.347618,-1.69637 3.575227,-1.0137 3.878465,11.63281 L 62.025,61.816009 H 31.014785 0.00455997 Z"
       id="path1364" />
  </g>
</svg>
