<?xml version="1.0" encoding="UTF-8" standalone="no"?>
<!-- Created with Inkscape (http://www.inkscape.org/) -->

<svg
   width="80.454002mm"
   height="80.402mm"
   viewBox="0 0 80.454002 80.402001"
   version="1.1"
   id="svg2286"
   inkscape:version="1.2.2 (b0a8486541, 2022-12-01)"
   sodipodi:docname="9.svg"
   xmlns:inkscape="http://www.inkscape.org/namespaces/inkscape"
   xmlns:sodipodi="http://sodipodi.sourceforge.net/DTD/sodipodi-0.dtd"
   xmlns="http://www.w3.org/2000/svg"
   xmlns:svg="http://www.w3.org/2000/svg">
  <sodipodi:namedview
     id="namedview2288"
     pagecolor="#ffffff"
     bordercolor="#000000"
     borderopacity="0.25"
     inkscape:showpageshadow="2"
     inkscape:pageopacity="0.0"
     inkscape:pagecheckerboard="0"
     inkscape:deskcolor="#d1d1d1"
     inkscape:document-units="mm"
     showgrid="false"
     inkscape:zoom="0.25166597"
     inkscape:cx="784.7704"
     inkscape:cy="667.55153"
     inkscape:window-width="1366"
     inkscape:window-height="745"
     inkscape:window-x="-8"
     inkscape:window-y="-8"
     inkscape:window-maximized="1"
     inkscape:current-layer="layer1" />
  <defs
     id="defs2283" />
  <g
     inkscape:label="Layer 1"
     inkscape:groupmode="layer"
     id="layer1">
    <path
       style="fill:#c87137;fill-opacity:1;stroke-width:0.337794"
       d="m 18.637866,70.828756 c 0,-10.27567 -0.21894,-12.0006 -1.72696,-13.60582 -1.01359,-1.07892 -2.24821,-1.02382 -4.6911,0.20935 -7.48074,3.77626 -15.04059,-4.17172 -11.17423,-11.74793 0.73742,-1.445 1.39565,-2.18838 2.60856,-2.94605 3.38674,-2.11559 5.60662,-2.21501 9.12564,-0.40867 2.74224,1.40762 3.62329,1.15285 4.92916,-1.42531 l 0.92893,-1.83398 v -9.88438 c 0,-5.4364 0.114,-9.95382 0.25334,-10.0387 0.13934,-0.0849 4.88955,-0.26494 10.55602,-0.40012 9.10218,-0.21713 10.44896,-0.31968 11.5581,-0.88008 2.15953,-1.0911 2.44766,-2.38192 1.11758,-5.00671 -1.67563,-3.3067005 -1.43203,-6.6216905 0.69165,-9.4121105 5.01645,-6.59138 15.34503,-3.10947996 15.34503,5.17302 0,1.6963805 -0.19863,2.6100905 -0.84448,3.8846105 -1.55601,3.07065 -0.90306,4.90963 2.02676,5.70821 0.83074,0.22644 5.15676,0.36901 11.2316,0.37017 l 9.88043,0.002 v 30.90802 30.90801 h -30.90802 -30.90801 z"
       id="path1293" />
  </g>
</svg>
