<?xml version="1.0" encoding="UTF-8" standalone="no"?>
<!-- Created with Inkscape (http://www.inkscape.org/) -->

<svg
   width="190.14799mm"
   height="190.14301mm"
   viewBox="0 0 190.14799 190.14301"
   version="1.1"
   id="svg2286"
   inkscape:version="1.2.2 (b0a8486541, 2022-12-01)"
   sodipodi:docname="Rompecabezas.svg"
   xmlns:inkscape="http://www.inkscape.org/namespaces/inkscape"
   xmlns:sodipodi="http://sodipodi.sourceforge.net/DTD/sodipodi-0.dtd"
   xmlns="http://www.w3.org/2000/svg"
   xmlns:svg="http://www.w3.org/2000/svg">
  <sodipodi:namedview
     id="namedview2288"
     pagecolor="#ffffff"
     bordercolor="#000000"
     borderopacity="0.25"
     inkscape:showpageshadow="2"
     inkscape:pageopacity="0.0"
     inkscape:pagecheckerboard="0"
     inkscape:deskcolor="#d1d1d1"
     inkscape:document-units="mm"
     showgrid="false"
     inkscape:zoom="0.25166597"
     inkscape:cx="784.7704"
     inkscape:cy="667.55153"
     inkscape:window-width="1366"
     inkscape:window-height="745"
     inkscape:window-x="-8"
     inkscape:window-y="-8"
     inkscape:window-maximized="1"
     inkscape:current-layer="layer1" />
  <defs
     id="defs2283" />
  <g
     inkscape:label="Layer 1"
     inkscape:groupmode="layer"
     id="layer1">
    <path
       style="fill:#000000;stroke-width:0.352777"
       d="M 95.07426,190.14335 H 0 L 0.0888,95.157954 0.1776,0.17254 95.16301,0.08627 190.14843,0 v 95.071684 95.071676 z m -63.32297,-1.05833 h 31.04445 v -9.63736 -9.63736 l 0.53892,-1.81475 0.53892,-1.81475 0.77429,-0.54233 0.7743,-0.54234 h 0.77446 0.77447 l 1.79568,0.90192 1.79569,0.90192 2.0406,0.0289 2.0406,0.0289 1.57652,-0.69737 1.57652,-0.69737 1.1958,-1.1958 1.19579,-1.19579 0.64458,-1.41894 0.64458,-1.41894 0.008,-2.16458 0.008,-2.16458 -0.9831,-1.89236 -0.9831,-1.89237 -1.69542,-1.14174 -1.69543,-1.14173 -1.45179,-0.39093 -1.4518,-0.39092 -1.42064,0.22717 -1.42066,0.22717 -2.05864,0.92386 -2.05865,0.92387 -0.91193,-0.32393 -0.91194,-0.32393 -0.73887,-1.41111 -0.73889,-1.4111 -0.17639,-10.40694 -0.17639,-10.40694 -10.40694,-0.17639 -10.40694,-0.17639 -1.4558,-0.77872 -1.4558,-0.77873 -0.2199,-0.57304 -0.21989,-0.57306 v -0.55333 -0.55335 l 0.96851,-1.97544 0.96851,-1.97544 -0.007,-2.11667 -0.007,-2.11666 -0.86597,-1.71236 -0.86597,-1.71236 -1.06568,-0.89983 -1.06569,-0.89982 -1.41111,-0.64327 -1.41111,-0.64326 H 31.57537 29.4587 l -1.41111,0.64453 -1.41111,0.64453 -1.19092,1.19981 -1.19092,1.1998 -0.67958,1.50364 -0.67959,1.50363 -0.0103,2.15351 -0.0103,2.15352 0.91067,1.75527 0.91066,1.75527 v 1.00016 1.00018 l -0.89625,0.705 -0.89626,0.705 -1.76694,0.37894 -1.76696,0.37894 H 10.03856 0.70732 v 31.04444 31.04445 z m 31.66089,-4.49792 0.10959,-4.67431 -0.10959,-4.6743 -0.1096,-4.6743 v 9.34861 9.34861 z m 31.48215,4.49792 h 31.09841 l -0.13988,-9.78959 -0.13988,-9.78958 -0.48045,-1.34597 -0.48044,-1.34597 -0.61149,-0.32725 -0.61149,-0.32726 -1.86514,0.96767 -1.86515,0.96767 h -2.83696 -2.83696 l -1.89768,-1.05103 -1.89769,-1.05101 -1.19702,-1.56769 -1.19702,-1.56769 -0.56425,-1.94095 -0.56425,-1.94094 0.19307,-1.87066 0.19307,-1.87067 0.9852,-1.81014 0.98521,-1.81014 1.38379,-1.18448 1.38379,-1.18447 1.76144,-0.58506 1.76144,-0.58505 2.33406,0.16823 2.33406,0.16824 1.7869,0.90703 1.7869,0.90703 0.40428,-0.24985 0.40428,-0.24987 0.6235,-1.39875 0.6235,-1.39875 0.12442,-9.96596 0.12443,-9.96597 -7.52522,0.003 -7.52521,0.003 -2.89457,0.33285 -2.89456,0.33284 -1.07419,0.55548 -1.07418,0.55549 v 0.49112 0.49112 l 0.94074,1.87297 0.94074,1.87298 -0.008,2.47753 -0.008,2.47754 -0.57505,1.35404 -0.57505,1.35403 -1.0763,1.35894 -1.0763,1.35894 -2.16004,1.07939 -2.16007,1.07909 h -2.35675 -2.35676 l -2.2008,-1.09975 -2.20081,-1.09975 -1.07264,-1.45789 -1.07264,-1.45788 -0.53795,-1.23472 -0.53795,-1.23472 -0.008,-2.54085 -0.008,-2.54085 0.94074,-1.81324 0.94075,-1.81323 v -0.48755 -0.48756 l -1.07419,-0.55547 -1.07418,-0.55549 -2.89457,-0.33285 -2.89456,-0.33284 -7.52522,-0.003 -7.52522,-0.003 0.13272,9.96598 0.13272,9.96596 0.44969,1.05769 0.44969,1.05768 0.53341,0.58941 0.53341,0.58941 2.17606,-1.02946 2.17607,-1.02945 2.14202,-2.7e-4 2.14201,-2.6e-4 1.60922,0.54831 1.60921,0.54832 1.37528,1.17719 1.37529,1.17719 0.9852,1.81014 0.9852,1.81014 0.19307,1.87067 0.19307,1.87066 -0.57519,1.97858 -0.57519,1.97859 -1.14348,1.48666 -1.14349,1.48666 -1.94028,1.09442 -1.94027,1.09441 h -2.8349 -2.83489 l -1.84586,-0.95659 -1.84586,-0.95659 -0.49531,0.19006 -0.49531,0.19007 -0.63226,1.47208 -0.63227,1.47208 -0.12977,9.78958 -0.12977,9.78959 h 31.0984 z m 31.66485,-4.30071 0.1101,-4.47709 -0.10974,-4.69513 -0.10974,-4.69513 -2.6e-4,9.17222 -2.6e-4,9.17222 0.1101,-4.47709 z m 31.48655,4.30071 h 31.04444 v -31.04445 -31.04443 h -9.64532 -9.64532 l -1.67693,-0.50468 -1.67692,-0.50468 -0.6722,-0.60833 -0.67219,-0.60833 v -1.01539 -1.01538 l 0.91025,-1.7963 0.91026,-1.79631 -0.01,-2.0682 -0.01,-2.06819 -0.66688,-1.5076 -0.66688,-1.50758 -1.18487,-1.18487 -1.18487,-1.18487 -1.5473,-0.66326 -1.54731,-0.66325 h -2.01815 -2.01816 l -1.86366,0.9287 -1.86365,0.9287 -1.19193,1.62894 -1.19191,1.62894 -0.41204,1.81105 -0.41203,1.81107 0.23092,1.23092 0.23092,1.23092 0.87289,1.72052 0.87289,1.72051 0.001,0.58851 0.001,0.5885 -0.2199,0.57306 -0.2199,0.57304 -1.45579,0.77873 -1.4557,0.77872 -10.40694,0.17639 -10.40695,0.17639 -0.17638,10.40694 -0.17639,10.40694 -0.77872,1.4558 -0.77873,1.45579 -0.57304,0.2199 -0.57305,0.21989 h -0.63227 -0.63227 l -1.57644,-0.88108 -1.57643,-0.88109 -1.55845,-0.2136 -1.55846,-0.21362 -1.46296,0.39394 -1.46297,0.39393 -1.69542,1.14174 -1.69543,1.14173 -0.98309,1.89237 -0.98311,1.89236 v 2.04714 2.04714 l 0.66638,1.52855 0.66637,1.52855 1.18571,1.19981 1.18571,1.19981 1.41111,0.64453 1.41111,0.64452 2.21659,0.008 2.21659,0.008 1.74043,-0.88194 1.74044,-0.88194 h 1.01538 1.01539 l 0.60833,0.6722 0.60833,0.67219 0.50468,1.67693 0.50468,1.67692 v 9.64532 9.64532 h 31.04444 z m -94.3313,-19.49832 0.21313,-0.21314 -0.18528,-0.46302 -0.18529,-0.46302 -0.0278,0.67616 -0.0278,0.67615 0.21314,-0.21313 z m 62.44166,0 0.21314,-0.21314 -0.18529,-0.46302 -0.18528,-0.46302 -0.0278,0.67616 -0.0279,0.67615 0.21314,-0.21313 z m -62.12563,-1.66835 h 0.17639 v -0.17639 -0.17639 h -0.17639 -0.17639 v 0.17639 0.17639 z m 61.73611,0 h 0.17639 v -0.17639 -0.17639 h -0.17639 -0.17639 v 0.17639 0.17639 z m -55.20972,-0.35278 h 0.47036 l -0.23518,-0.23518 -0.23518,-0.23519 -0.23519,0.23519 -0.23518,0.23518 z m 4.23333,0 h 0.47037 l -0.23519,-0.23518 -0.23518,-0.23519 -0.23519,0.23519 -0.23518,0.23518 z m 40.01088,-0.0279 0.67615,0.0279 -0.21313,-0.21313 -0.21314,-0.21314 -0.46302,0.18529 -0.46302,0.18528 z m 4.43912,0.0279 h 0.47037 l -0.23519,-0.23518 -0.23518,-0.23519 -0.23519,0.23519 -0.23518,0.23518 z m -54.85694,-0.35278 h 0.17638 v -0.17638 -0.17639 h -0.17638 -0.17639 v 0.17639 0.17638 z m 4.93888,0 h 0.17639 v -0.17638 -0.17639 h -0.17639 -0.17638 v 0.17639 0.17638 z m 6.70278,0 h 0.17639 v -0.17638 -0.17639 H 76.0249 75.84851 v 0.17639 0.17638 z m 37.74722,0 h 0.17639 v -0.17638 -0.17639 h -0.17639 -0.17639 v 0.17639 0.17638 z m 6.70278,0 h 0.17639 v -0.17638 -0.17639 h -0.17639 -0.17639 v 0.17639 0.17638 z m 4.93889,0 h 0.17639 v -0.17638 -0.17639 h -0.17639 -0.17639 v 0.17639 0.17638 z m -56.79722,-0.35277 h 0.17639 v -0.17639 -0.17639 h -0.17639 -0.17639 v 0.17639 0.17639 z m 52.56389,0 h 0.17639 v -0.17639 -0.17639 h -0.17639 -0.17639 v 0.17639 0.17639 z m -53.26945,-0.35278 h 0.17639 v -0.17639 -0.17639 h -0.17639 -0.17639 v 0.17639 0.17639 z m 53.975,0 h 0.17639 v -0.17639 -0.17639 h -0.17639 -0.17639 v 0.17639 0.17639 z m -43.74444,-0.35278 h 0.17639 v -0.17639 -0.17639 h -0.17639 -0.17639 v 0.17639 0.17639 z m 33.51389,0 h 0.17638 v -0.17639 -0.17639 h -0.17638 -0.17639 v 0.17639 0.17639 z m -45.53773,-0.38063 0.67615,0.0279 -0.21313,-0.21314 -0.21314,-0.21313 -0.46302,0.18528 -0.46302,0.18529 z m 57.50277,0 0.67616,0.0279 -0.21314,-0.21314 -0.21314,-0.21313 -0.46302,0.18528 -0.46302,0.18529 z m -43.00949,-2.08881 h 0.17639 v -0.17638 -0.17639 h -0.17639 -0.17639 v 0.17639 0.17638 z m 28.575,0 h 0.17639 v -0.17638 -0.17639 h -0.17639 -0.17639 v 0.17639 0.17638 z m -28.22222,-0.70555 h 0.17639 v -0.17639 -0.17639 H 80.96379 80.7874 v 0.17639 0.17639 z m 27.51667,-0.70555 h 0.17638 v -0.17639 -0.17639 h -0.17638 -0.17639 v 0.17639 0.17639 z m -26.81111,-0.70556 h 0.17638 v -0.17639 -0.17639 h -0.17638 -0.17639 v 0.17639 0.17639 z m 26.45833,0 h 0.17639 v -0.17639 -0.17639 h -0.17639 -0.17639 v 0.17639 0.17639 z m -26.04676,-1.17592 0.23518,-0.23519 -0.23518,-0.23519 -0.23519,-0.23518 v 0.47037 0.47037 z m 25.75278,0 0.23518,-0.23519 -0.23518,-0.23519 -0.23519,-0.23518 v 0.47037 0.47037 z m -25.75278,-3.88056 0.23518,-0.23519 -0.23518,-0.23518 -0.23519,-0.23518 v 0.47036 0.47037 z m 25.73073,0.022 0.21313,-0.21314 -0.18528,-0.46302 -0.18529,-0.46302 -0.0278,0.67616 -0.0279,0.67615 z m -26.1423,-1.31557 h 0.17638 v -0.17639 -0.17639 h -0.17638 -0.17639 v 0.17639 0.17639 z m 26.45833,0 h 0.17639 v -0.17639 -0.17639 h -0.17639 -0.17639 v 0.17639 0.17639 z m -27.51667,-2.11667 h 0.17639 v -0.17639 -0.17638 h -0.17639 -0.17639 v 0.17638 0.17639 z m 28.575,0 h 0.17639 v -0.17639 -0.17638 h -0.17639 -0.17639 v 0.17638 0.17639 z m -29.23736,-1.05833 h 0.1332 v -0.1332 -0.13319 l -0.61737,-0.48418 -0.61736,-0.48416 0.48417,0.61736 0.48417,0.61736 z m 30.25405,-0.35278 h 0.17639 l 0.21803,-0.35278 0.21803,-0.35277 h -0.17639 -0.17639 l -0.21803,0.35277 -0.21802,0.35278 z m -44.05558,-0.70555 h 0.17639 v -0.17639 -0.17639 h -0.17639 -0.17638 v 0.17639 0.17639 z m 1.05834,-0.35278 h 0.17639 v -0.17639 -0.17639 h -0.17639 -0.17639 v 0.17639 0.17639 z m 55.38611,0 h 0.17639 v -0.17639 -0.17639 h -0.17639 -0.17639 v 0.17639 0.17639 z m -44.80278,-0.35278 h 0.17639 v -0.17639 -0.17639 H 77.78879 77.6124 v 0.17639 0.17639 z m 34.21944,0 h 0.17639 v -0.17639 -0.17639 h -0.17639 -0.17639 v 0.17639 0.17639 z m -43.74444,-0.35278 h 0.17639 v -0.17639 -0.17638 H 68.26379 68.0874 v 0.17638 0.17639 z m 8.81944,0 h 0.17639 v -0.17639 -0.17638 h -0.17639 -0.17638 v 0.17638 0.17639 z m 35.63056,0 h 0.17639 v -0.17639 -0.17638 h -0.17639 -0.17639 v 0.17638 0.17639 z m -48.33055,-0.35273 h 0.17638 v -0.17639 -0.17639 h -0.17638 -0.17639 v 0.17639 0.17639 z m 4.93888,0 h 0.17639 v -0.17639 -0.17639 h -0.17639 -0.17638 v 0.17639 0.17639 z m 7.05556,0 h 0.17639 v -0.17639 -0.17639 h -0.17639 -0.17639 v 0.17639 0.17639 z m 37.04166,0 h 0.17639 v -0.17639 -0.17639 h -0.17639 -0.17639 v 0.17639 0.17639 z m 7.40834,0 h 0.17639 v -0.17639 -0.17639 h -0.17639 -0.17639 v 0.17639 0.17639 z m 4.58611,0 h 0.17639 v -0.17639 -0.17639 h -0.17639 -0.17639 v 0.17639 0.17639 z m -55.20972,-0.35278 h 0.47037 l -0.23519,-0.23519 -0.23518,-0.23518 -0.23519,0.23518 -0.23518,0.23519 z m 5.11528,0 h 0.17639 v -0.17639 -0.17639 h -0.17639 -0.17639 v 0.17639 0.17639 z m 39.15833,0 h 0.17639 v -0.17639 -0.17639 h -0.17639 -0.17639 v 0.17639 0.17639 z m 5.11528,0 h 0.47036 l -0.23518,-0.23519 -0.23518,-0.23518 -0.23519,0.23518 -0.23518,0.23519 z m -55.50371,-0.47037 0.23519,-0.23519 -0.23519,-0.23518 -0.23518,-0.23518 v 0.47036 0.47037 z m 8.58426,0.0215 h 1.5875 l -0.79375,-0.15288 -0.79375,-0.15289 -0.79375,0.15289 -0.79375,0.15288 z m 44.45,0 h 1.5875 l -0.79375,-0.15288 -0.79375,-0.15289 -0.79375,0.15289 -0.79375,0.15288 z m 8.64306,-0.25671 h 0.17639 v -0.17639 -0.17638 h -0.17639 -0.17639 v 0.17638 0.17639 z m -62.03009,-1.17592 0.23518,-0.23519 -0.23518,-0.23519 -0.23519,-0.23518 v 0.47037 0.47037 z m 62.44166,0 0.23518,-0.23519 -0.23518,-0.23519 -0.23518,-0.23518 v 0.47037 0.47037 z m -31.10324,-1.73526 1.41111,0.007 -0.61325,-0.16054 -0.61325,-0.16054 -0.79786,0.15342 -0.79786,0.15342 1.41111,0.007 z m -31.66272,-4.76173 0.10959,-4.67431 -0.10959,-4.6743 -0.1096,-4.67431 v 9.34861 9.34861 z m 28.8405,4.49791 h 0.17639 v -0.17639 -0.17638 h -0.17639 -0.17639 v 0.17638 0.17639 z m 5.29166,0 h 0.17639 v -0.17639 -0.17638 h -0.17639 -0.17638 v 0.17638 0.17639 z m 29.01506,-4.49791 0.10959,-4.67431 -0.10959,-4.6743 -0.1096,-4.67431 v 9.34861 9.34861 z m -31.08854,3.98911 1.80706,-0.13648 1.41317,-0.72094 1.41316,-0.72095 1.39198,-1.58137 1.39198,-1.58137 0.41487,-1.38472 0.41488,-1.38473 v -1.51843 -1.51844 l -1.11278,-2.41418 -1.11277,-2.41419 0.40906,-0.8978 0.40907,-0.89779 1.67385,-0.77272 1.67384,-0.77272 10.1143,-0.11664 10.11429,-0.11664 0.11664,-10.11429 0.11664,-10.1143 0.77416,-1.67712 0.77418,-1.67713 0.92738,-0.35259 0.92738,-0.35258 2.41415,1.05957 2.41414,1.05958 1.70476,-0.004 1.70476,-0.004 1.76389,-0.82783 1.76389,-0.82783 1.0056,-1.01618 1.0056,-1.01619 0.74524,-1.415726 0.74524,-1.41574 v -2.29305 -2.29306 l -0.75081,-1.41111 -0.75081,-1.41111 -1.35281,-1.30779 -1.35281,-1.3078 -1.54366,-0.54429 -1.54366,-0.54429 h -1.6032 -1.60321 l -2.33691,1.07716 -2.33692,1.07715 -0.97362,-0.37016 -0.97361,-0.37017 -0.77418,-1.67713 -0.77416,-1.67712 -0.11668,-10.11835 -0.11667,-10.118353 -10.11426,-0.1122 -10.11426,-0.11205 -1.67712,-0.77454 -1.67713,-0.77455 -0.37017,-0.97362 -0.37016,-0.97361 1.11755,-2.42458 1.11756,-2.424574 -0.15089,-2.000875 -0.15088,-2.000869 -0.64706,-1.347771 -0.64706,-1.347769 -1.04711,-1.047105 -1.04711,-1.047107 -1.45854,-0.767077 -1.45854,-0.767072 -2.29306,-0.0081 -2.29305,-0.0081 -1.88666,1.040038 -1.88666,1.040034 -0.97276,1.424422 -0.97276,1.424421 -0.44418,1.362451 -0.44418,1.362451 0.15128,1.824317 0.15129,1.824316 0.97427,1.928509 0.97428,1.92851 -0.37817,0.98935 -0.37817,0.98934 -1.67713,0.77417 -1.67712,0.77416 -10.11429,0.11664 -10.1143,0.11664 -0.11664,10.114303 -0.11664,10.11429 -0.77416,1.67712 -0.77417,1.67713 -0.97362,0.37017 -0.97362,0.37016 -2.33691,-1.07715 -2.33692,-1.07716 H 53.7144 51.92127 l -2.23568,1.15614 -2.23569,1.15614 -1.1259,1.88054 -1.1259,1.88054 -0.22618,1.81402 -0.22618,1.81401 0.52133,1.51167 0.52132,1.51166 0.78194,1.14117 0.78194,1.141166 1.28354,0.9084 1.28354,0.9084 1.19917,0.40752 1.19917,0.40751 h 1.59491 1.59492 l 2.41419,-1.11277 2.41418,-1.11277 0.8978,0.40906 0.8978,0.40907 0.77271,1.67384 0.77272,1.67385 0.11664,10.11429 0.11664,10.1143 10.1143,0.11664 10.11429,0.11664 1.67712,0.77416 1.67713,0.77417 0.37017,0.97362 0.37016,0.97362 -1.07715,2.33691 -1.07715,2.33692 v 1.58472 1.58471 l 0.55184,1.61958 0.55185,1.61958 1.22848,1.26493 1.22848,1.26493 1.12781,0.58321 1.1278,0.5832 0.88423,0.28953 0.88423,0.28951 1.80707,-0.13648 z m 3.13182,0.15603 h 0.17639 v -0.17639 -0.17639 h -0.17639 -0.17639 v 0.17639 0.17639 z M 90.48879,144.635 h 0.17639 v -0.17639 -0.17639 H 90.48879 90.3124 v 0.17639 0.17639 z m 8.81944,0 h 0.17639 v -0.17639 -0.17639 h -0.17639 -0.17639 v 0.17639 0.17639 z m -9.87777,-0.70556 h 0.17639 v -0.17639 -0.17639 h -0.17639 -0.17639 v 0.17639 0.17639 z m 10.93611,0 h 0.17639 v -0.17639 -0.17639 h -0.17639 -0.17639 v 0.17639 0.17639 z m -13.03196,-2.11666 h 0.15557 v -0.15557 -0.15557 l -0.40729,-0.25172 -0.40728,-0.25172 0.25172,0.40729 0.25171,0.40729 z m 15.10698,0 h 0.17639 l 0.21803,-0.35278 0.21803,-0.35278 h -0.17639 -0.17639 l -0.21803,0.35278 -0.21803,0.35278 z m -15.83336,-1.05834 h 0.17639 v -0.17639 -0.17639 h -0.17639 -0.17638 v 0.17639 0.17639 z m 16.58056,0 h 0.17639 v -0.17639 -0.17639 h -0.17639 -0.17639 v 0.17639 0.17639 z m -16.93333,-0.70555 h 0.17639 v -0.17639 -0.17639 h -0.17639 -0.17639 v 0.17639 0.17639 z m 17.28611,0 h 0.17639 v -0.17639 -0.17639 h -0.17639 -0.17639 v 0.17639 0.17639 z m -17.58009,-0.82315 0.23518,-0.23519 -0.23518,-0.23518 -0.23519,-0.23519 v 0.47037 0.47037 z m 17.99166,0 0.23518,-0.23519 -0.23518,-0.23518 -0.23518,-0.23519 v 0.47037 0.47037 z m -18.36649,-1.38906 0.21313,-0.21314 -0.18528,-0.46302 -0.18529,-0.46302 -0.0278,0.67616 -0.0278,0.67615 0.21314,-0.21313 z m 18.69722,0 0.21313,-0.21314 -0.18528,-0.46302 -0.18529,-0.46302 -0.0278,0.67616 -0.0279,0.67615 z m -18.69722,-2.82222 0.21313,-0.21314 -0.18528,-0.46302 -0.18529,-0.46302 -0.0278,0.67615 -0.0278,0.67616 0.21314,-0.21313 z m 18.69722,0 0.21313,-0.21314 -0.18528,-0.46302 -0.18529,-0.46302 -0.0278,0.67615 -0.0279,0.67616 z m -18.32239,-1.78594 0.23518,-0.23519 -0.23518,-0.23519 -0.23519,-0.23518 v 0.47037 0.47037 z m 17.99166,0 0.23518,-0.23519 -0.23518,-0.23519 -0.23518,-0.23518 v 0.47037 0.47037 z m -17.69768,-0.94074 h 0.17639 v -0.17639 -0.17639 h -0.17639 -0.17639 v 0.17639 0.17639 z m 17.28611,0 h 0.17639 v -0.17639 -0.17639 h -0.17639 -0.17639 v 0.17639 0.17639 z m -16.93334,-0.70556 h 0.17639 v -0.17639 -0.17639 h -0.17639 -0.17638 v 0.17639 0.17639 z m 16.58056,0 h 0.17639 v -0.17639 -0.17639 h -0.17639 -0.17639 v 0.17639 0.17639 z m -15.875,-1.41111 h 0.17639 v -0.17639 -0.17639 H 87.31379 87.1374 v 0.17639 0.17639 z m 0,-1.05833 h 0.17639 V 128.93639 128.76 H 87.31379 87.1374 v 0.17639 0.17639 z m 15.16944,0 h 0.17639 V 128.93639 128.76 h -0.17639 -0.17639 v 0.17639 0.17639 z m -16.58055,-1.41112 h 0.17639 v -0.17638 -0.17639 h -0.17639 -0.17639 v 0.17639 0.17638 z m 17.99166,0 h 0.17639 v -0.17638 -0.17639 h -0.17639 -0.17638 v 0.17639 0.17638 z m -19.04999,-0.35277 h 0.17638 v -0.17639 -0.17639 h -0.17638 -0.17639 v 0.17639 0.17639 z m 20.10833,0 h 0.17639 v -0.17639 -0.17639 h -0.17639 -0.17639 v 0.17639 0.17639 z m -21.90162,-0.38063 0.67615,0.0279 -0.21313,-0.21314 -0.21314,-0.21313 -0.46302,0.18528 -0.46302,0.18529 z m 23.63611,0 0.67615,0.0279 -0.21313,-0.21314 -0.21314,-0.21313 -0.46302,0.18528 -0.46302,0.18529 z m -96.8081,-0.47898 h 9.34861 l -4.6743,-0.10959 -4.67431,-0.10959 -4.67431,0.10959 -4.6743,0.10959 z m 43.56806,2.6e-4 9.17222,-2.6e-4 -4.69513,-0.10974 -4.69513,-0.10973 -4.4771,0.1101 -4.47709,0.1101 9.17223,-2.6e-4 z m 9.87777,0.15371 h 0.17639 v -0.17639 -0.17639 H 63.3249 63.14851 v 0.17639 0.17639 z m 8.46667,-0.15127 8.11389,2.6e-4 -3.94885,-0.11234 -3.94885,-0.11235 -4.16504,0.1119 -4.16504,0.11189 8.11389,2.7e-4 z m 46.0375,-2.6e-4 h 8.29027 l -4.14513,-0.11173 -4.14514,-0.11173 -4.14514,0.11173 -4.14514,0.11173 z m 8.64305,0.15163 h 0.17639 v -0.17639 -0.17639 h -0.17639 -0.17639 v 0.17639 0.17639 z m 9.87778,-0.15371 9.17222,-2.6e-4 -4.69513,-0.10974 -4.69513,-0.10974 -4.47709,0.11011 -4.47709,0.1101 9.17222,-2.6e-4 z m 43.56805,-2.6e-4 h 9.34861 l -4.6743,-0.1096 -4.67431,-0.10959 -4.6743,0.10959 -4.67431,0.1096 z M 20.4624,126.29058 h 0.47037 l -0.23518,-0.23518 -0.23519,-0.23518 -0.23518,0.23518 -0.23519,0.23518 z m 22.225,0 h 0.47037 l -0.23518,-0.23518 -0.23519,-0.23518 -0.23518,0.23518 -0.23519,0.23518 z m 104.42222,0 h 0.47037 l -0.23518,-0.23518 -0.23519,-0.23518 -0.23519,0.23518 -0.23518,0.23518 z m 22.225,0 h 0.47037 l -0.23518,-0.23518 -0.23519,-0.23518 -0.23519,0.23518 -0.23518,0.23518 z m -158.83819,-0.4244 9.78958,-0.12977 1.47209,-0.63227 1.47208,-0.63228 0.19006,-0.49531 0.19007,-0.49529 -0.95659,-1.84586 -0.95659,-1.84586 v -2.83489 -2.8349 l 1.09441,-1.94028 1.09441,-1.94027 1.48667,-1.14349 1.48666,-1.14349 1.97858,-0.57519 1.97859,-0.57519 1.83352,0.18924 1.83351,0.18923 1.40903,0.71883 1.40901,0.71883 1.11236,0.93599 1.11236,0.93599 0.93609,1.59731 0.93608,1.5973 0.15933,2.75227 0.15932,2.75227 -1.07133,2.2894 -1.07134,2.28938 0.58701,0.53124 0.58702,0.53124 1.05768,0.4497 1.05769,0.44969 9.96597,0.13272 9.96598,0.13271 -0.003,-7.34882 -0.003,-7.34883 -0.35731,-3.11866 -0.35729,-3.11867 -0.53081,-1.02647 -0.53081,-1.02648 h -0.48755 -0.48756 l -1.81323,0.94074 -1.81324,0.94074 -2.54085,-0.008 -2.54085,-0.008 -1.35403,-0.57505 -1.35403,-0.57505 -1.35894,-1.0763 -1.35894,-1.0763 -1.07939,-2.160036 -1.07953,-2.16007 v -2.35675 -2.35676 l 1.0788,-2.15887 1.07881,-2.15888 1.12606,-0.95188 1.12605,-0.95187 1.5875,-0.70603 1.5875,-0.70602 2.57652,0.016 2.57653,0.016 1.77756,0.92223 1.77756,0.92223 h 0.48755 0.48755 l 0.56978,-1.10183 0.56978,-1.10184 0.31167,-3.21969 0.31166,-3.2197 0.01,-7.17243 0.01,-7.172443 -9.96597,0.13272 -9.96597,0.13272 -1.05769,0.44969 -1.05769,0.44969 -0.60308,0.54579 -0.60309,0.54578 0.9192,1.810913 0.9192,1.81091 0.16824,2.33406 0.16824,2.33406 -0.58506,1.76144 -0.58506,1.76144 -1.26241,1.47485 -1.26243,1.47486 -1.77276,0.89833 -1.77276,0.89832 -1.8301,0.18888 -1.8301,0.18889 -1.97858,-0.57519 -1.97858,-0.57519 -1.48667,-1.14349 -1.48666,-1.14349 -1.09442,-1.94027 -1.09441,-1.94028 v -2.83475 -2.83489 l 0.95643,-1.84586 0.9566,-1.845863 -0.18156,-0.47312 -0.18155,-0.47313 -0.77504,-0.39607 -0.77504,-0.39606 -1.5875,-0.35047 -1.5875,-0.35046 -8.90764,-0.009 -8.90764,-0.009 v 31.073523 31.073506 z m 11.55347,0.0716 h 0.17639 V 125.76139 125.585 H 22.0499 21.87351 v 0.17639 0.17639 z m 19.22639,0 h 0.47037 l -0.23518,-0.23519 -0.23519,-0.23518 -0.23519,0.23518 -0.23518,0.23519 z m 22.13539,-3.77246 0.11235,-3.94885 -0.1119,-4.16504 -0.1119,-4.16504 -2.6e-4,8.11389 -2.7e-4,8.11388 0.11235,-3.94884 z m 63.1475,-0.19629 0.11172,-4.14514 -0.11172,-4.14514 -0.11173,-4.14514 v 8.29028 8.29027 z m 10.40808,3.9017 9.96597,-0.12443 1.39875,-0.6235 1.39875,-0.62351 0.23925,-0.38712 0.23925,-0.38712 -1.02036,-2.15683 -1.02036,-2.15683 -2.6e-4,-2.14202 -2.7e-4,-2.14202 0.54832,-1.60921 0.54831,-1.60921 1.22466,-1.43074 1.22466,-1.43074 1.86437,-0.91215 1.86438,-0.91216 1.77178,-0.20984 1.77179,-0.20984 1.93812,0.56342 1.93812,0.56343 1.56769,1.19702 1.56769,1.19702 1.04956,1.89769 1.04956,1.89768 0.001,2.8349 10e-4,2.83489 -0.96767,1.86721 -0.96767,1.86722 0.32726,0.61148 0.32726,0.61149 1.34597,0.48045 1.34596,0.48044 9.78959,0.13988 9.78958,0.13988 V 94.889184 63.790781 l -9.78958,0.14928 -9.78959,0.14927 -1.34596,0.47523 -1.34597,0.47522 -0.32726,0.6115 -0.32726,0.61148 0.96767,1.867223 0.96767,1.86722 v 2.83488 2.8349 l -1.09441,1.94027 -1.09441,1.94028 -1.48666,1.14349 -1.48667,1.14348 -1.97858,0.5752 -1.97859,0.57518 -1.87066,-0.19307 -1.87066,-0.19306 -1.81014,-0.98521 -1.81015,-0.9852 -1.17719,-1.37529 -1.17719,-1.37528 -0.54831,-1.60921 -0.54832,-1.60921 2.7e-4,-2.14202 2.6e-4,-2.14202 1.02945,-2.17606 1.02946,-2.176073 -0.58941,-0.5334 -0.58941,-0.53341 -1.05768,-0.44969 -1.05769,-0.4497 -9.96597,-0.13272 -9.96598,-0.13271 0.006,7.348833 0.006,7.34882 0.32166,3.05626 0.32165,3.05627 0.56308,1.08887 0.56308,1.08887 h 0.48755 0.48755 l 1.81324,-0.94074 1.81323,-0.94073 2.54085,0.008 2.54085,0.008 1.35403,0.57504 1.35403,0.57505 1.35895,1.07631 1.35894,1.0763 1.07938,2.16004 1.07939,2.16004 v 2.35676 2.35675 l -1.07939,2.16004 -1.07938,2.160046 -1.35894,1.0763 -1.35895,1.0763 -1.35403,0.57505 -1.35403,0.57505 -2.54085,0.008 -2.54085,0.008 -1.81323,-0.94074 -1.81324,-0.94074 h -0.48755 -0.48755 l -0.56978,1.10183 -0.56978,1.10184 -0.31167,3.21969 -0.31166,3.21969 -0.01,7.17244 -0.01,7.17244 9.96597,-0.12442 z m 11.55347,0.067 h 0.47037 l -0.23518,-0.23519 -0.23519,-0.23518 -0.23518,0.23518 -0.23519,0.23519 z m 19.22639,0 h 0.17639 v -0.17639 -0.17639 h -0.17639 -0.17639 v 0.17639 0.17639 z m -144.99166,-0.3527 h 0.17639 v -0.17639 -0.17639 h -0.17639 -0.17639 v 0.17639 0.17639 z m 17.63889,0 h 0.17639 v -0.17639 -0.17639 h -0.17639 -0.17639 v 0.17639 0.17639 z m 109.00833,0 h 0.17639 v -0.17639 -0.17639 h -0.17639 -0.17639 v 0.17639 0.17639 z m 17.63889,0 h 0.17638 v -0.17639 -0.17639 h -0.17638 -0.17639 v 0.17639 0.17639 z M 39.33602,124.52668 h 0.17638 v -0.17638 -0.17639 h -0.17638 -0.17639 v 0.17639 0.17638 z m -15.1327,-0.44832 0.21313,-0.21313 -0.18528,-0.46301 -0.18529,-0.46303 -0.0279,0.67615 -0.0279,0.67616 0.21314,-0.21314 z m 141.46388,0 0.21314,-0.21313 -0.18529,-0.46301 -0.18528,-0.46303 -0.0278,0.67615 -0.0279,0.67616 0.21314,-0.21314 z m -14.85341,-0.25723 h 0.17639 v -0.17639 -0.17638 h -0.17639 -0.17639 v 0.17638 0.17639 z M 39.33602,122.76281 h 0.17638 v -0.17639 -0.17639 h -0.17638 -0.17639 v 0.17639 0.17639 z m 111.12499,0 h 0.17639 v -0.17639 -0.17639 h -0.17639 -0.17639 v 0.17639 0.17639 z m -127,-0.70556 h 0.17639 v -0.17639 -0.17639 h -0.17639 -0.17638 v 0.17639 0.17639 z m 142.875,0 h 0.17639 v -0.17639 -0.17639 h -0.17639 -0.17639 v 0.17639 0.17639 z M 23.10824,121.3517 h 0.17639 v -0.17639 -0.17639 h -0.17639 -0.17639 v 0.17639 0.17639 z m 143.58055,0 h 0.17639 v -0.17639 -0.17639 h -0.17639 -0.17639 v 0.17639 0.17639 z M 22.75546,120.64614 h 0.17639 v -0.17639 -0.17639 h -0.17639 -0.17639 v 0.17639 0.17639 z m 17.63889,0 h 0.17639 v -0.17639 -0.17639 h -0.17639 -0.17639 v 0.17639 0.17639 z m 126.64722,0 h 0.17638 v -0.17639 -0.17639 h -0.17638 -0.17639 v 0.17639 0.17639 z m -126.23565,-0.82315 0.23518,-0.23518 -0.23518,-0.23519 -0.23518,-0.23518 v 0.47037 0.47037 z m 108.30278,0 0.23518,-0.23518 -0.23518,-0.23519 -0.23519,-0.23518 v 0.47037 0.47037 z m -126.64722,-0.35277 0.23518,-0.23519 -0.23518,-0.23519 -0.23519,-0.23518 v 0.47037 0.47037 z m 144.99166,0 0.23518,-0.23519 -0.23518,-0.23519 -0.23519,-0.23518 v 0.47037 0.47037 z m -126.28066,-1.55811 0.15288,-0.79375 -0.15288,-0.79375 -0.15288,-0.79375 v 1.5875 1.5875 z m 107.59722,0 0.15288,-0.79375 -0.15288,-0.79375 -0.15288,-0.79375 v 1.5875 1.5875 z m -126.30822,-3.028 0.23518,-0.23519 -0.23518,-0.23519 -0.23519,-0.23518 v 0.47037 0.47037 z m 144.99166,0 0.23518,-0.23519 -0.23518,-0.23519 -0.23519,-0.23518 v 0.47037 0.47037 z M 40.74713,114.64892 h 0.17638 v -0.17639 -0.17639 h -0.17638 -0.17639 v 0.17639 0.17639 z m 108.30277,0 h 0.17639 v -0.17639 -0.17639 h -0.17639 -0.17639 v 0.17639 0.17639 z M 22.75546,113.94336 h 0.17639 v -0.17639 -0.17639 h -0.17639 -0.17639 v 0.17639 0.17639 z m 144.28611,0 h 0.17638 v -0.17639 -0.17639 h -0.17638 -0.17639 v 0.17639 0.17639 z M 40.39435,113.59058 h 0.17639 v -0.17638 -0.17639 h -0.17639 -0.17639 v 0.17639 0.17638 z m 109.00833,0 h 0.17639 v -0.17638 -0.17639 h -0.17639 -0.17639 v 0.17639 0.17638 z M 23.10824,112.88503 h 0.17639 v -0.17639 -0.17639 h -0.17639 -0.17639 v 0.17639 0.17639 z m 16.93333,0 h 0.17639 v -0.17639 -0.17639 h -0.17639 -0.17639 v 0.17639 0.17639 z m 109.71388,0 h 0.17639 v -0.17639 -0.17639 h -0.17639 -0.17638 v 0.17639 0.17639 z M 39.68879,112.17947 h 0.17639 v -0.17639 -0.17638 H 39.68879 39.5124 v 0.17638 0.17639 z m 110.41944,0 h 0.17639 v -0.17639 -0.17638 h -0.17639 -0.17639 v 0.17638 0.17639 z M 23.81379,111.8267 h 0.17639 v -0.17639 -0.17639 H 23.81379 23.6374 v 0.17639 0.17639 z m 142.16944,0 h 0.17639 v -0.17639 -0.17639 h -0.17639 -0.17639 v 0.17639 0.17639 z m -14.8583,-1.05834 h 0.17638 l 0.21803,-0.35278 0.21803,-0.35277 h -0.17639 -0.17639 l -0.21802,0.35277 -0.21803,0.35278 z M 38.2985,110.41558 h 0.15557 v -0.15556 -0.15557 l -0.40728,-0.25172 -0.40729,-0.25172 0.25172,0.40729 0.25171,0.40728 z m -12.01526,-1.05833 h 0.17639 v -0.17639 -0.17639 h -0.17639 -0.17639 v 0.17639 0.17639 z m 10.58333,0 h 0.17639 v -0.17639 -0.17639 h -0.17639 -0.17639 v 0.17639 0.17639 z m 116.06388,0 h 0.17639 v -0.17639 -0.17639 h -0.17639 -0.17638 v 0.17639 0.17639 z m 10.58334,0 h 0.17639 v -0.17639 -0.17639 h -0.17639 -0.17639 v 0.17639 0.17639 z m -136.525,-0.35278 h 0.17639 v -0.17639 -0.17638 H 26.98879 26.8124 v 0.17638 0.17639 z m 8.81945,-0.35277 h 0.17639 v -0.17639 -0.17639 h -0.17639 -0.17639 v 0.17639 0.17639 z m -7.40834,-0.35278 h 0.17639 v -0.17639 -0.17639 H 28.3999 28.22352 v 0.17639 0.17639 z m 6.35,0 h 0.17639 v -0.17639 -0.17639 H 34.7499 34.57352 v 0.17639 0.17639 z m 120.29722,0 h 0.17639 v -0.17639 -0.17639 h -0.17639 -0.17639 v 0.17639 0.17639 z m 6.35,0 h 0.17639 v -0.17639 -0.17639 h -0.17639 -0.17639 v 0.17639 0.17639 z M 29.63463,107.94614 H 30.105 l -0.23519,-0.23518 -0.23518,-0.23519 -0.23519,0.23519 -0.23519,0.23518 z m 4.02754,-0.0279 0.67616,0.0279 -0.21314,-0.21314 -0.21313,-0.21313 -0.46302,0.18529 -0.46302,0.18528 z m 122.61967,0.0279 h 0.47037 l -0.23518,-0.23518 -0.23519,-0.23519 -0.23518,0.23519 -0.23519,0.23518 z m 3.88056,0 h 0.47037 l -0.23519,-0.23518 -0.23518,-0.23519 -0.23519,0.23519 -0.23518,0.23518 z m -97.15353,-0.8011 0.21314,-0.21313 -0.18529,-0.46303 -0.18528,-0.46302 -0.0278,0.67616 -0.0278,0.67616 0.21313,-0.21314 z m 63.85278,0 0.21313,-0.21313 -0.18528,-0.46303 -0.18529,-0.46302 -0.0278,0.67616 -0.0279,0.67616 0.21313,-0.21314 z m -64.2423,-2.02112 h 0.17639 v -0.17639 -0.17639 h -0.17639 -0.17639 v 0.17639 0.17639 z m 64.55833,0 h 0.17639 v -0.17639 -0.17639 h -0.17639 -0.17639 v 0.17639 0.17639 z m -74.81829,-0.73341 0.67616,0.0279 -0.21314,-0.21314 -0.21313,-0.21313 -0.46302,0.18528 -0.46302,0.18529 z m 2.82223,0 0.67615,0.0279 -0.21313,-0.21314 -0.21314,-0.21313 -0.46302,0.18528 -0.46302,0.18529 z m 79.37499,0 0.67616,0.0279 -0.21314,-0.21314 -0.21313,-0.21313 -0.46302,0.18528 -0.46302,0.18529 z m 2.82222,0 0.67616,0.0279 -0.21313,-0.21314 -0.21314,-0.21313 -0.46302,0.18528 -0.46302,0.18529 z m -86.57754,-0.32493 h 0.47037 l -0.23518,-0.23518 -0.23519,-0.23518 -0.23519,0.23518 -0.23518,0.23518 z m 5.99722,0 h 0.47037 l -0.23518,-0.23518 -0.23519,-0.23518 -0.23518,0.23518 -0.23519,0.23518 z m 5.46806,0 h 0.17639 v -0.17638 -0.17639 h -0.17639 -0.17639 v 0.17639 0.17638 z m 65.26389,0 h 0.17638 v -0.17638 -0.17639 h -0.17638 -0.17639 v 0.17639 0.17638 z m 5.46805,0 h 0.47037 l -0.23518,-0.23518 -0.23519,-0.23518 -0.23519,0.23518 -0.23518,0.23518 z m 5.99722,0 h 0.47037 l -0.23518,-0.23518 -0.23519,-0.23518 -0.23518,0.23518 -0.23519,0.23518 z m -89.07638,-0.35277 h 0.17639 v -0.17639 -0.17639 h -0.17639 -0.17639 v 0.17639 0.17639 z m 7.76111,0 h 0.17639 v -0.17639 -0.17639 h -0.17639 -0.17639 v 0.17639 0.17639 z m 74.43611,0 h 0.17639 v -0.17639 -0.17639 h -0.17639 -0.17639 v 0.17639 0.17639 z m 7.76111,0 h 0.17639 v -0.17639 -0.17639 h -0.17639 -0.17639 v 0.17639 0.17639 z m -90.66389,-0.35278 h 0.17639 v -0.17639 -0.17639 H 49.21379 49.0374 v 0.17639 0.17639 z m 9.17222,0 h 0.17639 v -0.17639 -0.17639 h -0.17639 -0.17639 v 0.17639 0.17639 z m 73.025,0 h 0.17639 v -0.17639 -0.17639 h -0.17639 -0.17639 v 0.17639 0.17639 z m 9.17222,0 h 0.17639 v -0.17639 -0.17639 h -0.17639 -0.17639 v 0.17639 0.17639 z m -92.07499,-0.35278 h 0.17639 v -0.17639 -0.17639 h -0.17639 -0.17639 v 0.17639 0.17639 z m 92.78055,0 h 0.17639 v -0.17639 -0.17639 h -0.17639 -0.17639 v 0.17639 0.17639 z m -81.49167,-0.35278 h 0.17639 v -0.17639 -0.17638 h -0.17639 -0.17638 v 0.17638 0.17639 z m 1.05834,0 h 0.17639 v -0.17639 -0.17638 h -0.17639 -0.17639 v 0.17638 0.17639 z m 68.08611,0 h 0.17639 v -0.17639 -0.17638 h -0.17639 -0.17639 v 0.17638 0.17639 z m -82.90278,-2.11666 h 0.17639 v -0.17639 -0.17639 H 46.03879 45.8624 v 0.17639 0.17639 z m 97.71944,0 h 0.17639 v -0.17639 -0.17639 h -0.17639 -0.17639 v 0.17639 0.17639 z M 45.33324,99.479474 h 0.17639 v -0.17639 -0.17638 h -0.17639 -0.17639 v 0.17638 0.17639 z m 99.13055,0 h 0.17639 v -0.17639 -0.17638 h -0.17639 -0.17639 v 0.17638 0.17639 z m -99.48333,-0.70555 h 0.17639 v -0.17639 -0.17639 h -0.17639 -0.17639 v 0.17639 0.17639 z m 99.83611,0 h 0.17639 v -0.17639 -0.17639 h -0.17639 -0.17639 v 0.17639 0.17639 z m -100.13009,-1.17593 0.23518,-0.23518 -0.23518,-0.23519 -0.23519,-0.23518 v 0.47037 0.47037 z m 100.54166,0 0.23518,-0.23518 -0.23518,-0.23519 -0.23518,-0.23518 v 0.47037 0.47037 z m -100.88724,-1.73037 0.16054,-0.61325 -0.15342,-0.79786 -0.15342,-0.79787 -0.007,1.41111 -0.007,1.41111 0.16054,-0.61324 z m 101.24722,0 0.16054,-0.61325 -0.15342,-0.79786 -0.15342,-0.79787 -0.007,1.41111 -0.007,1.41111 0.16054,-0.61324 z m -100.90164,-3.20851 0.23518,-0.23519 -0.23518,-0.23519 -0.23519,-0.23518 v 0.47037 0.47037 z m 100.54166,0 0.23518,-0.23519 -0.23518,-0.23519 -0.23518,-0.23518 v 0.47037 0.47037 z M 44.98046,91.365594 h 0.17639 v -0.17639 -0.17639 h -0.17639 -0.17639 v 0.17639 0.17639 z m 0.35278,-0.70556 h 0.17639 v -0.17639 -0.17639 h -0.17639 -0.17639 v 0.17639 0.17639 z m 99.13055,0 h 0.17639 v -0.17639 -0.17639 h -0.17639 -0.17639 v 0.17639 0.17639 z m -98.425,-1.05833 h 0.17639 v -0.17639 -0.17639 H 46.03879 45.8624 v 0.17639 0.17639 z m 97.71944,0 h 0.17639 v -0.17639 -0.17639 h -0.17639 -0.17639 v 0.17639 0.17639 z m -83.96111,-2.11667 h 0.17639 v -0.17639 -0.17639 h -0.17639 -0.17638 v 0.17639 0.17639 z m 1.05834,0 h 0.17639 v -0.17639 -0.17639 h -0.17639 -0.17639 v 0.17639 0.17639 z m 68.08611,0 h 0.17639 v -0.17639 -0.17639 h -0.17639 -0.17639 v 0.17639 0.17639 z m -80.43333,-0.35278 h 0.17639 v -0.17639 -0.17639 h -0.17639 -0.17639 v 0.17639 0.17639 z m 92.78055,0 h 0.17639 v -0.17639 -0.17639 h -0.17639 -0.17639 v 0.17639 0.17639 z m -92.075,-0.35278 h 0.17639 v -0.17638 -0.17639 H 49.21379 49.0374 v 0.17639 0.17638 z m 9.17222,0 h 0.17639 v -0.17638 -0.17639 h -0.17639 -0.17639 v 0.17639 0.17638 z m 73.025,0 h 0.17639 v -0.17638 -0.17639 h -0.17639 -0.17639 v 0.17639 0.17638 z m 9.17222,0 h 0.17639 v -0.17638 -0.17639 h -0.17639 -0.17639 v 0.17639 0.17638 z m -90.66388,-0.35277 h 0.17639 v -0.17639 -0.17639 h -0.17639 -0.17639 v 0.17639 0.17639 z m 7.76111,0 h 0.17639 v -0.17639 -0.17639 h -0.17639 -0.17639 v 0.17639 0.17639 z m 74.43611,0 h 0.17639 v -0.17639 -0.17639 h -0.17639 -0.17639 v 0.17639 0.17639 z m 7.76111,0 h 0.17639 v -0.17639 -0.17639 h -0.17639 -0.17639 v 0.17639 0.17639 z M 50.6249,86.073924 h 0.17639 v -0.17639 -0.17639 H 50.6249 50.44851 v 0.17639 0.17639 z m 6.17361,0 h 0.47037 l -0.23518,-0.23519 -0.23519,-0.23518 -0.23518,0.23518 -0.23519,0.23519 z m 5.46806,0 h 0.17639 v -0.17639 -0.17639 h -0.17639 -0.17639 v 0.17639 0.17639 z m 65.26389,0 h 0.17638 v -0.17639 -0.17639 h -0.17638 -0.17639 v 0.17639 0.17639 z m 5.46805,0 h 0.47037 l -0.23518,-0.23519 -0.23519,-0.23518 -0.23519,0.23518 -0.23518,0.23519 z m 5.99722,0 h 0.47037 l -0.23518,-0.23519 -0.23519,-0.23518 -0.23518,0.23518 -0.23519,0.23519 z m -86.63634,-0.38063 0.67616,0.0278 -0.21314,-0.21314 -0.21313,-0.21314 -0.46302,0.18529 -0.46302,0.18529 0.67615,0.0278 z m 2.82223,0 0.67615,0.0278 -0.21313,-0.21314 -0.21314,-0.21314 -0.46302,0.18529 -0.46302,0.18529 0.67616,0.0278 z m 79.37499,0 0.67616,0.0278 -0.21314,-0.21314 -0.21313,-0.21314 -0.46302,0.18529 -0.46302,0.18529 0.67615,0.0278 z m 2.82222,0 0.67616,0.0278 -0.21313,-0.21314 -0.21314,-0.21314 -0.46302,0.18529 -0.46302,0.18529 0.67615,0.0278 z m -74.75948,-0.6777 h 0.17639 v -0.17639 -0.17639 h -0.17639 -0.17639 v 0.17639 0.17639 z m 64.55833,0 h 0.17639 v -0.17639 -0.17639 h -0.17639 -0.17639 v 0.17639 0.17639 z m -64.16881,-1.50666 0.21314,-0.21313 -0.18529,-0.46303 -0.18528,-0.46302 -0.0278,0.67616 -0.0278,0.67616 0.21313,-0.21314 z m 63.85278,0 0.21313,-0.21313 -0.18528,-0.46303 -0.18529,-0.46302 -0.0278,0.67616 -0.0279,0.67616 0.21313,-0.21314 z M 29.63463,82.193364 H 30.105 l -0.23519,-0.23518 -0.23518,-0.23518 -0.23519,0.23518 -0.23519,0.23518 z m 3.88055,0 h 0.47037 l -0.23518,-0.23518 -0.23519,-0.23518 -0.23518,0.23518 -0.23519,0.23518 z m 122.56088,-0.0278 0.67615,0.0278 -0.21313,-0.21313 -0.21314,-0.21314 -0.46302,0.18529 -0.46302,0.18528 0.67616,0.0278 z m 4.08634,0.0278 h 0.47037 l -0.23519,-0.23518 -0.23518,-0.23518 -0.23519,0.23518 -0.23518,0.23518 z M 28.3999,81.840594 h 0.17639 v -0.17639 -0.17639 H 28.3999 28.22352 v 0.17639 0.17639 z m 6.35,0 h 0.17639 v -0.17639 -0.17639 H 34.7499 34.57352 v 0.17639 0.17639 z m 120.29722,0 h 0.17639 v -0.17639 -0.17639 h -0.17639 -0.17639 v 0.17639 0.17639 z m 6.35,0 h 0.17639 v -0.17639 -0.17639 h -0.17639 -0.17639 v 0.17639 0.17639 z m -129.89908,-0.36053 2.0398,0.008 1.22325,-0.51111 1.22326,-0.5111 1.17796,-0.89848 1.17796,-0.89847 1.01913,-1.85362 1.01912,-1.8536 0.008,-2.13141 0.008,-2.1314 -0.97014,-1.86991 -0.97014,-1.86989 v -0.849392 -0.84939 l 0.71964,-0.71964 0.71965,-0.71965 0.95605,-0.41486 0.95608,-0.41487 10.40694,-0.18842 10.40694,-0.18841 0.17639,-10.406942 0.17639,-10.406944 0.79804,-1.49366 0.79804,-1.493663 0.89185,-0.22384 0.89185,-0.223837 2.14629,0.963197 2.14628,0.963194 1.28586,0.172472 1.28586,0.172468 1.45986,-0.393099 1.45986,-0.393097 1.69542,-1.141735 1.69542,-1.141733 0.9831,-1.892366 0.9831,-1.89237 v -2.141642 -2.141389 l -0.72683,-1.501434 -0.72683,-1.501431 -1.12525,-1.123788 -1.12525,-1.123787 -1.52806,-0.690386 -1.52805,-0.690386 -1.86753,-0.01678 -1.86752,-0.01678 -2.02691,0.927951 -2.02692,0.927952 h -0.99007 -0.9901 l -0.705,-0.896264 -0.705,-0.896259 -0.37894,-1.766939 -0.37894,-1.766938 V 10.032953 0.701707 H 31.75149 0.70705 v 31.044442 31.044442 h 9.33125 9.33124 l 1.76694,0.37894 1.76694,0.37894 0.89626,0.705 0.89626,0.705 v 1.04445 1.044463 l -0.88195,1.74043 -0.88194,1.74044 0.008,2.21659 0.008,2.21658 0.64453,1.41111 0.64452,1.41111 1.19981,1.18958 1.19981,1.18957 1.41111,0.65476 1.41111,0.65476 2.0398,0.008 z m 122.49075,0.008 h 0.17639 v -0.17638 -0.17639 h -0.17639 -0.17639 v 0.17639 0.17638 z m 4.18542,-0.008 2.16458,-0.008 1.43962,-0.65384 1.43962,-0.65384 1.28038,-1.31837 1.28038,-1.31836 0.58527,-1.5325 0.58526,-1.53249 -0.142,-2.23002 -0.14199,-2.23002 -0.78202,-1.50034 -0.78202,-1.50034 v -0.992792 -0.9928 l 0.67219,-0.60833 0.6722,-0.60833 1.67692,-0.50467 1.67693,-0.50469 h 9.64532 9.64532 V 31.74612 0.701679 h -31.04444 -31.04444 v 9.331246 9.331246 l -0.37894,1.766938 -0.37894,1.766939 -0.705,0.896259 -0.705,0.896287 h -1.00374 -1.00375 l -1.86778,-0.938134 -1.86778,-0.938134 -1.99452,0.01879 -1.99453,0.01879 -1.54654,0.688334 -1.54654,0.688334 -1.18958,1.201152 -1.18957,1.201151 -0.65476,1.41111 -0.65476,1.411113 -0.008,2.135595 -0.008,2.135596 0.9287,1.863656 0.9287,1.863659 1.62893,1.186889 1.62895,1.186889 1.70297,0.41184 1.70298,0.411839 1.19908,-0.194585 1.19907,-0.194582 2.14993,-0.96483 2.14992,-0.964829 0.91194,0.323932 0.91194,0.323929 0.73887,1.411113 0.73886,1.41111 0.17639,10.406943 0.17639,10.406947 10.40694,0.17807 10.40694,0.17807 1.40306,0.70387 1.40305,0.70388 0.33199,0.94524 0.33199,0.94525 -0.92387,2.058643 -0.92386,2.05865 -0.22717,1.42065 -0.22717,1.42065 0.39092,1.4518 0.39093,1.45178 1.14173,1.69542 1.14174,1.69543 1.89236,0.9831 1.89237,0.9831 2.16458,-0.008 z M 26.98879,81.135044 h 0.17639 v -0.17639 -0.17638 H 26.98879 26.8124 v 0.17638 0.17639 z m -0.70555,-0.35277 h 0.17639 v -0.17639 -0.17639 h -0.17639 -0.17639 v 0.17639 0.17639 z m 10.58333,0 h 0.17639 v -0.17639 -0.17639 h -0.17639 -0.17639 v 0.17639 0.17639 z m 116.06388,0 h 0.17639 v -0.17639 -0.17639 h -0.17639 -0.17638 v 0.17639 0.17639 z m 10.58334,0 h 0.17639 v -0.17639 -0.17639 h -0.17639 -0.17639 v 0.17639 0.17639 z M 38.23604,79.723934 h 0.17639 l 0.21803,-0.35278 0.21803,-0.35277 H 38.6721 38.49571 l -0.21803,0.35276 -0.21803,0.35278 z m 25.17564,-3.77245 0.11235,-3.94885 -0.1119,-4.16504 -0.1119,-4.165042 -2.6e-4,8.113892 -2.7e-4,8.11388 0.11235,-3.94884 z m 63.14722,0 0.11235,-3.94885 -0.1119,-4.16504 -0.1119,-4.165042 -2.6e-4,8.113892 -2.7e-4,8.11388 0.11235,-3.94884 z m 24.98126,3.77245 h 0.15557 v -0.15557 -0.15557 l -0.40728,-0.25171 -0.40729,-0.25172 0.25172,0.40729 0.25171,0.40728 z M 23.81379,78.312814 h 0.17639 v -0.17639 -0.17639 H 23.81379 23.6374 v 0.17639 0.17639 z m 142.16944,0 h 0.17639 v -0.17639 -0.17639 h -0.17639 -0.17639 v 0.17639 0.17639 z M 39.68879,77.960034 h 0.17639 v -0.17639 -0.17639 H 39.68879 39.5124 v 0.17639 0.17639 z m 110.41944,0 h 0.17639 v -0.17639 -0.17639 h -0.17639 -0.17639 v 0.17639 0.17639 z M 40.04157,77.254474 h 0.17639 v -0.17638 -0.17639 h -0.17639 -0.17639 v 0.17639 0.17638 z m 109.71388,0 h 0.17639 v -0.17638 -0.17639 h -0.17639 -0.17638 v 0.17639 0.17638 z m -109.3611,-0.70555 h 0.17639 v -0.17639 -0.17639 h -0.17639 -0.17639 v 0.17639 0.17639 z m 109.00833,0 h 0.17639 v -0.17639 -0.17639 h -0.17639 -0.17639 v 0.17639 0.17639 z M 22.75546,76.196144 h 0.17639 v -0.17639 -0.17639 h -0.17639 -0.17639 v 0.17639 0.17639 z m 144.28611,0 h 0.17638 v -0.17639 -0.17639 h -0.17638 -0.17639 v 0.17639 0.17639 z m -144.58009,-0.82314 0.23518,-0.23519 -0.23518,-0.23518 -0.23519,-0.23519 v 0.47037 0.47037 z m 18.28565,0.11759 h 0.17638 v -0.17639 -0.17639 h -0.17638 -0.17639 v 0.17639 0.17639 z m 108.30277,0 h 0.17639 v -0.17639 -0.17639 h -0.17639 -0.17639 v 0.17639 0.17639 z m 18.38119,-0.0955 0.21314,-0.21314 -0.18529,-0.46302 -0.18529,-0.46302 -0.0278,0.67616 -0.0279,0.67616 z m -126.25861,-1.93293 0.15288,-0.79375 -0.15288,-0.79375 -0.15288,-0.79375 v 1.5875 1.5875 z m 107.59722,0 0.15288,-0.79375 -0.15288,-0.79375 -0.15288,-0.79375 v 1.5875 1.5875 z m -126.30822,-2.67523 0.23518,-0.23519 -0.23518,-0.23518 -0.23519,-0.23519 v 0.47037 0.47037 z m 144.99166,0 0.23518,-0.23519 -0.23518,-0.23518 -0.23519,-0.23519 v 0.47037 0.47037 z m -126.64722,-0.35278 0.23518,-0.23519 -0.23518,-0.23518 -0.23518,-0.23519 v 0.47037 0.47037 z m 108.30278,0 0.23518,-0.23519 -0.23518,-0.23518 -0.23519,-0.23519 v 0.47037 0.47037 z M 22.75546,69.493414 h 0.17639 v -0.17639 -0.17639 h -0.17639 -0.17639 v 0.17639 0.17639 z m 17.63889,0 h 0.17639 v -0.17639 -0.17639 h -0.17639 -0.17639 v 0.17639 0.17639 z m 109.06712,-0.11759 0.23519,-0.23519 -0.23519,-0.23519 -0.23518,-0.23518 v 0.47037 0.47037 z m 17.5801,0.11759 h 0.17638 v -0.17639 -0.17639 h -0.17638 -0.17639 v 0.17639 0.17639 z M 23.10824,68.787854 h 0.17639 v -0.17639 -0.17639 h -0.17639 -0.17639 v 0.17639 0.17639 z m 143.58055,0 h 0.17639 v -0.17639 -0.17639 h -0.17639 -0.17639 v 0.17639 0.17639 z M 23.46101,68.082304 h 0.17639 v -0.17639 -0.17639 h -0.17639 -0.17638 v 0.17639 0.17639 z m 142.875,0 h 0.17639 v -0.17639 -0.17639 h -0.17639 -0.17639 v 0.17639 0.17639 z M 39.33602,67.376744 h 0.17638 v -0.17639 -0.17639 h -0.17638 -0.17639 v 0.17639 0.17639 z m 111.12499,0 h 0.17639 v -0.17639 -0.17639 h -0.17639 -0.17639 v 0.17639 0.17639 z m -126.25769,-0.801103 0.21313,-0.21313 -0.18528,-0.46302 -0.18529,-0.46303 -0.0279,0.67616 -0.0279,0.676161 z m 141.46388,0 0.21314,-0.21313 -0.18529,-0.46302 -0.18528,-0.46303 -0.0278,0.67616 -0.0279,0.676161 0.21314,-0.213141 z M 38.98324,66.318411 h 0.17639 v -0.176389 -0.17639 h -0.17639 -0.17639 v 0.17639 0.176389 z m 111.83055,0 h 0.17639 v -0.176389 -0.17639 h -0.17639 -0.17639 v 0.17639 0.176389 z M 22.75546,64.554522 h 0.17639 v -0.17639 -0.17639 h -0.17639 -0.17639 v 0.17639 0.17639 z m 17.63889,0 h 0.17639 v -0.17639 -0.17639 h -0.17639 -0.17639 v 0.17639 0.17639 z m 126.64722,0 h 0.17638 v -0.17639 -0.17639 h -0.17638 -0.17639 v 0.17639 0.17639 z M 21.87351,64.201742 h 0.47037 l -0.23518,-0.23518 -0.23519,-0.235191 -0.23518,0.235191 -0.23519,0.23518 z m 19.40278,0 h 0.47037 l -0.23518,-0.23518 -0.23519,-0.235191 -0.23519,0.235191 -0.23518,0.23518 z m 107.06805,0 h 0.17639 v -0.17639 -0.17639 h -0.17639 -0.17638 v 0.17639 0.17639 z m 19.40278,0 h 0.17639 v -0.17639 -0.17639 h -0.17639 -0.17639 v 0.17639 0.17639 z m -147.13773,-0.380631 0.67616,0.0279 -0.21314,-0.21313 -0.21313,-0.21314 -0.46302,0.18529 -0.46302,0.18528 z m 22.07801,0.0279 h 0.47037 l -0.23518,-0.23518 -0.23519,-0.23519 -0.23518,0.23519 -0.23519,0.23518 z m 104.42222,0 h 0.47037 l -0.23518,-0.23518 -0.23519,-0.23519 -0.23519,0.23519 -0.23518,0.23518 z m 22.225,0 h 0.47037 l -0.23518,-0.23518 -0.23519,-0.23519 -0.23519,0.23519 -0.23518,0.23518 z M 9.87907,63.342172 h 9.34861 l -4.6743,-0.1096 -4.67431,-0.10959 -4.67431,0.10959 -4.6743,0.1096 z m 43.56806,2.59e-4 9.17222,-2.59e-4 -4.69513,-0.109741 -4.69513,-0.10974 -4.4771,0.110101 -4.47709,0.110109 9.17223,-2.7e-4 z m 18.34444,0.002 8.11389,2.59e-4 -3.94885,-0.11235 -3.94885,-0.112349 -4.16504,0.111899 -4.16504,0.1119 8.11389,2.6e-4 z m 46.21389,0 8.11388,2.59e-4 -3.94884,-0.11235 -3.94885,-0.112349 -4.16504,0.111899 -4.16504,0.1119 8.11389,2.6e-4 z m 18.16805,-0.003 h 9.34861 l -4.6743,-0.1096 -4.67431,-0.10959 -4.6743,0.10959 -4.67431,0.1096 z m 43.74444,0 h 9.34861 l -4.6743,-0.1096 -4.67431,-0.10959 -4.6743,0.10959 -4.67431,0.1096 z m -96.86689,-0.22656 0.67615,0.0278 -0.21313,-0.21313 -0.21314,-0.213141 -0.46302,0.185291 -0.46302,0.18528 0.67616,0.0278 z m 23.63611,0 0.67615,0.0278 -0.21313,-0.21313 -0.21314,-0.213141 -0.46302,0.185291 -0.46302,0.18528 0.67616,0.0278 z m -43.27499,-4.82289 0.10959,-4.674307 -0.10959,-4.674303 -0.1096,-4.674307 v 9.34861 9.348617 z m 7.73334,4.49165 7.34883,-0.006 3.05626,-0.321661 3.05627,-0.32166 1.08887,-0.56308 1.08887,-0.56308 v -0.487549 -0.48755 l -0.94074,-1.81323 -0.94074,-1.813237 v -2.593486 -2.59348 l 0.95876,-1.959647 0.95877,-1.959641 1.1285,-0.954525 1.12851,-0.954524 1.87706,-0.862856 1.87707,-0.862857 2.53265,0.140224 2.53266,0.140219 1.39941,0.679127 1.39942,0.67913 1.27361,1.273617 1.27362,1.273614 0.82535,1.704948 0.82535,1.704946 v 2.572594 2.572597 l -0.94074,1.813236 -0.94074,1.81323 v 0.48755 0.48755 l 1.08887,0.56308 1.08888,0.56308 3.05626,0.32166 3.05627,0.32166 7.34882,0.006 7.34883,0.006 -0.12443,-9.965975 -0.12442,-9.96597 -0.6235,-1.398745 -0.6235,-1.398749 -0.38712,-0.239255 -0.38712,-0.239255 -2.15684,1.020363 -2.15683,1.02036 -2.14202,2.65e-4 -2.14202,2.64e-4 -1.60921,-0.548314 -1.60922,-0.548312 -1.37528,-1.177192 -1.37528,-1.177195 -0.98521,-1.810141 -0.9852,-1.810143 -0.19307,-1.870662 -0.19307,-1.870663 0.56425,-1.940943 0.56425,-1.940946 1.19702,-1.567691 1.19702,-1.567692 1.89769,-1.051025 1.89768,-1.051035 h 2.83696 2.83696 l 1.8438,0.956593 1.84378,0.956593 0.49531,-0.190068 0.49531,-0.190067 0.63763,-1.472081 0.63763,-1.472081 0.12022,-9.789582 0.12024,-9.789583 H 94.89851 63.80428 l 0.12024,9.789583 0.12023,9.789582 0.63763,1.472081 0.63762,1.472081 0.49531,0.190067 0.49531,0.190068 1.84379,-0.956593 1.84379,-0.956593 h 2.83696 2.83696 l 1.94028,1.094414 1.94028,1.094414 1.14349,1.486662 1.14348,1.486663 0.57519,1.978583 0.57519,1.978586 -0.18888,1.830094 -0.18888,1.830096 -0.89833,1.772765 -0.89833,1.772761 -1.46635,1.255141 -1.46634,1.255139 -1.60921,0.548311 -1.60922,0.548315 -2.14202,-2.65e-4 -2.14201,-2.64e-4 -2.17607,-1.029454 -2.17606,-1.029458 -0.53341,0.589411 -0.53341,0.589407 -0.44969,1.057687 -0.44969,1.057688 -0.13272,9.965971 -0.13272,9.965974 7.34883,-0.006 z m 13.69883,0.006 h 0.17638 v -0.17639 -0.17639 h -0.17638 -0.17639 v 0.17639 0.17639 z m 20.10833,0 h 0.17639 v -0.17639 -0.17639 h -0.17639 -0.17639 v 0.17639 0.17639 z m 21.60691,-4.6954 0.10911,-4.871784 -0.10945,-4.653217 -0.10945,-4.653211 2.7e-4,9.525 2.6e-4,9.525002 z M 85.90268,62.43685 h 0.17639 v -0.176389 -0.17639 h -0.17639 -0.17639 v 0.17639 0.176389 z m 17.99166,0 h 0.17639 v -0.176389 -0.17639 h -0.17639 -0.17638 v 0.17639 0.176389 z M 87.31379,61.02571 h 0.17639 V 60.84932 60.672931 H 87.31379 87.1374 v 0.176389 0.17639 z m 15.16944,0 h 0.17639 v -0.17639 -0.176389 h -0.17639 -0.17639 v 0.176389 0.17639 z M 87.31379,59.96738 h 0.17639 V 59.79099 59.614601 H 87.31379 87.1374 v 0.176389 0.17639 z m -0.70556,-1.41111 h 0.17639 v -0.17639 -0.176389 h -0.17639 -0.17638 v 0.176389 0.17639 z m 16.58056,0 h 0.17639 v -0.17639 -0.176389 h -0.17639 -0.17639 v 0.176389 0.17639 z M 86.25546,57.85071 h 0.17639 v -0.176389 -0.17639 h -0.17639 -0.17639 v 0.17639 0.176389 z m 17.28611,0 h 0.17639 v -0.176389 -0.17639 h -0.17639 -0.17639 v 0.17639 0.176389 z m -17.58009,-0.823149 0.23518,-0.235184 -0.23518,-0.235185 -0.23519,-0.235183 v 0.470368 0.470374 z m 17.99166,0 0.23518,-0.235184 -0.23518,-0.235185 -0.23518,-0.235183 v 0.470368 0.470374 z m -18.36649,-1.389058 0.21313,-0.213138 -0.18528,-0.463021 -0.18529,-0.463021 -0.0278,0.676159 -0.0278,0.676152 0.21314,-0.213132 z m 18.69722,0 0.21313,-0.213138 -0.18528,-0.463021 -0.18529,-0.463021 -0.0278,0.676159 -0.0279,0.676152 z M 85.58665,52.81628 85.79978,52.603142 85.6145,52.140121 85.42921,51.6771 l -0.0278,0.676158 -0.0278,0.676156 0.21314,-0.213135 z m 18.69722,0 0.21313,-0.213138 -0.18528,-0.463021 -0.18529,-0.463021 -0.0278,0.676158 -0.0279,0.676156 z m -18.32239,-1.785938 0.23518,-0.235185 -0.23518,-0.235188 -0.23519,-0.235183 v 0.470371 0.470368 z m 17.99166,0 0.23518,-0.235185 -0.23518,-0.235188 -0.23518,-0.235183 v 0.470371 0.470368 z M 86.25546,50.089601 h 0.17639 v -0.17639 -0.176387 h -0.17639 -0.17639 v 0.176387 0.17639 z m 17.28611,0 h 0.17639 v -0.17639 -0.176387 h -0.17639 -0.17639 v 0.176387 0.17639 z M 86.60823,49.384045 h 0.17639 v -0.176388 -0.176389 h -0.17639 -0.17638 v 0.17639 0.176387 z m 16.58056,0 h 0.17639 v -0.176388 -0.176389 h -0.17639 -0.17639 v 0.17639 0.176387 z M 86.96101,48.678491 h 0.17639 v -0.17558 -0.176389 h -0.17639 -0.17639 v 0.176389 0.17639 z m 15.875,0 h 0.17639 v -0.17558 -0.176389 h -0.17639 -0.17639 v 0.176389 0.17639 z M 89.43046,46.209045 h 0.17639 v -0.176388 -0.176389 h -0.17639 -0.17639 v 0.17639 0.176387 z m 10.93611,0 h 0.17639 v -0.176388 -0.176389 h -0.17639 -0.17639 v 0.17639 0.176387 z m -9.87778,-0.705554 h 0.17639 v -0.17558 -0.176389 H 90.48879 90.3124 v 0.176389 0.17639 z m 8.81944,0 h 0.17639 v -0.17558 -0.176389 h -0.17639 -0.17639 v 0.176389 0.17639 z m -0.70555,-0.35278 h 0.17639 v -0.176388 -0.176389 h -0.17639 -0.17639 v 0.176389 0.176388 z m -6.17361,-0.352777 h 0.47037 l -0.23519,-0.235185 -0.23518,-0.235183 -0.23519,0.235183 -0.23518,0.235185 z m 5.11527,0 h 0.17639 v -0.17639 -0.176387 h -0.17639 -0.17638 v 0.176387 0.17639 z m -2.46944,-0.441741 1.41111,0.0071 -0.61325,-0.160542 -0.61325,-0.160545 -0.79786,0.153425 -0.79786,0.153424 1.41111,0.0071 z m -31.33842,-1.439741 0.23518,-0.235185 -0.23518,-0.235185 -0.23519,-0.235183 v 0.470368 0.470368 z m 62.44166,0 0.23518,-0.235185 -0.23518,-0.235185 -0.23518,-0.235183 v 0.470368 0.470368 z m -62.08889,-1.41111 0.23519,-0.235185 -0.23519,-0.235188 -0.23518,-0.235183 v 0.470371 0.470368 z m 61.73611,0 0.23519,-0.235185 -0.23519,-0.235188 -0.23518,-0.235183 v 0.470371 0.470368 z M 72.67351,41.174073 h 1.5875 l -0.79375,-0.152884 -0.79375,-0.152881 -0.79375,0.152881 -0.79375,0.152884 z m 44.45,0 h 1.5875 l -0.79375,-0.152884 -0.79375,-0.152881 -0.79375,0.152881 -0.79375,0.152884 z M 70.20407,40.917378 h 0.47037 l -0.23519,-0.235186 -0.23518,-0.235183 -0.23519,0.235183 -0.23518,0.235186 z m 5.11528,0 h 0.17639 v -0.176387 -0.17639 h -0.17639 -0.17639 v 0.17639 0.176387 z m 39.15833,0 h 0.17639 v -0.176387 -0.17639 h -0.17639 -0.17639 v 0.17639 0.176387 z m 5.11528,0 h 0.47036 l -0.23518,-0.235186 -0.23518,-0.235183 -0.23519,0.235183 -0.23518,0.235186 z M 64.38324,40.564601 h 0.17638 v -0.176204 -0.17639 h -0.17638 -0.17639 v 0.17639 0.176387 z m 4.93888,0 h 0.17639 v -0.176204 -0.17639 h -0.17639 -0.17638 v 0.17639 0.176387 z m 7.05556,0 h 0.17639 v -0.176204 -0.17639 h -0.17639 -0.17639 v 0.17639 0.176387 z m 37.04166,0 h 0.17639 v -0.176204 -0.17639 h -0.17639 -0.17639 v 0.17639 0.176387 z m 7.23195,0 h 0.47037 l -0.23519,-0.235186 -0.23518,-0.235183 -0.23519,0.235183 -0.23518,0.235186 z m 4.7625,0 h 0.17639 v -0.176204 -0.17639 h -0.17639 -0.17639 v 0.17639 0.176387 z m -57.15,-0.352777 h 0.17639 V 40.035616 39.85923 H 68.26379 68.0874 v 0.176386 0.176391 z m 8.81944,0 h 0.17639 V 40.035616 39.85923 h -0.17639 -0.17638 v 0.176386 0.176391 z m 35.63056,0 h 0.17639 V 40.035616 39.85923 h -0.17639 -0.17639 v 0.176386 0.176391 z m -34.925,-0.352776 h 0.17639 v -0.17639 -0.17639 H 77.78879 77.6124 v 0.176571 0.176391 z m 34.21944,0 h 0.17639 v -0.17639 -0.17639 h -0.17639 -0.17639 v 0.176571 0.176391 z m -44.80277,-0.35278 h 0.17639 v -0.176205 -0.176389 h -0.17639 -0.17639 v 0.176389 0.176388 z m 55.38611,0 h 0.17639 v -0.176205 -0.176389 h -0.17639 -0.17639 v 0.176389 0.176388 z M 66.14712,39.153491 h 0.17639 v -0.176207 -0.176387 h -0.17639 -0.17638 v 0.176387 0.17639 z m 57.50278,0 h 0.17639 v -0.176207 -0.176387 h -0.17639 -0.17639 v 0.176387 0.17639 z M 79.15826,38.800897 h 0.17639 l 0.21803,-0.35278 0.21803,-0.352777 h -0.17639 -0.17639 l -0.21803,0.352777 -0.21803,0.35278 z m 31.45968,0 h 0.15557 v -0.15557 -0.15557 l -0.40728,-0.251714 -0.40729,-0.251719 0.25172,0.407286 0.25171,0.407287 z m -30.00693,-1.76389 h 0.17639 v -0.17639 -0.176387 h -0.17639 -0.17639 v 0.176387 0.17639 z m 28.575,0 h 0.17639 v -0.17639 -0.176387 h -0.17639 -0.17639 v 0.176387 0.17639 z m -0.70555,-1.058333 h 0.17638 v -0.17639 -0.176387 h -0.17638 -0.17639 v 0.176387 0.17639 z M 81.66935,34.92034 h 0.17638 v -0.176389 -0.176388 h -0.17638 -0.17639 v 0.176388 0.176389 z m 26.45833,0 h 0.17639 v -0.176389 -0.176388 h -0.17639 -0.17639 v 0.176388 0.176389 z M 82.08092,33.744415 82.3161,33.509229 82.08092,33.274044 81.84573,33.038858 v 0.470371 0.470369 z m 25.75278,0 0.23518,-0.235186 -0.23518,-0.235185 -0.23519,-0.235186 v 0.470371 0.470369 z M 82.08092,29.863858 82.3161,29.628673 82.08092,29.393487 81.84573,29.158302 v 0.470371 0.470371 z m 25.75278,0 0.23518,-0.235185 -0.23518,-0.235186 -0.23519,-0.235185 v 0.470371 0.470371 z M 81.66935,28.57034 h 0.17638 v -0.17639 -0.176387 h -0.17638 -0.17639 v 0.176387 0.17639 z m 26.45833,0 h 0.17639 v -0.17639 -0.176387 h -0.17639 -0.17639 v 0.176387 0.17639 z M 80.96379,27.159229 h 0.17639 V 26.98284 26.80645 H 80.96379 80.7874 v 0.17639 0.176389 z m -0.35278,-0.705556 h 0.17639 v -0.17639 -0.176388 h -0.17639 -0.17639 v 0.176388 0.17639 z m 28.575,0 h 0.17639 v -0.17639 -0.176388 h -0.17639 -0.17639 v 0.176388 0.17639 z m -42.8625,-2.116667 h 0.47037 l -0.23518,-0.235185 -0.23519,-0.235185 -0.23518,0.235185 -0.23519,0.235185 z m 57.29699,-0.02785 0.67616,0.02785 -0.21314,-0.213136 -0.21314,-0.213137 -0.46302,0.185286 -0.46302,0.185286 z M 78.14157,23.984229 h 0.17639 V 23.80865 23.632261 h -0.17639 -0.17639 v 0.176389 0.176389 z m 33.51389,0 h 0.17638 V 23.80865 23.632261 h -0.17638 -0.17639 v 0.176389 0.176389 z M 67.91101,23.631451 h 0.17639 v -0.176389 -0.176389 h -0.17639 -0.17639 v 0.176389 0.176389 z m 53.975,0 h 0.17639 v -0.176389 -0.176389 h -0.17639 -0.17639 v 0.176389 0.176389 z M 68.61657,23.278673 h 0.17639 v -0.176389 -0.176389 h -0.17639 -0.17639 v 0.176389 0.176389 z m 44.09722,0 h 0.17639 v -0.176389 -0.176389 h -0.17639 -0.17639 v 0.176389 0.176389 z m 8.46667,0 h 0.17639 v -0.176389 -0.176389 h -0.17639 -0.17639 v 0.176389 0.176389 z M 64.38324,22.925895 h 0.17638 v -0.176388 -0.176389 h -0.17638 -0.17639 v 0.176389 0.176388 z m 4.93888,0 h 0.17639 v -0.176388 -0.176389 h -0.17639 -0.17638 v 0.176389 0.176388 z m 6.70278,0 h 0.17639 V 22.749507 22.573118 H 76.0249 75.84851 v 0.176389 0.176388 z m 37.74722,0 h 0.17639 v -0.176388 -0.176389 h -0.17639 -0.17639 v 0.176389 0.176388 z m 6.70278,0 h 0.17639 v -0.176388 -0.176389 h -0.17639 -0.17639 v 0.176389 0.176388 z m 4.93889,0 h 0.17639 v -0.176388 -0.176389 h -0.17639 -0.17639 v 0.176389 0.176388 z M 70.55685,22.573118 h 0.47036 l -0.23518,-0.235186 -0.23518,-0.235185 -0.23519,0.235185 -0.23518,0.235186 z m 4.40972,0 h 0.17639 V 22.396729 22.22034 h -0.17639 -0.17639 v 0.176389 0.176389 z m 39.6875,0 h 0.47037 l -0.23519,-0.235186 -0.23518,-0.235185 -0.23519,0.235185 -0.23518,0.235186 z m 4.58611,0 h 0.47037 l -0.23519,-0.235186 -0.23518,-0.235185 -0.23519,0.235185 -0.23518,0.235186 z m -55.15093,-0.470371 0.23519,-0.235185 -0.23519,-0.235185 -0.23518,-0.235185 v 0.47037 0.47037 z m 53.03426,0.117593 h 0.47037 l -0.23518,-0.235186 -0.23519,-0.235185 -0.23519,0.235185 -0.23518,0.235186 z m 8.64306,0 h 0.17639 v -0.175579 -0.176389 h -0.17639 -0.17639 v 0.176389 0.176389 z m 0.38952,-1.153877 0.21314,-0.213137 -0.18529,-0.463021 -0.18528,-0.463021 -0.0278,0.676158 -0.0279,0.676157 0.21314,-0.213136 z m -62.41961,-0.374827 0.23518,-0.235185 -0.23518,-0.235185 -0.23519,-0.235185 v 0.47037 0.47037 z m -0.3243,-6.144212 0.10959,-4.674306 -0.10959,-4.674304 -0.1096,-4.674306 v 9.34861 9.348611 z m 63.14722,0 0.10959,-4.674306 -0.10959,-4.674304 -0.1096,-4.674306 v 9.34861 9.348611 z"
       id="path449" />
  </g>
</svg>
